M48
; DRILL file {KiCad 7.0.9} date Fri Jul 19 15:31:26 2024
; FORMAT={-:-/ absolute / metric / decimal}
; #@! TF.CreationDate,2024-07-19T15:31:26+09:00
; #@! TF.GenerationSoftware,Kicad,Pcbnew,7.0.9
; #@! TF.FileFunction,Plated,1,2,PTH
FMAT,2
METRIC
; #@! TA.AperFunction,Plated,PTH,ViaDrill
T1C0.400
; #@! TA.AperFunction,Plated,PTH,ComponentDrill
T2C1.000
%
G90
G05
T1
X11.654Y78.85
X11.654Y62.75
X11.654Y46.65
X11.654Y30.55
X11.654Y14.45
X12.754Y77.35
X12.754Y61.25
X12.754Y45.15
X12.754Y29.05
X12.754Y12.95
X13.554Y73.55
X13.554Y57.45
X13.554Y41.35
X13.554Y25.25
X13.554Y9.15
X13.954Y75.55
X13.954Y59.45
X13.954Y43.35
X13.954Y27.25
X13.954Y11.15
X17.929Y76.45
X17.929Y60.35
X17.929Y44.25
X17.929Y28.15
X17.929Y12.05
X18.454Y74.05
X18.454Y57.95
X18.454Y41.85
X18.454Y25.75
X18.454Y9.65
X19.254Y78.15
X19.254Y62.05
X19.254Y45.95
X19.254Y29.85
X19.254Y13.75
X19.654Y72.65
X19.654Y56.55
X19.654Y40.45
X19.654Y24.35
X19.654Y8.25
X32.654Y78.85
X32.654Y62.75
X32.654Y46.65
X32.654Y30.55
X32.654Y14.45
X33.754Y77.35
X33.754Y61.25
X33.754Y45.15
X33.754Y29.05
X33.754Y12.95
X34.554Y73.55
X34.554Y57.45
X34.554Y41.35
X34.554Y25.25
X34.554Y9.15
X34.954Y75.55
X34.954Y59.45
X34.954Y43.35
X34.954Y27.25
X34.954Y11.15
X38.929Y76.45
X38.929Y60.35
X38.929Y44.25
X38.929Y28.15
X38.929Y12.05
X39.454Y74.05
X39.454Y57.95
X39.454Y41.85
X39.454Y25.75
X39.454Y9.65
X40.254Y78.15
X40.254Y62.05
X40.254Y45.95
X40.254Y29.85
X40.254Y13.75
X40.654Y72.65
X40.654Y56.55
X40.654Y40.45
X40.654Y24.35
X40.654Y8.25
X53.654Y78.85
X53.654Y62.75
X53.654Y46.65
X53.654Y30.55
X53.654Y14.45
X54.754Y77.35
X54.754Y61.25
X54.754Y45.15
X54.754Y29.05
X54.754Y12.95
X55.554Y73.55
X55.554Y57.45
X55.554Y41.35
X55.554Y25.25
X55.554Y9.15
X55.954Y75.55
X55.954Y59.45
X55.954Y43.35
X55.954Y27.25
X55.954Y11.15
X59.929Y76.45
X59.929Y60.35
X59.929Y44.25
X59.929Y28.15
X59.929Y12.05
X60.454Y74.05
X60.454Y57.95
X60.454Y41.85
X60.454Y25.75
X60.454Y9.65
X61.254Y78.15
X61.254Y62.05
X61.254Y45.95
X61.254Y29.85
X61.254Y13.75
X61.654Y72.65
X61.654Y56.55
X61.654Y40.45
X61.654Y24.35
X61.654Y8.25
X74.654Y78.85
X74.654Y62.75
X74.654Y46.65
X74.654Y30.55
X74.654Y14.45
X75.754Y77.35
X75.754Y61.25
X75.754Y45.15
X75.754Y29.05
X75.754Y12.95
X76.554Y73.55
X76.554Y57.45
X76.554Y41.35
X76.554Y25.25
X76.554Y9.15
X76.954Y75.55
X76.954Y59.45
X76.954Y43.35
X76.954Y27.25
X76.954Y11.15
X80.929Y76.45
X80.929Y60.35
X80.929Y44.25
X80.929Y28.15
X80.929Y12.05
X81.454Y74.05
X81.454Y57.95
X81.454Y41.85
X81.454Y25.75
X81.454Y9.65
X82.254Y78.15
X82.254Y62.05
X82.254Y45.95
X82.254Y29.85
X82.254Y13.75
X82.654Y72.65
X82.654Y56.55
X82.654Y40.45
X82.654Y24.35
X82.654Y8.25
T2
X7.304Y82.15
X7.304Y79.61
X7.304Y77.07
X7.304Y74.53
X7.304Y71.99
X7.304Y66.05
X7.304Y63.51
X7.304Y60.97
X7.304Y58.43
X7.304Y55.89
X7.304Y49.95
X7.304Y47.41
X7.304Y44.87
X7.304Y42.33
X7.304Y39.79
X7.304Y33.85
X7.304Y31.31
X7.304Y28.77
X7.304Y26.23
X7.304Y23.69
X7.304Y17.75
X7.304Y15.21
X7.304Y12.67
X7.304Y10.13
X7.304Y7.59
X22.354Y82.15
X22.354Y79.61
X22.354Y77.07
X22.354Y74.53
X22.354Y71.99
X22.354Y66.05
X22.354Y63.51
X22.354Y60.97
X22.354Y58.43
X22.354Y55.89
X22.354Y49.95
X22.354Y47.41
X22.354Y44.87
X22.354Y42.33
X22.354Y39.79
X22.354Y33.85
X22.354Y31.31
X22.354Y28.77
X22.354Y26.23
X22.354Y23.69
X22.354Y17.75
X22.354Y15.21
X22.354Y12.67
X22.354Y10.13
X22.354Y7.59
X28.304Y82.15
X28.304Y79.61
X28.304Y77.07
X28.304Y74.53
X28.304Y71.99
X28.304Y66.05
X28.304Y63.51
X28.304Y60.97
X28.304Y58.43
X28.304Y55.89
X28.304Y49.95
X28.304Y47.41
X28.304Y44.87
X28.304Y42.33
X28.304Y39.79
X28.304Y33.85
X28.304Y31.31
X28.304Y28.77
X28.304Y26.23
X28.304Y23.69
X28.304Y17.75
X28.304Y15.21
X28.304Y12.67
X28.304Y10.13
X28.304Y7.59
X43.354Y82.15
X43.354Y79.61
X43.354Y77.07
X43.354Y74.53
X43.354Y71.99
X43.354Y66.05
X43.354Y63.51
X43.354Y60.97
X43.354Y58.43
X43.354Y55.89
X43.354Y49.95
X43.354Y47.41
X43.354Y44.87
X43.354Y42.33
X43.354Y39.79
X43.354Y33.85
X43.354Y31.31
X43.354Y28.77
X43.354Y26.23
X43.354Y23.69
X43.354Y17.75
X43.354Y15.21
X43.354Y12.67
X43.354Y10.13
X43.354Y7.59
X49.304Y82.15
X49.304Y79.61
X49.304Y77.07
X49.304Y74.53
X49.304Y71.99
X49.304Y66.05
X49.304Y63.51
X49.304Y60.97
X49.304Y58.43
X49.304Y55.89
X49.304Y49.95
X49.304Y47.41
X49.304Y44.87
X49.304Y42.33
X49.304Y39.79
X49.304Y33.85
X49.304Y31.31
X49.304Y28.77
X49.304Y26.23
X49.304Y23.69
X49.304Y17.75
X49.304Y15.21
X49.304Y12.67
X49.304Y10.13
X49.304Y7.59
X64.354Y82.15
X64.354Y79.61
X64.354Y77.07
X64.354Y74.53
X64.354Y71.99
X64.354Y66.05
X64.354Y63.51
X64.354Y60.97
X64.354Y58.43
X64.354Y55.89
X64.354Y49.95
X64.354Y47.41
X64.354Y44.87
X64.354Y42.33
X64.354Y39.79
X64.354Y33.85
X64.354Y31.31
X64.354Y28.77
X64.354Y26.23
X64.354Y23.69
X64.354Y17.75
X64.354Y15.21
X64.354Y12.67
X64.354Y10.13
X64.354Y7.59
X70.304Y82.15
X70.304Y79.61
X70.304Y77.07
X70.304Y74.53
X70.304Y71.99
X70.304Y66.05
X70.304Y63.51
X70.304Y60.97
X70.304Y58.43
X70.304Y55.89
X70.304Y49.95
X70.304Y47.41
X70.304Y44.87
X70.304Y42.33
X70.304Y39.79
X70.304Y33.85
X70.304Y31.31
X70.304Y28.77
X70.304Y26.23
X70.304Y23.69
X70.304Y17.75
X70.304Y15.21
X70.304Y12.67
X70.304Y10.13
X70.304Y7.59
X85.354Y82.15
X85.354Y79.61
X85.354Y77.07
X85.354Y74.53
X85.354Y71.99
X85.354Y66.05
X85.354Y63.51
X85.354Y60.97
X85.354Y58.43
X85.354Y55.89
X85.354Y49.95
X85.354Y47.41
X85.354Y44.87
X85.354Y42.33
X85.354Y39.79
X85.354Y33.85
X85.354Y31.31
X85.354Y28.77
X85.354Y26.23
X85.354Y23.69
X85.354Y17.75
X85.354Y15.21
X85.354Y12.67
X85.354Y10.13
X85.354Y7.59
T0
M30
