M48
; DRILL file {KiCad 7.0.9} date Fri Jul 19 15:31:26 2024
; FORMAT={-:-/ absolute / metric / decimal}
; #@! TF.CreationDate,2024-07-19T15:31:26+09:00
; #@! TF.GenerationSoftware,Kicad,Pcbnew,7.0.9
; #@! TF.FileFunction,NonPlated,1,2,NPTH
FMAT,2
METRIC
; #@! TA.AperFunction,NonPlated,NPTH,ComponentDrill
T1C0.500
%
G90
G05
T1
X-0.896Y84.2
X-0.896Y5.7
X-0.021Y84.2
X-0.021Y5.7
X0.854Y84.2
X0.854Y5.7
X1.729Y84.2
X1.729Y5.7
X2.604Y84.2
X2.604Y5.7
X5.104Y78.9
X5.104Y78.025
X5.104Y77.15
X5.104Y76.275
X5.104Y75.4
X5.104Y62.8
X5.104Y61.925
X5.104Y61.05
X5.104Y60.175
X5.104Y59.3
X5.104Y46.7
X5.104Y45.825
X5.104Y44.95
X5.104Y44.075
X5.104Y43.2
X5.104Y30.6
X5.104Y29.725
X5.104Y28.85
X5.104Y27.975
X5.104Y27.1
X5.104Y14.5
X5.104Y13.625
X5.104Y12.75
X5.104Y11.875
X5.104Y11.0
X13.104Y84.45
X13.104Y69.85
X13.104Y68.35
X13.104Y53.75
X13.104Y52.25
X13.104Y37.65
X13.104Y36.15
X13.104Y21.55
X13.104Y20.05
X13.104Y5.45
X13.979Y84.45
X13.979Y69.85
X13.979Y68.35
X13.979Y53.75
X13.979Y52.25
X13.979Y37.65
X13.979Y36.15
X13.979Y21.55
X13.979Y20.05
X13.979Y5.45
X14.854Y84.45
X14.854Y69.85
X14.854Y68.35
X14.854Y53.75
X14.854Y52.25
X14.854Y37.65
X14.854Y36.15
X14.854Y21.55
X14.854Y20.05
X14.854Y5.45
X15.729Y84.45
X15.729Y69.85
X15.729Y68.35
X15.729Y53.75
X15.729Y52.25
X15.729Y37.65
X15.729Y36.15
X15.729Y21.55
X15.729Y20.05
X15.729Y5.45
X16.604Y84.45
X16.604Y69.85
X16.604Y68.35
X16.604Y53.75
X16.604Y52.25
X16.604Y37.65
X16.604Y36.15
X16.604Y21.55
X16.604Y20.05
X16.604Y5.45
X24.604Y78.9
X24.604Y78.025
X24.604Y77.15
X24.604Y76.275
X24.604Y75.4
X24.604Y62.8
X24.604Y61.925
X24.604Y61.05
X24.604Y60.175
X24.604Y59.3
X24.604Y46.7
X24.604Y45.825
X24.604Y44.95
X24.604Y44.075
X24.604Y43.2
X24.604Y30.6
X24.604Y29.725
X24.604Y28.85
X24.604Y27.975
X24.604Y27.1
X24.604Y14.5
X24.604Y13.625
X24.604Y12.75
X24.604Y11.875
X24.604Y11.0
X26.104Y78.9
X26.104Y78.025
X26.104Y77.15
X26.104Y76.275
X26.104Y75.4
X26.104Y62.8
X26.104Y61.925
X26.104Y61.05
X26.104Y60.175
X26.104Y59.3
X26.104Y46.7
X26.104Y45.825
X26.104Y44.95
X26.104Y44.075
X26.104Y43.2
X26.104Y30.6
X26.104Y29.725
X26.104Y28.85
X26.104Y27.975
X26.104Y27.1
X26.104Y14.5
X26.104Y13.625
X26.104Y12.75
X26.104Y11.875
X26.104Y11.0
X34.104Y84.45
X34.104Y69.85
X34.104Y68.35
X34.104Y53.75
X34.104Y52.25
X34.104Y37.65
X34.104Y36.15
X34.104Y21.55
X34.104Y20.05
X34.104Y5.45
X34.979Y84.45
X34.979Y69.85
X34.979Y68.35
X34.979Y53.75
X34.979Y52.25
X34.979Y37.65
X34.979Y36.15
X34.979Y21.55
X34.979Y20.05
X34.979Y5.45
X35.854Y84.45
X35.854Y69.85
X35.854Y68.35
X35.854Y53.75
X35.854Y52.25
X35.854Y37.65
X35.854Y36.15
X35.854Y21.55
X35.854Y20.05
X35.854Y5.45
X36.729Y84.45
X36.729Y69.85
X36.729Y68.35
X36.729Y53.75
X36.729Y52.25
X36.729Y37.65
X36.729Y36.15
X36.729Y21.55
X36.729Y20.05
X36.729Y5.45
X37.604Y84.45
X37.604Y69.85
X37.604Y68.35
X37.604Y53.75
X37.604Y52.25
X37.604Y37.65
X37.604Y36.15
X37.604Y21.55
X37.604Y20.05
X37.604Y5.45
X45.604Y78.9
X45.604Y78.025
X45.604Y77.15
X45.604Y76.275
X45.604Y75.4
X45.604Y62.8
X45.604Y61.925
X45.604Y61.05
X45.604Y60.175
X45.604Y59.3
X45.604Y46.7
X45.604Y45.825
X45.604Y44.95
X45.604Y44.075
X45.604Y43.2
X45.604Y30.6
X45.604Y29.725
X45.604Y28.85
X45.604Y27.975
X45.604Y27.1
X45.604Y14.5
X45.604Y13.625
X45.604Y12.75
X45.604Y11.875
X45.604Y11.0
X47.104Y78.9
X47.104Y78.025
X47.104Y77.15
X47.104Y76.275
X47.104Y75.4
X47.104Y62.8
X47.104Y61.925
X47.104Y61.05
X47.104Y60.175
X47.104Y59.3
X47.104Y46.7
X47.104Y45.825
X47.104Y44.95
X47.104Y44.075
X47.104Y43.2
X47.104Y30.6
X47.104Y29.725
X47.104Y28.85
X47.104Y27.975
X47.104Y27.1
X47.104Y14.5
X47.104Y13.625
X47.104Y12.75
X47.104Y11.875
X47.104Y11.0
X55.104Y84.45
X55.104Y69.85
X55.104Y68.35
X55.104Y53.75
X55.104Y52.25
X55.104Y37.65
X55.104Y36.15
X55.104Y21.55
X55.104Y20.05
X55.104Y5.45
X55.979Y84.45
X55.979Y69.85
X55.979Y68.35
X55.979Y53.75
X55.979Y52.25
X55.979Y37.65
X55.979Y36.15
X55.979Y21.55
X55.979Y20.05
X55.979Y5.45
X56.854Y84.45
X56.854Y69.85
X56.854Y68.35
X56.854Y53.75
X56.854Y52.25
X56.854Y37.65
X56.854Y36.15
X56.854Y21.55
X56.854Y20.05
X56.854Y5.45
X57.729Y84.45
X57.729Y69.85
X57.729Y68.35
X57.729Y53.75
X57.729Y52.25
X57.729Y37.65
X57.729Y36.15
X57.729Y21.55
X57.729Y20.05
X57.729Y5.45
X58.604Y84.45
X58.604Y69.85
X58.604Y68.35
X58.604Y53.75
X58.604Y52.25
X58.604Y37.65
X58.604Y36.15
X58.604Y21.55
X58.604Y20.05
X58.604Y5.45
X66.604Y78.9
X66.604Y78.025
X66.604Y77.15
X66.604Y76.275
X66.604Y75.4
X66.604Y62.8
X66.604Y61.925
X66.604Y61.05
X66.604Y60.175
X66.604Y59.3
X66.604Y46.7
X66.604Y45.825
X66.604Y44.95
X66.604Y44.075
X66.604Y43.2
X66.604Y30.6
X66.604Y29.725
X66.604Y28.85
X66.604Y27.975
X66.604Y27.1
X66.604Y14.5
X66.604Y13.625
X66.604Y12.75
X66.604Y11.875
X66.604Y11.0
X68.104Y78.9
X68.104Y78.025
X68.104Y77.15
X68.104Y76.275
X68.104Y75.4
X68.104Y62.8
X68.104Y61.925
X68.104Y61.05
X68.104Y60.175
X68.104Y59.3
X68.104Y46.7
X68.104Y45.825
X68.104Y44.95
X68.104Y44.075
X68.104Y43.2
X68.104Y30.6
X68.104Y29.725
X68.104Y28.85
X68.104Y27.975
X68.104Y27.1
X68.104Y14.5
X68.104Y13.625
X68.104Y12.75
X68.104Y11.875
X68.104Y11.0
X76.104Y84.45
X76.104Y69.85
X76.104Y68.35
X76.104Y53.75
X76.104Y52.25
X76.104Y37.65
X76.104Y36.15
X76.104Y21.55
X76.104Y20.05
X76.104Y5.45
X76.979Y84.45
X76.979Y69.85
X76.979Y68.35
X76.979Y53.75
X76.979Y52.25
X76.979Y37.65
X76.979Y36.15
X76.979Y21.55
X76.979Y20.05
X76.979Y5.45
X77.854Y84.45
X77.854Y69.85
X77.854Y68.35
X77.854Y53.75
X77.854Y52.25
X77.854Y37.65
X77.854Y36.15
X77.854Y21.55
X77.854Y20.05
X77.854Y5.45
X78.729Y84.45
X78.729Y69.85
X78.729Y68.35
X78.729Y53.75
X78.729Y52.25
X78.729Y37.65
X78.729Y36.15
X78.729Y21.55
X78.729Y20.05
X78.729Y5.45
X79.604Y84.45
X79.604Y69.85
X79.604Y68.35
X79.604Y53.75
X79.604Y52.25
X79.604Y37.65
X79.604Y36.15
X79.604Y21.55
X79.604Y20.05
X79.604Y5.45
X87.604Y78.9
X87.604Y78.025
X87.604Y77.15
X87.604Y76.275
X87.604Y75.4
X87.604Y62.8
X87.604Y61.925
X87.604Y61.05
X87.604Y60.175
X87.604Y59.3
X87.604Y46.7
X87.604Y45.825
X87.604Y44.95
X87.604Y44.075
X87.604Y43.2
X87.604Y30.6
X87.604Y29.725
X87.604Y28.85
X87.604Y27.975
X87.604Y27.1
X87.604Y14.5
X87.604Y13.625
X87.604Y12.75
X87.604Y11.875
X87.604Y11.0
X90.104Y84.2
X90.104Y5.7
X90.979Y84.2
X90.979Y5.7
X91.854Y84.2
X91.854Y5.7
X92.729Y84.2
X92.729Y5.7
X93.604Y84.2
X93.604Y5.7
T0
M30
