%TF.GenerationSoftware,KiCad,Pcbnew,7.0.9*%
%TF.CreationDate,2024-07-19T15:30:45+09:00*%
%TF.ProjectId,panelize,70616e65-6c69-47a6-952e-6b696361645f,rev?*%
%TF.SameCoordinates,PX39748eaPY88a96c5*%
%TF.FileFunction,Soldermask,Top*%
%TF.FilePolarity,Negative*%
%FSLAX46Y46*%
G04 Gerber Fmt 4.6, Leading zero omitted, Abs format (unit mm)*
G04 Created by KiCad (PCBNEW 7.0.9) date 2024-07-19 15:30:45*
%MOMM*%
%LPD*%
G01*
G04 APERTURE LIST*
G04 Aperture macros list*
%AMRoundRect*
0 Rectangle with rounded corners*
0 $1 Rounding radius*
0 $2 $3 $4 $5 $6 $7 $8 $9 X,Y pos of 4 corners*
0 Add a 4 corners polygon primitive as box body*
4,1,4,$2,$3,$4,$5,$6,$7,$8,$9,$2,$3,0*
0 Add four circle primitives for the rounded corners*
1,1,$1+$1,$2,$3*
1,1,$1+$1,$4,$5*
1,1,$1+$1,$6,$7*
1,1,$1+$1,$8,$9*
0 Add four rect primitives between the rounded corners*
20,1,$1+$1,$2,$3,$4,$5,0*
20,1,$1+$1,$4,$5,$6,$7,0*
20,1,$1+$1,$6,$7,$8,$9,0*
20,1,$1+$1,$8,$9,$2,$3,0*%
G04 Aperture macros list end*
%ADD10C,0.500000*%
%ADD11RoundRect,0.200000X-0.275000X0.200000X-0.275000X-0.200000X0.275000X-0.200000X0.275000X0.200000X0*%
%ADD12RoundRect,0.150000X-0.825000X-0.150000X0.825000X-0.150000X0.825000X0.150000X-0.825000X0.150000X0*%
%ADD13RoundRect,0.200000X0.275000X-0.200000X0.275000X0.200000X-0.275000X0.200000X-0.275000X-0.200000X0*%
%ADD14RoundRect,0.250000X0.625000X-0.375000X0.625000X0.375000X-0.625000X0.375000X-0.625000X-0.375000X0*%
%ADD15RoundRect,0.200000X-0.200000X-0.275000X0.200000X-0.275000X0.200000X0.275000X-0.200000X0.275000X0*%
%ADD16RoundRect,0.218750X-0.218750X-0.256250X0.218750X-0.256250X0.218750X0.256250X-0.218750X0.256250X0*%
%ADD17RoundRect,0.218750X-0.256250X0.218750X-0.256250X-0.218750X0.256250X-0.218750X0.256250X0.218750X0*%
%ADD18O,1.700000X1.700000*%
%ADD19R,1.700000X1.700000*%
G04 APERTURE END LIST*
D10*
%TO.C,KiKit_MB_57_3*%
X47103750Y27100293D03*
%TD*%
D11*
%TO.C,R2*%
X76303750Y81075293D03*
X76303750Y82725293D03*
%TD*%
D12*
%TO.C,U1*%
X37028750Y61205293D03*
X37028750Y59935293D03*
X37028750Y58665293D03*
X37028750Y57395293D03*
X32078750Y57395293D03*
X32078750Y58665293D03*
X32078750Y59935293D03*
X32078750Y61205293D03*
%TD*%
D13*
%TO.C,470*%
X58153750Y81875293D03*
X58153750Y80225293D03*
%TD*%
D10*
%TO.C,KiKit_MB_42_6*%
X66603750Y44075293D03*
%TD*%
%TO.C,KiKit_MB_9_7*%
X47103750Y78900293D03*
%TD*%
D14*
%TO.C,D3*%
X39753750Y66750293D03*
X39753750Y63950293D03*
%TD*%
D10*
%TO.C,KiKit_MB_73_3*%
X47103750Y11000293D03*
%TD*%
%TO.C,KiKit_MB_3_4*%
X13978750Y84450293D03*
%TD*%
%TO.C,KiKit_MB_66_4*%
X24603750Y13625293D03*
%TD*%
%TO.C,KiKit_MB_65_7*%
X5103750Y14500293D03*
%TD*%
%TO.C,KiKit_MB_52_5*%
X14853750Y21550293D03*
%TD*%
%TO.C,KiKit_MB_3_6*%
X15728750Y84450293D03*
%TD*%
D15*
%TO.C,R1*%
X82628750Y55300293D03*
X80978750Y55300293D03*
%TD*%
D10*
%TO.C,KiKit_MB_43_7*%
X58603750Y52250293D03*
%TD*%
%TO.C,KiKit_MB_6_5*%
X45603750Y77150293D03*
%TD*%
D11*
%TO.C,R2*%
X76303750Y48875293D03*
X76303750Y50525293D03*
%TD*%
D14*
%TO.C,D3*%
X39753750Y82850293D03*
X39753750Y80050293D03*
%TD*%
D10*
%TO.C,KiKit_MB_64_3*%
X79603750Y21550293D03*
%TD*%
D15*
%TO.C,R1*%
X19628750Y23100293D03*
X17978750Y23100293D03*
%TD*%
D10*
%TO.C,KiKit_MB_12_4*%
X57728750Y69850293D03*
%TD*%
D13*
%TO.C,470*%
X37153750Y33575293D03*
X37153750Y31925293D03*
%TD*%
D10*
%TO.C,KiKit_MB_4_4*%
X15728750Y69850293D03*
%TD*%
D14*
%TO.C,D3*%
X18753750Y34550293D03*
X18753750Y31750293D03*
%TD*%
D10*
%TO.C,KiKit_MB_17_4*%
X5103750Y60175293D03*
%TD*%
%TO.C,KiKit_MB_24_5*%
X35853750Y53750293D03*
%TD*%
%TO.C,KiKit_MB_54_4*%
X45603750Y29725293D03*
%TD*%
%TO.C,KiKit_MB_57_6*%
X47103750Y29725293D03*
%TD*%
%TO.C,KiKit_MB_7_5*%
X35853750Y84450293D03*
%TD*%
%TO.C,KiKit_MB_15_6*%
X78728750Y84450293D03*
%TD*%
%TO.C,KiKit_MB_73_4*%
X47103750Y11875293D03*
%TD*%
%TO.C,KiKit_MB_45_3*%
X68103750Y43200293D03*
%TD*%
D16*
%TO.C,LED1*%
X33091250Y39200293D03*
X31516250Y39200293D03*
%TD*%
D10*
%TO.C,KiKit_MB_19_7*%
X16603750Y68350293D03*
%TD*%
%TO.C,KiKit_MB_70_6*%
X45603750Y11875293D03*
%TD*%
%TO.C,KiKit_MB_44_5*%
X56853750Y37650293D03*
%TD*%
%TO.C,KiKit_MB_74_7*%
X66603750Y11000293D03*
%TD*%
D11*
%TO.C,R2*%
X55303750Y64975293D03*
X55303750Y66625293D03*
%TD*%
D10*
%TO.C,KiKit_MB_74_5*%
X66603750Y12750293D03*
%TD*%
%TO.C,KiKit_MB_41_7*%
X47103750Y46700293D03*
%TD*%
%TO.C,KiKit_MB_35_3*%
X13103750Y52250293D03*
%TD*%
D15*
%TO.C,R1*%
X40628750Y7000293D03*
X38978750Y7000293D03*
%TD*%
D10*
%TO.C,KiKit_MB_64_7*%
X76103750Y21550293D03*
%TD*%
%TO.C,KiKit_MB_60_5*%
X56853750Y21550293D03*
%TD*%
%TO.C,KiKit_MB_1_7*%
X5103750Y78900293D03*
%TD*%
%TO.C,KiKit_MB_80_3*%
X79603750Y5450293D03*
%TD*%
%TO.C,KiKit_MB_84_3*%
X90103750Y5700293D03*
%TD*%
D13*
%TO.C,470*%
X58153750Y17475293D03*
X58153750Y15825293D03*
%TD*%
D12*
%TO.C,U1*%
X37028750Y45105293D03*
X37028750Y43835293D03*
X37028750Y42565293D03*
X37028750Y41295293D03*
X32078750Y41295293D03*
X32078750Y42565293D03*
X32078750Y43835293D03*
X32078750Y45105293D03*
%TD*%
D17*
%TO.C,LED2*%
X73553750Y32762793D03*
X73553750Y34337793D03*
%TD*%
D15*
%TO.C,R1*%
X19628750Y71400293D03*
X17978750Y71400293D03*
%TD*%
D10*
%TO.C,KiKit_MB_10_5*%
X66603750Y77150293D03*
%TD*%
%TO.C,KiKit_MB_40_4*%
X36728750Y37650293D03*
%TD*%
%TO.C,KiKit_MB_20_5*%
X14853750Y53750293D03*
%TD*%
%TO.C,KiKit_MB_20_6*%
X13978750Y53750293D03*
%TD*%
%TO.C,KiKit_MB_8_5*%
X35853750Y69850293D03*
%TD*%
%TO.C,KiKit_MB_40_6*%
X34978750Y37650293D03*
%TD*%
%TO.C,KiKit_MB_5_3*%
X26103750Y75400293D03*
%TD*%
%TO.C,KiKit_MB_28_4*%
X57728750Y53750293D03*
%TD*%
D11*
%TO.C,R2*%
X34303750Y32775293D03*
X34303750Y34425293D03*
%TD*%
D10*
%TO.C,KiKit_MB_80_4*%
X78728750Y5450293D03*
%TD*%
%TO.C,KiKit_MB_36_3*%
X16603750Y37650293D03*
%TD*%
D16*
%TO.C,LED1*%
X75091250Y55300293D03*
X73516250Y55300293D03*
%TD*%
D10*
%TO.C,KiKit_MB_45_4*%
X68103750Y44075293D03*
%TD*%
%TO.C,KiKit_MB_64_4*%
X78728750Y21550293D03*
%TD*%
%TO.C,KiKit_MB_39_5*%
X35853750Y52250293D03*
%TD*%
%TO.C,KiKit_MB_84_4*%
X90978750Y5700293D03*
%TD*%
%TO.C,KiKit_MB_68_4*%
X15728750Y5450293D03*
%TD*%
D12*
%TO.C,U1*%
X58028750Y12905293D03*
X58028750Y11635293D03*
X58028750Y10365293D03*
X58028750Y9095293D03*
X53078750Y9095293D03*
X53078750Y10365293D03*
X53078750Y11635293D03*
X53078750Y12905293D03*
%TD*%
D10*
%TO.C,KiKit_MB_68_5*%
X14853750Y5450293D03*
%TD*%
%TO.C,KiKit_MB_54_3*%
X45603750Y30600293D03*
%TD*%
%TO.C,KiKit_MB_82_7*%
X2603750Y5700293D03*
%TD*%
%TO.C,KiKit_MB_80_6*%
X76978750Y5450293D03*
%TD*%
%TO.C,KiKit_MB_76_7*%
X55103750Y5450293D03*
%TD*%
D12*
%TO.C,U1*%
X79028750Y45105293D03*
X79028750Y43835293D03*
X79028750Y42565293D03*
X79028750Y41295293D03*
X74078750Y41295293D03*
X74078750Y42565293D03*
X74078750Y43835293D03*
X74078750Y45105293D03*
%TD*%
D10*
%TO.C,KiKit_MB_45_6*%
X68103750Y45825293D03*
%TD*%
%TO.C,KiKit_MB_33_5*%
X5103750Y44950293D03*
%TD*%
D16*
%TO.C,LED1*%
X54091250Y23100293D03*
X52516250Y23100293D03*
%TD*%
D10*
%TO.C,KiKit_MB_78_4*%
X87603750Y13625293D03*
%TD*%
%TO.C,KiKit_MB_28_3*%
X58603750Y53750293D03*
%TD*%
D14*
%TO.C,D3*%
X60753750Y82850293D03*
X60753750Y80050293D03*
%TD*%
%TO.C,D3*%
X60753750Y34550293D03*
X60753750Y31750293D03*
%TD*%
D10*
%TO.C,KiKit_MB_55_5*%
X35853750Y36150293D03*
%TD*%
D17*
%TO.C,LED2*%
X10553750Y64962793D03*
X10553750Y66537793D03*
%TD*%
%TO.C,LED2*%
X10553750Y48862793D03*
X10553750Y50437793D03*
%TD*%
D10*
%TO.C,KiKit_MB_25_3*%
X47103750Y59300293D03*
%TD*%
%TO.C,KiKit_MB_60_7*%
X55103750Y21550293D03*
%TD*%
%TO.C,KiKit_MB_14_3*%
X87603750Y78900293D03*
%TD*%
%TO.C,KiKit_MB_47_4*%
X76978750Y52250293D03*
%TD*%
D14*
%TO.C,D3*%
X18753750Y18450293D03*
X18753750Y15650293D03*
%TD*%
D10*
%TO.C,KiKit_MB_9_6*%
X47103750Y78025293D03*
%TD*%
%TO.C,KiKit_MB_10_3*%
X66603750Y78900293D03*
%TD*%
%TO.C,KiKit_MB_12_6*%
X55978750Y69850293D03*
%TD*%
%TO.C,KiKit_MB_45_7*%
X68103750Y46700293D03*
%TD*%
%TO.C,KiKit_MB_34_4*%
X24603750Y45825293D03*
%TD*%
%TO.C,KiKit_MB_29_6*%
X68103750Y61925293D03*
%TD*%
%TO.C,KiKit_MB_56_4*%
X36728750Y21550293D03*
%TD*%
%TO.C,KiKit_MB_53_4*%
X26103750Y27975293D03*
%TD*%
%TO.C,KiKit_MB_46_4*%
X87603750Y45825293D03*
%TD*%
%TO.C,KiKit_MB_60_3*%
X58603750Y21550293D03*
%TD*%
%TO.C,KiKit_MB_81_3*%
X-896250Y84200293D03*
%TD*%
D12*
%TO.C,U1*%
X16028750Y12905293D03*
X16028750Y11635293D03*
X16028750Y10365293D03*
X16028750Y9095293D03*
X11078750Y9095293D03*
X11078750Y10365293D03*
X11078750Y11635293D03*
X11078750Y12905293D03*
%TD*%
D13*
%TO.C,470*%
X37153750Y81875293D03*
X37153750Y80225293D03*
%TD*%
D10*
%TO.C,KiKit_MB_77_6*%
X68103750Y13625293D03*
%TD*%
D13*
%TO.C,470*%
X16153750Y17475293D03*
X16153750Y15825293D03*
%TD*%
D10*
%TO.C,KiKit_MB_24_7*%
X34103750Y53750293D03*
%TD*%
%TO.C,KiKit_MB_58_4*%
X66603750Y29725293D03*
%TD*%
%TO.C,KiKit_MB_69_5*%
X26103750Y12750293D03*
%TD*%
%TO.C,KiKit_MB_69_4*%
X26103750Y11875293D03*
%TD*%
%TO.C,KiKit_MB_51_3*%
X13103750Y36150293D03*
%TD*%
D16*
%TO.C,LED1*%
X75091250Y23100293D03*
X73516250Y23100293D03*
%TD*%
D17*
%TO.C,LED2*%
X10553750Y81062793D03*
X10553750Y82637793D03*
%TD*%
D10*
%TO.C,KiKit_MB_24_4*%
X36728750Y53750293D03*
%TD*%
D15*
%TO.C,R1*%
X82628750Y23100293D03*
X80978750Y23100293D03*
%TD*%
D13*
%TO.C,470*%
X79153750Y65775293D03*
X79153750Y64125293D03*
%TD*%
D10*
%TO.C,KiKit_MB_63_3*%
X76103750Y36150293D03*
%TD*%
%TO.C,KiKit_MB_61_5*%
X68103750Y28850293D03*
%TD*%
%TO.C,KiKit_MB_59_7*%
X58603750Y36150293D03*
%TD*%
D17*
%TO.C,LED2*%
X31553750Y81062793D03*
X31553750Y82637793D03*
%TD*%
D10*
%TO.C,KiKit_MB_37_4*%
X26103750Y44075293D03*
%TD*%
%TO.C,KiKit_MB_40_3*%
X37603750Y37650293D03*
%TD*%
%TO.C,KiKit_MB_44_4*%
X57728750Y37650293D03*
%TD*%
D11*
%TO.C,R2*%
X55303750Y16675293D03*
X55303750Y18325293D03*
%TD*%
D10*
%TO.C,KiKit_MB_33_6*%
X5103750Y45825293D03*
%TD*%
%TO.C,KiKit_MB_60_4*%
X57728750Y21550293D03*
%TD*%
%TO.C,KiKit_MB_40_5*%
X35853750Y37650293D03*
%TD*%
%TO.C,KiKit_MB_17_7*%
X5103750Y62800293D03*
%TD*%
D15*
%TO.C,R1*%
X40628750Y39200293D03*
X38978750Y39200293D03*
%TD*%
D10*
%TO.C,KiKit_MB_83_3*%
X90103750Y84200293D03*
%TD*%
%TO.C,KiKit_MB_18_3*%
X24603750Y62800293D03*
%TD*%
%TO.C,KiKit_MB_39_7*%
X37603750Y52250293D03*
%TD*%
%TO.C,KiKit_MB_66_5*%
X24603750Y12750293D03*
%TD*%
%TO.C,KiKit_MB_15_5*%
X77853750Y84450293D03*
%TD*%
D11*
%TO.C,R2*%
X55303750Y48875293D03*
X55303750Y50525293D03*
%TD*%
D10*
%TO.C,KiKit_MB_75_3*%
X55103750Y20050293D03*
%TD*%
%TO.C,KiKit_MB_76_6*%
X55978750Y5450293D03*
%TD*%
%TO.C,KiKit_MB_1_5*%
X5103750Y77150293D03*
%TD*%
D11*
%TO.C,R2*%
X76303750Y32775293D03*
X76303750Y34425293D03*
%TD*%
D10*
%TO.C,KiKit_MB_22_7*%
X45603750Y59300293D03*
%TD*%
%TO.C,KiKit_MB_53_7*%
X26103750Y30600293D03*
%TD*%
%TO.C,KiKit_MB_22_5*%
X45603750Y61050293D03*
%TD*%
%TO.C,KiKit_MB_52_3*%
X16603750Y21550293D03*
%TD*%
%TO.C,KiKit_MB_70_4*%
X45603750Y13625293D03*
%TD*%
%TO.C,KiKit_MB_57_7*%
X47103750Y30600293D03*
%TD*%
D11*
%TO.C,R2*%
X34303750Y16675293D03*
X34303750Y18325293D03*
%TD*%
D10*
%TO.C,KiKit_MB_69_3*%
X26103750Y11000293D03*
%TD*%
%TO.C,KiKit_MB_21_3*%
X26103750Y59300293D03*
%TD*%
%TO.C,KiKit_MB_15_7*%
X79603750Y84450293D03*
%TD*%
%TO.C,KiKit_MB_73_7*%
X47103750Y14500293D03*
%TD*%
%TO.C,KiKit_MB_35_5*%
X14853750Y52250293D03*
%TD*%
D16*
%TO.C,LED1*%
X33091250Y71400293D03*
X31516250Y71400293D03*
%TD*%
D12*
%TO.C,U1*%
X58028750Y77305293D03*
X58028750Y76035293D03*
X58028750Y74765293D03*
X58028750Y73495293D03*
X53078750Y73495293D03*
X53078750Y74765293D03*
X53078750Y76035293D03*
X53078750Y77305293D03*
%TD*%
D14*
%TO.C,D3*%
X81753750Y82850293D03*
X81753750Y80050293D03*
%TD*%
D10*
%TO.C,KiKit_MB_50_3*%
X24603750Y30600293D03*
%TD*%
%TO.C,KiKit_MB_52_7*%
X13103750Y21550293D03*
%TD*%
%TO.C,KiKit_MB_39_4*%
X34978750Y52250293D03*
%TD*%
%TO.C,KiKit_MB_12_7*%
X55103750Y69850293D03*
%TD*%
%TO.C,KiKit_MB_36_7*%
X13103750Y37650293D03*
%TD*%
%TO.C,KiKit_MB_79_6*%
X78728750Y20050293D03*
%TD*%
%TO.C,KiKit_MB_27_4*%
X55978750Y68350293D03*
%TD*%
%TO.C,KiKit_MB_18_5*%
X24603750Y61050293D03*
%TD*%
%TO.C,KiKit_MB_44_3*%
X58603750Y37650293D03*
%TD*%
%TO.C,KiKit_MB_41_5*%
X47103750Y44950293D03*
%TD*%
%TO.C,KiKit_MB_46_7*%
X87603750Y43200293D03*
%TD*%
%TO.C,KiKit_MB_62_4*%
X87603750Y29725293D03*
%TD*%
D11*
%TO.C,R2*%
X55303750Y32775293D03*
X55303750Y34425293D03*
%TD*%
D16*
%TO.C,LED1*%
X54091250Y39200293D03*
X52516250Y39200293D03*
%TD*%
D10*
%TO.C,KiKit_MB_65_4*%
X5103750Y11875293D03*
%TD*%
%TO.C,KiKit_MB_47_6*%
X78728750Y52250293D03*
%TD*%
D17*
%TO.C,LED2*%
X31553750Y16662793D03*
X31553750Y18237793D03*
%TD*%
D10*
%TO.C,KiKit_MB_11_6*%
X57728750Y84450293D03*
%TD*%
%TO.C,KiKit_MB_55_7*%
X37603750Y36150293D03*
%TD*%
%TO.C,KiKit_MB_58_6*%
X66603750Y27975293D03*
%TD*%
D14*
%TO.C,D3*%
X60753750Y66750293D03*
X60753750Y63950293D03*
%TD*%
D10*
%TO.C,KiKit_MB_61_3*%
X68103750Y27100293D03*
%TD*%
%TO.C,KiKit_MB_27_5*%
X56853750Y68350293D03*
%TD*%
%TO.C,KiKit_MB_31_4*%
X76978750Y68350293D03*
%TD*%
%TO.C,KiKit_MB_2_5*%
X24603750Y77150293D03*
%TD*%
%TO.C,KiKit_MB_32_5*%
X77853750Y53750293D03*
%TD*%
%TO.C,KiKit_MB_26_6*%
X66603750Y60175293D03*
%TD*%
%TO.C,KiKit_MB_6_3*%
X45603750Y78900293D03*
%TD*%
D12*
%TO.C,U1*%
X16028750Y29005293D03*
X16028750Y27735293D03*
X16028750Y26465293D03*
X16028750Y25195293D03*
X11078750Y25195293D03*
X11078750Y26465293D03*
X11078750Y27735293D03*
X11078750Y29005293D03*
%TD*%
D15*
%TO.C,R1*%
X40628750Y55300293D03*
X38978750Y55300293D03*
%TD*%
D10*
%TO.C,KiKit_MB_5_7*%
X26103750Y78900293D03*
%TD*%
%TO.C,KiKit_MB_37_6*%
X26103750Y45825293D03*
%TD*%
D14*
%TO.C,D3*%
X18753750Y50650293D03*
X18753750Y47850293D03*
%TD*%
D15*
%TO.C,R1*%
X40628750Y71400293D03*
X38978750Y71400293D03*
%TD*%
D10*
%TO.C,KiKit_MB_53_5*%
X26103750Y28850293D03*
%TD*%
%TO.C,KiKit_MB_58_5*%
X66603750Y28850293D03*
%TD*%
D17*
%TO.C,LED2*%
X52553750Y48862793D03*
X52553750Y50437793D03*
%TD*%
D10*
%TO.C,KiKit_MB_84_7*%
X93603750Y5700293D03*
%TD*%
%TO.C,KiKit_MB_28_5*%
X56853750Y53750293D03*
%TD*%
D17*
%TO.C,LED2*%
X73553750Y48862793D03*
X73553750Y50437793D03*
%TD*%
D10*
%TO.C,KiKit_MB_31_5*%
X77853750Y68350293D03*
%TD*%
D12*
%TO.C,U1*%
X16028750Y77305293D03*
X16028750Y76035293D03*
X16028750Y74765293D03*
X16028750Y73495293D03*
X11078750Y73495293D03*
X11078750Y74765293D03*
X11078750Y76035293D03*
X11078750Y77305293D03*
%TD*%
D10*
%TO.C,KiKit_MB_21_6*%
X26103750Y61925293D03*
%TD*%
%TO.C,KiKit_MB_79_7*%
X79603750Y20050293D03*
%TD*%
%TO.C,KiKit_MB_72_3*%
X37603750Y5450293D03*
%TD*%
%TO.C,KiKit_MB_83_6*%
X92728750Y84200293D03*
%TD*%
%TO.C,KiKit_MB_19_4*%
X13978750Y68350293D03*
%TD*%
D16*
%TO.C,LED1*%
X12091250Y71400293D03*
X10516250Y71400293D03*
%TD*%
D10*
%TO.C,KiKit_MB_71_7*%
X37603750Y20050293D03*
%TD*%
D13*
%TO.C,470*%
X58153750Y33575293D03*
X58153750Y31925293D03*
%TD*%
D12*
%TO.C,U1*%
X16028750Y45105293D03*
X16028750Y43835293D03*
X16028750Y42565293D03*
X16028750Y41295293D03*
X11078750Y41295293D03*
X11078750Y42565293D03*
X11078750Y43835293D03*
X11078750Y45105293D03*
%TD*%
D10*
%TO.C,KiKit_MB_6_7*%
X45603750Y75400293D03*
%TD*%
D11*
%TO.C,R2*%
X55303750Y81075293D03*
X55303750Y82725293D03*
%TD*%
D10*
%TO.C,KiKit_MB_82_6*%
X1728750Y5700293D03*
%TD*%
%TO.C,KiKit_MB_78_5*%
X87603750Y12750293D03*
%TD*%
%TO.C,KiKit_MB_48_5*%
X77853750Y37650293D03*
%TD*%
%TO.C,KiKit_MB_48_4*%
X78728750Y37650293D03*
%TD*%
%TO.C,KiKit_MB_2_6*%
X24603750Y76275293D03*
%TD*%
%TO.C,KiKit_MB_20_4*%
X15728750Y53750293D03*
%TD*%
D14*
%TO.C,D3*%
X81753750Y18450293D03*
X81753750Y15650293D03*
%TD*%
D10*
%TO.C,KiKit_MB_27_3*%
X55103750Y68350293D03*
%TD*%
%TO.C,KiKit_MB_16_3*%
X79603750Y69850293D03*
%TD*%
D11*
%TO.C,R2*%
X76303750Y64975293D03*
X76303750Y66625293D03*
%TD*%
D10*
%TO.C,KiKit_MB_5_4*%
X26103750Y76275293D03*
%TD*%
%TO.C,KiKit_MB_14_5*%
X87603750Y77150293D03*
%TD*%
%TO.C,KiKit_MB_39_3*%
X34103750Y52250293D03*
%TD*%
D15*
%TO.C,R1*%
X61628750Y7000293D03*
X59978750Y7000293D03*
%TD*%
D10*
%TO.C,KiKit_MB_21_4*%
X26103750Y60175293D03*
%TD*%
%TO.C,KiKit_MB_69_6*%
X26103750Y13625293D03*
%TD*%
%TO.C,KiKit_MB_83_5*%
X91853750Y84200293D03*
%TD*%
%TO.C,KiKit_MB_49_6*%
X5103750Y29725293D03*
%TD*%
D16*
%TO.C,LED1*%
X33091250Y23100293D03*
X31516250Y23100293D03*
%TD*%
D12*
%TO.C,U1*%
X79028750Y12905293D03*
X79028750Y11635293D03*
X79028750Y10365293D03*
X79028750Y9095293D03*
X74078750Y9095293D03*
X74078750Y10365293D03*
X74078750Y11635293D03*
X74078750Y12905293D03*
%TD*%
D10*
%TO.C,KiKit_MB_13_3*%
X68103750Y75400293D03*
%TD*%
%TO.C,KiKit_MB_42_5*%
X66603750Y44950293D03*
%TD*%
%TO.C,KiKit_MB_71_5*%
X35853750Y20050293D03*
%TD*%
%TO.C,KiKit_MB_62_7*%
X87603750Y27100293D03*
%TD*%
%TO.C,KiKit_MB_13_4*%
X68103750Y76275293D03*
%TD*%
D17*
%TO.C,LED2*%
X73553750Y64962793D03*
X73553750Y66537793D03*
%TD*%
D10*
%TO.C,KiKit_MB_33_3*%
X5103750Y43200293D03*
%TD*%
%TO.C,KiKit_MB_1_3*%
X5103750Y75400293D03*
%TD*%
%TO.C,KiKit_MB_21_7*%
X26103750Y62800293D03*
%TD*%
%TO.C,KiKit_MB_84_6*%
X92728750Y5700293D03*
%TD*%
%TO.C,KiKit_MB_74_6*%
X66603750Y11875293D03*
%TD*%
%TO.C,KiKit_MB_74_3*%
X66603750Y14500293D03*
%TD*%
%TO.C,KiKit_MB_11_3*%
X55103750Y84450293D03*
%TD*%
D17*
%TO.C,LED2*%
X10553750Y32762793D03*
X10553750Y34337793D03*
%TD*%
D10*
%TO.C,KiKit_MB_62_6*%
X87603750Y27975293D03*
%TD*%
%TO.C,KiKit_MB_68_3*%
X16603750Y5450293D03*
%TD*%
%TO.C,KiKit_MB_17_3*%
X5103750Y59300293D03*
%TD*%
D16*
%TO.C,LED1*%
X33091250Y55300293D03*
X31516250Y55300293D03*
%TD*%
D10*
%TO.C,KiKit_MB_63_4*%
X76978750Y36150293D03*
%TD*%
D14*
%TO.C,D3*%
X39753750Y18450293D03*
X39753750Y15650293D03*
%TD*%
D10*
%TO.C,KiKit_MB_28_6*%
X55978750Y53750293D03*
%TD*%
%TO.C,KiKit_MB_64_5*%
X77853750Y21550293D03*
%TD*%
%TO.C,KiKit_MB_73_6*%
X47103750Y13625293D03*
%TD*%
%TO.C,KiKit_MB_42_4*%
X66603750Y45825293D03*
%TD*%
%TO.C,KiKit_MB_11_5*%
X56853750Y84450293D03*
%TD*%
D17*
%TO.C,LED2*%
X10553750Y16662793D03*
X10553750Y18237793D03*
%TD*%
D10*
%TO.C,KiKit_MB_77_3*%
X68103750Y11000293D03*
%TD*%
%TO.C,KiKit_MB_76_4*%
X57728750Y5450293D03*
%TD*%
%TO.C,KiKit_MB_3_3*%
X13103750Y84450293D03*
%TD*%
%TO.C,KiKit_MB_41_3*%
X47103750Y43200293D03*
%TD*%
D15*
%TO.C,R1*%
X61628750Y55300293D03*
X59978750Y55300293D03*
%TD*%
D10*
%TO.C,KiKit_MB_49_4*%
X5103750Y27975293D03*
%TD*%
%TO.C,KiKit_MB_41_4*%
X47103750Y44075293D03*
%TD*%
%TO.C,KiKit_MB_37_5*%
X26103750Y44950293D03*
%TD*%
D14*
%TO.C,D3*%
X39753750Y34550293D03*
X39753750Y31750293D03*
%TD*%
D10*
%TO.C,KiKit_MB_25_6*%
X47103750Y61925293D03*
%TD*%
%TO.C,KiKit_MB_38_5*%
X45603750Y44950293D03*
%TD*%
%TO.C,KiKit_MB_57_4*%
X47103750Y27975293D03*
%TD*%
%TO.C,KiKit_MB_67_7*%
X16603750Y20050293D03*
%TD*%
%TO.C,KiKit_MB_40_7*%
X34103750Y37650293D03*
%TD*%
%TO.C,KiKit_MB_9_4*%
X47103750Y76275293D03*
%TD*%
D13*
%TO.C,470*%
X37153750Y49675293D03*
X37153750Y48025293D03*
%TD*%
D10*
%TO.C,KiKit_MB_31_7*%
X79603750Y68350293D03*
%TD*%
%TO.C,KiKit_MB_38_3*%
X45603750Y46700293D03*
%TD*%
%TO.C,KiKit_MB_22_3*%
X45603750Y62800293D03*
%TD*%
%TO.C,KiKit_MB_48_3*%
X79603750Y37650293D03*
%TD*%
D15*
%TO.C,R1*%
X61628750Y39200293D03*
X59978750Y39200293D03*
%TD*%
D10*
%TO.C,KiKit_MB_8_7*%
X34103750Y69850293D03*
%TD*%
%TO.C,KiKit_MB_62_5*%
X87603750Y28850293D03*
%TD*%
%TO.C,KiKit_MB_67_5*%
X14853750Y20050293D03*
%TD*%
%TO.C,KiKit_MB_70_5*%
X45603750Y12750293D03*
%TD*%
D13*
%TO.C,470*%
X16153750Y65775293D03*
X16153750Y64125293D03*
%TD*%
D10*
%TO.C,KiKit_MB_68_6*%
X13978750Y5450293D03*
%TD*%
%TO.C,KiKit_MB_51_5*%
X14853750Y36150293D03*
%TD*%
D14*
%TO.C,D3*%
X81753750Y34550293D03*
X81753750Y31750293D03*
%TD*%
D10*
%TO.C,KiKit_MB_36_5*%
X14853750Y37650293D03*
%TD*%
%TO.C,KiKit_MB_75_7*%
X58603750Y20050293D03*
%TD*%
D17*
%TO.C,LED2*%
X52553750Y16662793D03*
X52553750Y18237793D03*
%TD*%
D10*
%TO.C,KiKit_MB_29_5*%
X68103750Y61050293D03*
%TD*%
%TO.C,KiKit_MB_30_4*%
X87603750Y61925293D03*
%TD*%
%TO.C,KiKit_MB_82_5*%
X853750Y5700293D03*
%TD*%
%TO.C,KiKit_MB_48_6*%
X76978750Y37650293D03*
%TD*%
%TO.C,KiKit_MB_50_5*%
X24603750Y28850293D03*
%TD*%
%TO.C,KiKit_MB_75_5*%
X56853750Y20050293D03*
%TD*%
D11*
%TO.C,R2*%
X13303750Y48875293D03*
X13303750Y50525293D03*
%TD*%
D10*
%TO.C,KiKit_MB_41_6*%
X47103750Y45825293D03*
%TD*%
D15*
%TO.C,R1*%
X82628750Y39200293D03*
X80978750Y39200293D03*
%TD*%
D10*
%TO.C,KiKit_MB_47_3*%
X76103750Y52250293D03*
%TD*%
%TO.C,KiKit_MB_75_4*%
X55978750Y20050293D03*
%TD*%
%TO.C,KiKit_MB_51_6*%
X15728750Y36150293D03*
%TD*%
%TO.C,KiKit_MB_65_3*%
X5103750Y11000293D03*
%TD*%
%TO.C,KiKit_MB_7_4*%
X34978750Y84450293D03*
%TD*%
D12*
%TO.C,U1*%
X79028750Y61205293D03*
X79028750Y59935293D03*
X79028750Y58665293D03*
X79028750Y57395293D03*
X74078750Y57395293D03*
X74078750Y58665293D03*
X74078750Y59935293D03*
X74078750Y61205293D03*
%TD*%
D10*
%TO.C,KiKit_MB_21_5*%
X26103750Y61050293D03*
%TD*%
%TO.C,KiKit_MB_23_5*%
X35853750Y68350293D03*
%TD*%
%TO.C,KiKit_MB_10_7*%
X66603750Y75400293D03*
%TD*%
%TO.C,KiKit_MB_34_3*%
X24603750Y46700293D03*
%TD*%
%TO.C,KiKit_MB_19_6*%
X15728750Y68350293D03*
%TD*%
%TO.C,KiKit_MB_62_3*%
X87603750Y30600293D03*
%TD*%
%TO.C,KiKit_MB_44_6*%
X55978750Y37650293D03*
%TD*%
%TO.C,KiKit_MB_76_5*%
X56853750Y5450293D03*
%TD*%
%TO.C,KiKit_MB_50_7*%
X24603750Y27100293D03*
%TD*%
%TO.C,KiKit_MB_10_6*%
X66603750Y76275293D03*
%TD*%
D13*
%TO.C,470*%
X79153750Y17475293D03*
X79153750Y15825293D03*
%TD*%
D10*
%TO.C,KiKit_MB_11_4*%
X55978750Y84450293D03*
%TD*%
%TO.C,KiKit_MB_23_3*%
X34103750Y68350293D03*
%TD*%
%TO.C,KiKit_MB_43_6*%
X57728750Y52250293D03*
%TD*%
D14*
%TO.C,D3*%
X60753750Y18450293D03*
X60753750Y15650293D03*
%TD*%
D10*
%TO.C,KiKit_MB_6_6*%
X45603750Y76275293D03*
%TD*%
%TO.C,KiKit_MB_66_6*%
X24603750Y11875293D03*
%TD*%
%TO.C,KiKit_MB_77_4*%
X68103750Y11875293D03*
%TD*%
%TO.C,KiKit_MB_22_4*%
X45603750Y61925293D03*
%TD*%
%TO.C,KiKit_MB_43_4*%
X55978750Y52250293D03*
%TD*%
%TO.C,KiKit_MB_54_6*%
X45603750Y27975293D03*
%TD*%
D12*
%TO.C,U1*%
X58028750Y29005293D03*
X58028750Y27735293D03*
X58028750Y26465293D03*
X58028750Y25195293D03*
X53078750Y25195293D03*
X53078750Y26465293D03*
X53078750Y27735293D03*
X53078750Y29005293D03*
%TD*%
D17*
%TO.C,LED2*%
X31553750Y32762793D03*
X31553750Y34337793D03*
%TD*%
D15*
%TO.C,R1*%
X82628750Y71400293D03*
X80978750Y71400293D03*
%TD*%
D10*
%TO.C,KiKit_MB_65_6*%
X5103750Y13625293D03*
%TD*%
%TO.C,KiKit_MB_25_7*%
X47103750Y62800293D03*
%TD*%
D16*
%TO.C,LED1*%
X75091250Y71400293D03*
X73516250Y71400293D03*
%TD*%
D10*
%TO.C,KiKit_MB_16_4*%
X78728750Y69850293D03*
%TD*%
%TO.C,KiKit_MB_17_6*%
X5103750Y61925293D03*
%TD*%
%TO.C,KiKit_MB_25_5*%
X47103750Y61050293D03*
%TD*%
%TO.C,KiKit_MB_79_3*%
X76103750Y20050293D03*
%TD*%
D12*
%TO.C,U1*%
X16028750Y61205293D03*
X16028750Y59935293D03*
X16028750Y58665293D03*
X16028750Y57395293D03*
X11078750Y57395293D03*
X11078750Y58665293D03*
X11078750Y59935293D03*
X11078750Y61205293D03*
%TD*%
%TO.C,U1*%
X37028750Y77305293D03*
X37028750Y76035293D03*
X37028750Y74765293D03*
X37028750Y73495293D03*
X32078750Y73495293D03*
X32078750Y74765293D03*
X32078750Y76035293D03*
X32078750Y77305293D03*
%TD*%
D10*
%TO.C,KiKit_MB_45_5*%
X68103750Y44950293D03*
%TD*%
%TO.C,KiKit_MB_55_4*%
X34978750Y36150293D03*
%TD*%
%TO.C,KiKit_MB_9_3*%
X47103750Y75400293D03*
%TD*%
%TO.C,KiKit_MB_16_6*%
X76978750Y69850293D03*
%TD*%
%TO.C,KiKit_MB_27_6*%
X57728750Y68350293D03*
%TD*%
D11*
%TO.C,R2*%
X13303750Y81075293D03*
X13303750Y82725293D03*
%TD*%
D10*
%TO.C,KiKit_MB_46_6*%
X87603750Y44075293D03*
%TD*%
%TO.C,KiKit_MB_49_3*%
X5103750Y27100293D03*
%TD*%
%TO.C,KiKit_MB_39_6*%
X36728750Y52250293D03*
%TD*%
%TO.C,KiKit_MB_70_7*%
X45603750Y11000293D03*
%TD*%
D12*
%TO.C,U1*%
X79028750Y77305293D03*
X79028750Y76035293D03*
X79028750Y74765293D03*
X79028750Y73495293D03*
X74078750Y73495293D03*
X74078750Y74765293D03*
X74078750Y76035293D03*
X74078750Y77305293D03*
%TD*%
D10*
%TO.C,KiKit_MB_37_7*%
X26103750Y46700293D03*
%TD*%
%TO.C,KiKit_MB_81_7*%
X2603750Y84200293D03*
%TD*%
%TO.C,KiKit_MB_67_6*%
X15728750Y20050293D03*
%TD*%
%TO.C,KiKit_MB_73_5*%
X47103750Y12750293D03*
%TD*%
%TO.C,KiKit_MB_5_6*%
X26103750Y78025293D03*
%TD*%
%TO.C,KiKit_MB_7_3*%
X34103750Y84450293D03*
%TD*%
%TO.C,KiKit_MB_37_3*%
X26103750Y43200293D03*
%TD*%
%TO.C,KiKit_MB_72_6*%
X34978750Y5450293D03*
%TD*%
%TO.C,KiKit_MB_74_4*%
X66603750Y13625293D03*
%TD*%
D14*
%TO.C,D3*%
X39753750Y50650293D03*
X39753750Y47850293D03*
%TD*%
D10*
%TO.C,KiKit_MB_18_6*%
X24603750Y60175293D03*
%TD*%
%TO.C,KiKit_MB_7_6*%
X36728750Y84450293D03*
%TD*%
%TO.C,KiKit_MB_20_7*%
X13103750Y53750293D03*
%TD*%
%TO.C,KiKit_MB_63_5*%
X77853750Y36150293D03*
%TD*%
%TO.C,KiKit_MB_11_7*%
X58603750Y84450293D03*
%TD*%
%TO.C,KiKit_MB_35_6*%
X15728750Y52250293D03*
%TD*%
%TO.C,KiKit_MB_84_5*%
X91853750Y5700293D03*
%TD*%
%TO.C,KiKit_MB_69_7*%
X26103750Y14500293D03*
%TD*%
%TO.C,KiKit_MB_35_7*%
X16603750Y52250293D03*
%TD*%
%TO.C,KiKit_MB_3_7*%
X16603750Y84450293D03*
%TD*%
%TO.C,KiKit_MB_15_4*%
X76978750Y84450293D03*
%TD*%
%TO.C,KiKit_MB_2_4*%
X24603750Y78025293D03*
%TD*%
%TO.C,KiKit_MB_36_6*%
X13978750Y37650293D03*
%TD*%
%TO.C,KiKit_MB_19_3*%
X13103750Y68350293D03*
%TD*%
D14*
%TO.C,D3*%
X18753750Y82850293D03*
X18753750Y80050293D03*
%TD*%
D10*
%TO.C,KiKit_MB_23_6*%
X36728750Y68350293D03*
%TD*%
%TO.C,KiKit_MB_38_7*%
X45603750Y43200293D03*
%TD*%
%TO.C,KiKit_MB_19_5*%
X14853750Y68350293D03*
%TD*%
%TO.C,KiKit_MB_72_7*%
X34103750Y5450293D03*
%TD*%
D17*
%TO.C,LED2*%
X73553750Y81062793D03*
X73553750Y82637793D03*
%TD*%
D10*
%TO.C,KiKit_MB_54_7*%
X45603750Y27100293D03*
%TD*%
D12*
%TO.C,U1*%
X58028750Y61205293D03*
X58028750Y59935293D03*
X58028750Y58665293D03*
X58028750Y57395293D03*
X53078750Y57395293D03*
X53078750Y58665293D03*
X53078750Y59935293D03*
X53078750Y61205293D03*
%TD*%
D10*
%TO.C,KiKit_MB_52_6*%
X13978750Y21550293D03*
%TD*%
%TO.C,KiKit_MB_32_3*%
X79603750Y53750293D03*
%TD*%
%TO.C,KiKit_MB_25_4*%
X47103750Y60175293D03*
%TD*%
%TO.C,KiKit_MB_80_5*%
X77853750Y5450293D03*
%TD*%
D13*
%TO.C,470*%
X16153750Y33575293D03*
X16153750Y31925293D03*
%TD*%
D11*
%TO.C,R2*%
X13303750Y16675293D03*
X13303750Y18325293D03*
%TD*%
D10*
%TO.C,KiKit_MB_30_5*%
X87603750Y61050293D03*
%TD*%
%TO.C,KiKit_MB_54_5*%
X45603750Y28850293D03*
%TD*%
%TO.C,KiKit_MB_58_3*%
X66603750Y30600293D03*
%TD*%
%TO.C,KiKit_MB_12_3*%
X58603750Y69850293D03*
%TD*%
D11*
%TO.C,R2*%
X34303750Y64975293D03*
X34303750Y66625293D03*
%TD*%
D10*
%TO.C,KiKit_MB_53_6*%
X26103750Y29725293D03*
%TD*%
%TO.C,KiKit_MB_12_5*%
X56853750Y69850293D03*
%TD*%
D11*
%TO.C,R2*%
X34303750Y81075293D03*
X34303750Y82725293D03*
%TD*%
D10*
%TO.C,KiKit_MB_72_4*%
X36728750Y5450293D03*
%TD*%
D12*
%TO.C,U1*%
X79028750Y29005293D03*
X79028750Y27735293D03*
X79028750Y26465293D03*
X79028750Y25195293D03*
X74078750Y25195293D03*
X74078750Y26465293D03*
X74078750Y27735293D03*
X74078750Y29005293D03*
%TD*%
D10*
%TO.C,KiKit_MB_3_5*%
X14853750Y84450293D03*
%TD*%
%TO.C,KiKit_MB_24_3*%
X37603750Y53750293D03*
%TD*%
%TO.C,KiKit_MB_1_6*%
X5103750Y78025293D03*
%TD*%
D17*
%TO.C,LED2*%
X31553750Y48862793D03*
X31553750Y50437793D03*
%TD*%
D15*
%TO.C,R1*%
X19628750Y55300293D03*
X17978750Y55300293D03*
%TD*%
D10*
%TO.C,KiKit_MB_30_3*%
X87603750Y62800293D03*
%TD*%
%TO.C,KiKit_MB_48_7*%
X76103750Y37650293D03*
%TD*%
D12*
%TO.C,U1*%
X37028750Y12905293D03*
X37028750Y11635293D03*
X37028750Y10365293D03*
X37028750Y9095293D03*
X32078750Y9095293D03*
X32078750Y10365293D03*
X32078750Y11635293D03*
X32078750Y12905293D03*
%TD*%
D13*
%TO.C,470*%
X37153750Y65775293D03*
X37153750Y64125293D03*
%TD*%
D10*
%TO.C,KiKit_MB_43_3*%
X55103750Y52250293D03*
%TD*%
%TO.C,KiKit_MB_26_3*%
X66603750Y62800293D03*
%TD*%
%TO.C,KiKit_MB_6_4*%
X45603750Y78025293D03*
%TD*%
D16*
%TO.C,LED1*%
X33091250Y7000293D03*
X31516250Y7000293D03*
%TD*%
D10*
%TO.C,KiKit_MB_78_7*%
X87603750Y11000293D03*
%TD*%
D13*
%TO.C,470*%
X79153750Y81875293D03*
X79153750Y80225293D03*
%TD*%
D11*
%TO.C,R2*%
X34303750Y48875293D03*
X34303750Y50525293D03*
%TD*%
D10*
%TO.C,KiKit_MB_63_6*%
X78728750Y36150293D03*
%TD*%
%TO.C,KiKit_MB_71_4*%
X34978750Y20050293D03*
%TD*%
%TO.C,KiKit_MB_23_7*%
X37603750Y68350293D03*
%TD*%
%TO.C,KiKit_MB_42_3*%
X66603750Y46700293D03*
%TD*%
%TO.C,KiKit_MB_13_5*%
X68103750Y77150293D03*
%TD*%
D13*
%TO.C,470*%
X37153750Y17475293D03*
X37153750Y15825293D03*
%TD*%
D10*
%TO.C,KiKit_MB_31_3*%
X76103750Y68350293D03*
%TD*%
%TO.C,KiKit_MB_78_3*%
X87603750Y14500293D03*
%TD*%
%TO.C,KiKit_MB_16_5*%
X77853750Y69850293D03*
%TD*%
D13*
%TO.C,470*%
X79153750Y49675293D03*
X79153750Y48025293D03*
%TD*%
D10*
%TO.C,KiKit_MB_20_3*%
X16603750Y53750293D03*
%TD*%
D17*
%TO.C,LED2*%
X52553750Y32762793D03*
X52553750Y34337793D03*
%TD*%
D10*
%TO.C,KiKit_MB_56_3*%
X37603750Y21550293D03*
%TD*%
D11*
%TO.C,R2*%
X13303750Y32775293D03*
X13303750Y34425293D03*
%TD*%
D10*
%TO.C,KiKit_MB_17_5*%
X5103750Y61050293D03*
%TD*%
%TO.C,KiKit_MB_65_5*%
X5103750Y12750293D03*
%TD*%
%TO.C,KiKit_MB_31_6*%
X78728750Y68350293D03*
%TD*%
D16*
%TO.C,LED1*%
X75091250Y7000293D03*
X73516250Y7000293D03*
%TD*%
D10*
%TO.C,KiKit_MB_81_5*%
X853750Y84200293D03*
%TD*%
D13*
%TO.C,470*%
X79153750Y33575293D03*
X79153750Y31925293D03*
%TD*%
D10*
%TO.C,KiKit_MB_82_3*%
X-896250Y5700293D03*
%TD*%
%TO.C,KiKit_MB_80_7*%
X76103750Y5450293D03*
%TD*%
D16*
%TO.C,LED1*%
X12091250Y39200293D03*
X10516250Y39200293D03*
%TD*%
D10*
%TO.C,KiKit_MB_23_4*%
X34978750Y68350293D03*
%TD*%
%TO.C,KiKit_MB_56_5*%
X35853750Y21550293D03*
%TD*%
D16*
%TO.C,LED1*%
X75091250Y39200293D03*
X73516250Y39200293D03*
%TD*%
D10*
%TO.C,KiKit_MB_4_3*%
X16603750Y69850293D03*
%TD*%
%TO.C,KiKit_MB_67_3*%
X13103750Y20050293D03*
%TD*%
%TO.C,KiKit_MB_28_7*%
X55103750Y53750293D03*
%TD*%
D15*
%TO.C,R1*%
X61628750Y71400293D03*
X59978750Y71400293D03*
%TD*%
D10*
%TO.C,KiKit_MB_13_6*%
X68103750Y78025293D03*
%TD*%
D14*
%TO.C,D3*%
X60753750Y50650293D03*
X60753750Y47850293D03*
%TD*%
D10*
%TO.C,KiKit_MB_49_7*%
X5103750Y30600293D03*
%TD*%
%TO.C,KiKit_MB_70_3*%
X45603750Y14500293D03*
%TD*%
%TO.C,KiKit_MB_9_5*%
X47103750Y77150293D03*
%TD*%
%TO.C,KiKit_MB_44_7*%
X55103750Y37650293D03*
%TD*%
%TO.C,KiKit_MB_42_7*%
X66603750Y43200293D03*
%TD*%
%TO.C,KiKit_MB_77_5*%
X68103750Y12750293D03*
%TD*%
%TO.C,KiKit_MB_32_6*%
X76978750Y53750293D03*
%TD*%
%TO.C,KiKit_MB_2_7*%
X24603750Y75400293D03*
%TD*%
D16*
%TO.C,LED1*%
X54091250Y7000293D03*
X52516250Y7000293D03*
%TD*%
D10*
%TO.C,KiKit_MB_26_7*%
X66603750Y59300293D03*
%TD*%
%TO.C,KiKit_MB_46_3*%
X87603750Y46700293D03*
%TD*%
D15*
%TO.C,R1*%
X19628750Y39200293D03*
X17978750Y39200293D03*
%TD*%
D10*
%TO.C,KiKit_MB_26_5*%
X66603750Y61050293D03*
%TD*%
D12*
%TO.C,U1*%
X37028750Y29005293D03*
X37028750Y27735293D03*
X37028750Y26465293D03*
X37028750Y25195293D03*
X32078750Y25195293D03*
X32078750Y26465293D03*
X32078750Y27735293D03*
X32078750Y29005293D03*
%TD*%
D13*
%TO.C,470*%
X58153750Y65775293D03*
X58153750Y64125293D03*
%TD*%
D14*
%TO.C,D3*%
X18753750Y66750293D03*
X18753750Y63950293D03*
%TD*%
D10*
%TO.C,KiKit_MB_29_3*%
X68103750Y59300293D03*
%TD*%
%TO.C,KiKit_MB_58_7*%
X66603750Y27100293D03*
%TD*%
D17*
%TO.C,LED2*%
X52553750Y64962793D03*
X52553750Y66537793D03*
%TD*%
D10*
%TO.C,KiKit_MB_71_6*%
X36728750Y20050293D03*
%TD*%
D16*
%TO.C,LED1*%
X12091250Y55300293D03*
X10516250Y55300293D03*
%TD*%
D10*
%TO.C,KiKit_MB_81_4*%
X-21250Y84200293D03*
%TD*%
%TO.C,KiKit_MB_14_6*%
X87603750Y76275293D03*
%TD*%
%TO.C,KiKit_MB_57_5*%
X47103750Y28850293D03*
%TD*%
%TO.C,KiKit_MB_32_4*%
X78728750Y53750293D03*
%TD*%
%TO.C,KiKit_MB_8_6*%
X34978750Y69850293D03*
%TD*%
%TO.C,KiKit_MB_61_4*%
X68103750Y27975293D03*
%TD*%
%TO.C,KiKit_MB_78_6*%
X87603750Y11875293D03*
%TD*%
%TO.C,KiKit_MB_34_5*%
X24603750Y44950293D03*
%TD*%
%TO.C,KiKit_MB_24_6*%
X34978750Y53750293D03*
%TD*%
D16*
%TO.C,LED1*%
X54091250Y71400293D03*
X52516250Y71400293D03*
%TD*%
%TO.C,LED1*%
X54091250Y55300293D03*
X52516250Y55300293D03*
%TD*%
D10*
%TO.C,KiKit_MB_50_4*%
X24603750Y29725293D03*
%TD*%
%TO.C,KiKit_MB_71_3*%
X34103750Y20050293D03*
%TD*%
%TO.C,KiKit_MB_14_7*%
X87603750Y75400293D03*
%TD*%
D13*
%TO.C,470*%
X16153750Y49675293D03*
X16153750Y48025293D03*
%TD*%
D10*
%TO.C,KiKit_MB_30_7*%
X87603750Y59300293D03*
%TD*%
%TO.C,KiKit_MB_59_3*%
X55103750Y36150293D03*
%TD*%
%TO.C,KiKit_MB_51_4*%
X13978750Y36150293D03*
%TD*%
%TO.C,KiKit_MB_8_3*%
X37603750Y69850293D03*
%TD*%
%TO.C,KiKit_MB_15_3*%
X76103750Y84450293D03*
%TD*%
%TO.C,KiKit_MB_66_7*%
X24603750Y11000293D03*
%TD*%
%TO.C,KiKit_MB_10_4*%
X66603750Y78025293D03*
%TD*%
%TO.C,KiKit_MB_8_4*%
X36728750Y69850293D03*
%TD*%
%TO.C,KiKit_MB_13_7*%
X68103750Y78900293D03*
%TD*%
D15*
%TO.C,R1*%
X19628750Y7000293D03*
X17978750Y7000293D03*
%TD*%
D10*
%TO.C,KiKit_MB_56_6*%
X34978750Y21550293D03*
%TD*%
%TO.C,KiKit_MB_36_4*%
X15728750Y37650293D03*
%TD*%
D14*
%TO.C,D3*%
X81753750Y50650293D03*
X81753750Y47850293D03*
%TD*%
D10*
%TO.C,KiKit_MB_33_7*%
X5103750Y46700293D03*
%TD*%
%TO.C,KiKit_MB_2_3*%
X24603750Y78900293D03*
%TD*%
%TO.C,KiKit_MB_59_6*%
X57728750Y36150293D03*
%TD*%
%TO.C,KiKit_MB_79_4*%
X76978750Y20050293D03*
%TD*%
%TO.C,KiKit_MB_18_7*%
X24603750Y59300293D03*
%TD*%
%TO.C,KiKit_MB_67_4*%
X13978750Y20050293D03*
%TD*%
%TO.C,KiKit_MB_5_5*%
X26103750Y77150293D03*
%TD*%
%TO.C,KiKit_MB_1_4*%
X5103750Y76275293D03*
%TD*%
%TO.C,KiKit_MB_59_4*%
X55978750Y36150293D03*
%TD*%
%TO.C,KiKit_MB_14_4*%
X87603750Y78025293D03*
%TD*%
D15*
%TO.C,R1*%
X40628750Y23100293D03*
X38978750Y23100293D03*
%TD*%
D12*
%TO.C,U1*%
X58028750Y45105293D03*
X58028750Y43835293D03*
X58028750Y42565293D03*
X58028750Y41295293D03*
X53078750Y41295293D03*
X53078750Y42565293D03*
X53078750Y43835293D03*
X53078750Y45105293D03*
%TD*%
D10*
%TO.C,KiKit_MB_4_5*%
X14853750Y69850293D03*
%TD*%
%TO.C,KiKit_MB_46_5*%
X87603750Y44950293D03*
%TD*%
%TO.C,KiKit_MB_81_6*%
X1728750Y84200293D03*
%TD*%
%TO.C,KiKit_MB_4_7*%
X13103750Y69850293D03*
%TD*%
%TO.C,KiKit_MB_52_4*%
X15728750Y21550293D03*
%TD*%
%TO.C,KiKit_MB_49_5*%
X5103750Y28850293D03*
%TD*%
%TO.C,KiKit_MB_47_7*%
X79603750Y52250293D03*
%TD*%
D13*
%TO.C,470*%
X16153750Y81875293D03*
X16153750Y80225293D03*
%TD*%
D10*
%TO.C,KiKit_MB_30_6*%
X87603750Y60175293D03*
%TD*%
%TO.C,KiKit_MB_18_4*%
X24603750Y61925293D03*
%TD*%
%TO.C,KiKit_MB_38_4*%
X45603750Y45825293D03*
%TD*%
%TO.C,KiKit_MB_16_7*%
X76103750Y69850293D03*
%TD*%
%TO.C,KiKit_MB_61_7*%
X68103750Y30600293D03*
%TD*%
%TO.C,KiKit_MB_77_7*%
X68103750Y14500293D03*
%TD*%
%TO.C,KiKit_MB_27_7*%
X58603750Y68350293D03*
%TD*%
%TO.C,KiKit_MB_56_7*%
X34103750Y21550293D03*
%TD*%
%TO.C,KiKit_MB_72_5*%
X35853750Y5450293D03*
%TD*%
%TO.C,KiKit_MB_66_3*%
X24603750Y14500293D03*
%TD*%
%TO.C,KiKit_MB_59_5*%
X56853750Y36150293D03*
%TD*%
D13*
%TO.C,470*%
X58153750Y49675293D03*
X58153750Y48025293D03*
%TD*%
D10*
%TO.C,KiKit_MB_35_4*%
X13978750Y52250293D03*
%TD*%
%TO.C,KiKit_MB_29_4*%
X68103750Y60175293D03*
%TD*%
%TO.C,KiKit_MB_51_7*%
X16603750Y36150293D03*
%TD*%
D11*
%TO.C,R2*%
X13303750Y64975293D03*
X13303750Y66625293D03*
%TD*%
D17*
%TO.C,LED2*%
X73553750Y16662793D03*
X73553750Y18237793D03*
%TD*%
D10*
%TO.C,KiKit_MB_63_7*%
X79603750Y36150293D03*
%TD*%
%TO.C,KiKit_MB_76_3*%
X58603750Y5450293D03*
%TD*%
%TO.C,KiKit_MB_61_6*%
X68103750Y29725293D03*
%TD*%
%TO.C,KiKit_MB_26_4*%
X66603750Y61925293D03*
%TD*%
%TO.C,KiKit_MB_55_3*%
X34103750Y36150293D03*
%TD*%
%TO.C,KiKit_MB_43_5*%
X56853750Y52250293D03*
%TD*%
D17*
%TO.C,LED2*%
X31553750Y64962793D03*
X31553750Y66537793D03*
%TD*%
D10*
%TO.C,KiKit_MB_38_6*%
X45603750Y44075293D03*
%TD*%
%TO.C,KiKit_MB_68_7*%
X13103750Y5450293D03*
%TD*%
%TO.C,KiKit_MB_4_6*%
X13978750Y69850293D03*
%TD*%
%TO.C,KiKit_MB_50_6*%
X24603750Y27975293D03*
%TD*%
D16*
%TO.C,LED1*%
X12091250Y7000293D03*
X10516250Y7000293D03*
%TD*%
D17*
%TO.C,LED2*%
X52553750Y81062793D03*
X52553750Y82637793D03*
%TD*%
D15*
%TO.C,R1*%
X82628750Y7000293D03*
X80978750Y7000293D03*
%TD*%
D10*
%TO.C,KiKit_MB_55_6*%
X36728750Y36150293D03*
%TD*%
%TO.C,KiKit_MB_83_4*%
X90978750Y84200293D03*
%TD*%
%TO.C,KiKit_MB_53_3*%
X26103750Y27100293D03*
%TD*%
%TO.C,KiKit_MB_34_6*%
X24603750Y44075293D03*
%TD*%
%TO.C,KiKit_MB_83_7*%
X93603750Y84200293D03*
%TD*%
%TO.C,KiKit_MB_79_5*%
X77853750Y20050293D03*
%TD*%
%TO.C,KiKit_MB_75_6*%
X57728750Y20050293D03*
%TD*%
%TO.C,KiKit_MB_7_7*%
X37603750Y84450293D03*
%TD*%
D16*
%TO.C,LED1*%
X12091250Y23100293D03*
X10516250Y23100293D03*
%TD*%
D15*
%TO.C,R1*%
X61628750Y23100293D03*
X59978750Y23100293D03*
%TD*%
D10*
%TO.C,KiKit_MB_22_6*%
X45603750Y60175293D03*
%TD*%
%TO.C,KiKit_MB_32_7*%
X76103750Y53750293D03*
%TD*%
D14*
%TO.C,D3*%
X81753750Y66750293D03*
X81753750Y63950293D03*
%TD*%
D10*
%TO.C,KiKit_MB_33_4*%
X5103750Y44075293D03*
%TD*%
D11*
%TO.C,R2*%
X76303750Y16675293D03*
X76303750Y18325293D03*
%TD*%
D10*
%TO.C,KiKit_MB_60_6*%
X55978750Y21550293D03*
%TD*%
%TO.C,KiKit_MB_64_6*%
X76978750Y21550293D03*
%TD*%
%TO.C,KiKit_MB_34_7*%
X24603750Y43200293D03*
%TD*%
%TO.C,KiKit_MB_82_4*%
X-21250Y5700293D03*
%TD*%
%TO.C,KiKit_MB_47_5*%
X77853750Y52250293D03*
%TD*%
%TO.C,KiKit_MB_29_7*%
X68103750Y62800293D03*
%TD*%
D18*
%TO.C,J1*%
X28303750Y7590293D03*
X28303750Y10130293D03*
X28303750Y12670293D03*
X28303750Y15210293D03*
D19*
X28303750Y17750293D03*
%TD*%
D18*
%TO.C,J2*%
X22353750Y39790293D03*
X22353750Y42330293D03*
X22353750Y44870293D03*
X22353750Y47410293D03*
D19*
X22353750Y49950293D03*
%TD*%
D18*
%TO.C,J1*%
X70303750Y55890293D03*
X70303750Y58430293D03*
X70303750Y60970293D03*
X70303750Y63510293D03*
D19*
X70303750Y66050293D03*
%TD*%
D18*
%TO.C,J2*%
X43353750Y71990293D03*
X43353750Y74530293D03*
X43353750Y77070293D03*
X43353750Y79610293D03*
D19*
X43353750Y82150293D03*
%TD*%
D18*
%TO.C,J2*%
X43353750Y55890293D03*
X43353750Y58430293D03*
X43353750Y60970293D03*
X43353750Y63510293D03*
D19*
X43353750Y66050293D03*
%TD*%
D18*
%TO.C,J1*%
X28303750Y71990293D03*
X28303750Y74530293D03*
X28303750Y77070293D03*
X28303750Y79610293D03*
D19*
X28303750Y82150293D03*
%TD*%
D18*
%TO.C,J1*%
X49303750Y23690293D03*
X49303750Y26230293D03*
X49303750Y28770293D03*
X49303750Y31310293D03*
D19*
X49303750Y33850293D03*
%TD*%
D18*
%TO.C,J1*%
X7303750Y23690293D03*
X7303750Y26230293D03*
X7303750Y28770293D03*
X7303750Y31310293D03*
D19*
X7303750Y33850293D03*
%TD*%
D18*
%TO.C,J2*%
X64353750Y55890293D03*
X64353750Y58430293D03*
X64353750Y60970293D03*
X64353750Y63510293D03*
D19*
X64353750Y66050293D03*
%TD*%
D18*
%TO.C,J2*%
X85353750Y71990293D03*
X85353750Y74530293D03*
X85353750Y77070293D03*
X85353750Y79610293D03*
D19*
X85353750Y82150293D03*
%TD*%
D18*
%TO.C,J1*%
X7303750Y7590293D03*
X7303750Y10130293D03*
X7303750Y12670293D03*
X7303750Y15210293D03*
D19*
X7303750Y17750293D03*
%TD*%
D18*
%TO.C,J2*%
X85353750Y23690293D03*
X85353750Y26230293D03*
X85353750Y28770293D03*
X85353750Y31310293D03*
D19*
X85353750Y33850293D03*
%TD*%
D18*
%TO.C,J2*%
X85353750Y55890293D03*
X85353750Y58430293D03*
X85353750Y60970293D03*
X85353750Y63510293D03*
D19*
X85353750Y66050293D03*
%TD*%
D18*
%TO.C,J2*%
X22353750Y55890293D03*
X22353750Y58430293D03*
X22353750Y60970293D03*
X22353750Y63510293D03*
D19*
X22353750Y66050293D03*
%TD*%
D18*
%TO.C,J2*%
X22353750Y7590293D03*
X22353750Y10130293D03*
X22353750Y12670293D03*
X22353750Y15210293D03*
D19*
X22353750Y17750293D03*
%TD*%
D18*
%TO.C,J1*%
X7303750Y39790293D03*
X7303750Y42330293D03*
X7303750Y44870293D03*
X7303750Y47410293D03*
D19*
X7303750Y49950293D03*
%TD*%
D18*
%TO.C,J1*%
X70303750Y39790293D03*
X70303750Y42330293D03*
X70303750Y44870293D03*
X70303750Y47410293D03*
D19*
X70303750Y49950293D03*
%TD*%
D18*
%TO.C,J2*%
X85353750Y39790293D03*
X85353750Y42330293D03*
X85353750Y44870293D03*
X85353750Y47410293D03*
D19*
X85353750Y49950293D03*
%TD*%
D18*
%TO.C,J1*%
X7303750Y71990293D03*
X7303750Y74530293D03*
X7303750Y77070293D03*
X7303750Y79610293D03*
D19*
X7303750Y82150293D03*
%TD*%
D18*
%TO.C,J2*%
X64353750Y7590293D03*
X64353750Y10130293D03*
X64353750Y12670293D03*
X64353750Y15210293D03*
D19*
X64353750Y17750293D03*
%TD*%
D18*
%TO.C,J1*%
X49303750Y39790293D03*
X49303750Y42330293D03*
X49303750Y44870293D03*
X49303750Y47410293D03*
D19*
X49303750Y49950293D03*
%TD*%
D18*
%TO.C,J2*%
X64353750Y23690293D03*
X64353750Y26230293D03*
X64353750Y28770293D03*
X64353750Y31310293D03*
D19*
X64353750Y33850293D03*
%TD*%
D18*
%TO.C,J2*%
X64353750Y39790293D03*
X64353750Y42330293D03*
X64353750Y44870293D03*
X64353750Y47410293D03*
D19*
X64353750Y49950293D03*
%TD*%
D18*
%TO.C,J1*%
X70303750Y7590293D03*
X70303750Y10130293D03*
X70303750Y12670293D03*
X70303750Y15210293D03*
D19*
X70303750Y17750293D03*
%TD*%
D18*
%TO.C,J2*%
X43353750Y23690293D03*
X43353750Y26230293D03*
X43353750Y28770293D03*
X43353750Y31310293D03*
D19*
X43353750Y33850293D03*
%TD*%
D18*
%TO.C,J1*%
X49303750Y7590293D03*
X49303750Y10130293D03*
X49303750Y12670293D03*
X49303750Y15210293D03*
D19*
X49303750Y17750293D03*
%TD*%
D18*
%TO.C,J2*%
X22353750Y23690293D03*
X22353750Y26230293D03*
X22353750Y28770293D03*
X22353750Y31310293D03*
D19*
X22353750Y33850293D03*
%TD*%
D18*
%TO.C,J1*%
X28303750Y39790293D03*
X28303750Y42330293D03*
X28303750Y44870293D03*
X28303750Y47410293D03*
D19*
X28303750Y49950293D03*
%TD*%
D18*
%TO.C,J2*%
X85353750Y7590293D03*
X85353750Y10130293D03*
X85353750Y12670293D03*
X85353750Y15210293D03*
D19*
X85353750Y17750293D03*
%TD*%
D18*
%TO.C,J1*%
X28303750Y55890293D03*
X28303750Y58430293D03*
X28303750Y60970293D03*
X28303750Y63510293D03*
D19*
X28303750Y66050293D03*
%TD*%
D18*
%TO.C,J2*%
X22353750Y71990293D03*
X22353750Y74530293D03*
X22353750Y77070293D03*
X22353750Y79610293D03*
D19*
X22353750Y82150293D03*
%TD*%
D18*
%TO.C,J1*%
X70303750Y71990293D03*
X70303750Y74530293D03*
X70303750Y77070293D03*
X70303750Y79610293D03*
D19*
X70303750Y82150293D03*
%TD*%
D18*
%TO.C,J2*%
X43353750Y7590293D03*
X43353750Y10130293D03*
X43353750Y12670293D03*
X43353750Y15210293D03*
D19*
X43353750Y17750293D03*
%TD*%
D18*
%TO.C,J1*%
X49303750Y55890293D03*
X49303750Y58430293D03*
X49303750Y60970293D03*
X49303750Y63510293D03*
D19*
X49303750Y66050293D03*
%TD*%
D18*
%TO.C,J1*%
X7303750Y55890293D03*
X7303750Y58430293D03*
X7303750Y60970293D03*
X7303750Y63510293D03*
D19*
X7303750Y66050293D03*
%TD*%
D18*
%TO.C,J1*%
X49303750Y71990293D03*
X49303750Y74530293D03*
X49303750Y77070293D03*
X49303750Y79610293D03*
D19*
X49303750Y82150293D03*
%TD*%
D18*
%TO.C,J2*%
X64353750Y71990293D03*
X64353750Y74530293D03*
X64353750Y77070293D03*
X64353750Y79610293D03*
D19*
X64353750Y82150293D03*
%TD*%
D18*
%TO.C,J1*%
X70303750Y23690293D03*
X70303750Y26230293D03*
X70303750Y28770293D03*
X70303750Y31310293D03*
D19*
X70303750Y33850293D03*
%TD*%
D18*
%TO.C,J2*%
X43353750Y39790293D03*
X43353750Y42330293D03*
X43353750Y44870293D03*
X43353750Y47410293D03*
D19*
X43353750Y49950293D03*
%TD*%
D18*
%TO.C,J1*%
X28303750Y23690293D03*
X28303750Y26230293D03*
X28303750Y28770293D03*
X28303750Y31310293D03*
D19*
X28303750Y33850293D03*
%TD*%
M02*
