%TF.GenerationSoftware,KiCad,Pcbnew,7.0.9*%
%TF.CreationDate,2024-07-19T15:30:45+09:00*%
%TF.ProjectId,panelize,70616e65-6c69-47a6-952e-6b696361645f,rev?*%
%TF.SameCoordinates,PX39748eaPY88a96c5*%
%TF.FileFunction,Profile,NP*%
%FSLAX46Y46*%
G04 Gerber Fmt 4.6, Leading zero omitted, Abs format (unit mm)*
G04 Created by KiCad (PCBNEW 7.0.9) date 2024-07-19 15:30:45*
%MOMM*%
%LPD*%
G01*
G04 APERTURE LIST*
%TA.AperFunction,Profile*%
%ADD10C,0.100000*%
%TD*%
G04 APERTURE END LIST*
D10*
X12353750Y37700293D02*
X12353750Y36901293D01*
X80353750Y5500293D02*
X75353750Y5500293D01*
X68353750Y52000293D02*
X87353750Y52000293D01*
X89353750Y91200293D02*
X3353750Y91200293D01*
X26159558Y42450293D02*
X26156517Y47450293D01*
X90329201Y-1203633D02*
X90805173Y-1084408D01*
X38353750Y20801293D02*
X38353750Y21600293D01*
X12353750Y21600293D02*
X12353750Y20801293D01*
X26156517Y79650293D02*
X25354750Y79650293D01*
X45553750Y15250293D02*
X45553750Y10250293D01*
X12353750Y36100293D02*
X17353750Y36100293D01*
X24353750Y5700293D02*
X5353750Y5700293D01*
X87353750Y70100293D02*
X68353750Y70100293D01*
X33353750Y53800293D02*
X33353750Y52200293D01*
X87553750Y74650293D02*
X89353750Y74650293D01*
X26156517Y47450293D02*
X24553750Y47450293D01*
X59353750Y5500293D02*
X54353750Y5500293D01*
X33353750Y86200293D02*
X33353750Y84400293D01*
X996766Y-709313D02*
X1440332Y-919104D01*
X68353750Y37900293D02*
X68353750Y52000293D01*
X24553750Y63550293D02*
X24553750Y58550293D01*
X33353750Y20000293D02*
X38353750Y20000293D01*
X59353750Y52200293D02*
X59353750Y53800293D01*
X59353750Y20000293D02*
X59353750Y21600293D01*
X24353750Y35900293D02*
X24353750Y21800293D01*
X80353750Y37700293D02*
X75353750Y37700293D01*
X93511098Y88978145D02*
X93218802Y89372260D01*
X26353750Y21800293D02*
X26353750Y35900293D01*
X54353750Y37700293D02*
X54353750Y36100293D01*
X17353750Y52200293D02*
X17353750Y53800293D01*
X68353750Y68100293D02*
X87353750Y68100293D01*
X91267167Y90819691D02*
X90805173Y90984995D01*
X89353750Y-1299707D02*
X89843835Y-1275630D01*
X24553750Y79650293D02*
X24553750Y74650293D01*
X66353750Y21800293D02*
X47353750Y21800293D01*
X92525716Y-164759D02*
X92889283Y164760D01*
X3353750Y31350293D02*
X3353750Y42450293D01*
X75353750Y21600293D02*
X75353750Y20000293D01*
X-1622174Y3210208D02*
X-1550177Y2724842D01*
X66553750Y42450293D02*
X68159558Y42450293D01*
X80353750Y36899293D02*
X80353750Y37700293D01*
X12353750Y86200293D02*
X12353750Y84400293D01*
X68159558Y74650293D02*
X68156517Y79650293D01*
X45353750Y35900293D02*
X45353750Y21800293D01*
X59353750Y69900293D02*
X54353750Y69900293D01*
X89353750Y31350293D02*
X87553750Y31350293D01*
X68353750Y35900293D02*
X87353750Y35900293D01*
X68153750Y63550293D02*
X66553750Y63550293D01*
X54353750Y84400293D02*
X59353750Y84400293D01*
X38353750Y69900293D02*
X33353750Y69900293D01*
X92131601Y90357642D02*
X91710733Y90609900D01*
X66353750Y84200293D02*
X66353750Y70100293D01*
X68353750Y84200293D02*
X87353750Y84200293D01*
X3353750Y47450293D02*
X3353750Y58550293D01*
X38353750Y20000293D02*
X38353750Y20801293D01*
X89353750Y47450293D02*
X87553750Y47450293D01*
X47353750Y19800293D02*
X66353750Y19800293D01*
X66553750Y63550293D02*
X66553750Y58550293D01*
X5153750Y42450293D02*
X5153750Y47450293D01*
X66553750Y15250293D02*
X66553750Y10250293D01*
X90329201Y91104220D02*
X89843835Y91176217D01*
X54353750Y5500293D02*
X54353750Y3700293D01*
X94329673Y86690379D02*
X94257676Y87175745D01*
X66353750Y68100293D02*
X66353750Y54000293D01*
X89353750Y26350293D02*
X89353750Y15250293D01*
X66353750Y35900293D02*
X66353750Y21800293D01*
X54353750Y86200293D02*
X54353750Y84400293D01*
X-1550177Y2724842D02*
X-1430952Y2248870D01*
X26353750Y70100293D02*
X26353750Y84200293D01*
X59353750Y21600293D02*
X54353750Y21600293D01*
X26353750Y54000293D02*
X26353750Y68100293D01*
X80353750Y20799293D02*
X80353750Y21600293D01*
X26153750Y58550293D02*
X26153750Y63550293D01*
X12353750Y69101293D02*
X12353750Y68300293D01*
X45353750Y68100293D02*
X45353750Y54000293D01*
X87553750Y15250293D02*
X87553750Y10250293D01*
X67352750Y10250293D02*
X68153750Y10250293D01*
X47159558Y58550293D02*
X47156517Y63550293D01*
X47153750Y47450293D02*
X45553750Y47450293D01*
X25352750Y10250293D02*
X26153750Y10250293D01*
X75353750Y36100293D02*
X80353750Y36100293D01*
X45353750Y21800293D02*
X26353750Y21800293D01*
X93763356Y88557277D02*
X93511098Y88978145D01*
X89353750Y42450293D02*
X89353750Y31350293D01*
X75353750Y5500293D02*
X75353750Y3700293D01*
X1440332Y90819691D02*
X996766Y90609900D01*
X68156517Y79650293D02*
X67354750Y79650293D01*
X26353750Y19800293D02*
X45353750Y19800293D01*
X68353750Y70100293D02*
X68353750Y84200293D01*
X94353750Y86200293D02*
X94329673Y86690379D01*
X45353750Y19800293D02*
X45353750Y5700293D01*
X5353750Y84200293D02*
X24353750Y84200293D01*
X12353750Y68300293D02*
X17353750Y68300293D01*
X33353750Y52200293D02*
X38353750Y52200293D01*
X47353750Y84200293D02*
X66353750Y84200293D01*
X24553750Y10250293D02*
X25352750Y10250293D01*
X5353750Y19800293D02*
X24353750Y19800293D01*
X66553750Y31350293D02*
X66553750Y26350293D01*
X-511303Y528327D02*
X-181784Y164760D01*
X5353750Y21800293D02*
X5353750Y35900293D01*
X91267167Y-919104D02*
X91710733Y-709313D01*
X80353750Y86200293D02*
X89353750Y86200293D01*
X45553750Y42450293D02*
X47153750Y42450293D01*
X94257676Y2724842D02*
X94329673Y3210208D01*
X38353750Y36901293D02*
X38353750Y37700293D01*
X5353750Y5700293D02*
X5353750Y19800293D01*
X24553750Y47450293D02*
X24553750Y42450293D01*
X38353750Y69101293D02*
X38353750Y69900293D01*
X24353750Y21800293D02*
X5353750Y21800293D01*
X93218802Y528327D02*
X93511098Y922442D01*
X26353750Y35900293D02*
X45353750Y35900293D01*
X80353750Y53800293D02*
X75353750Y53800293D01*
X89353750Y74650293D02*
X89353750Y63550293D01*
X-803599Y922442D02*
X-511303Y528327D01*
X93973147Y1786876D02*
X94138451Y2248870D01*
X87553750Y26350293D02*
X89353750Y26350293D01*
X26159558Y74650293D02*
X26156517Y79650293D01*
X5353750Y37900293D02*
X5353750Y52000293D01*
X80353750Y69099293D02*
X80353750Y69900293D01*
X26353750Y5700293D02*
X26353750Y19800293D01*
X38353750Y37700293D02*
X33353750Y37700293D01*
X68353750Y21800293D02*
X68353750Y35900293D01*
X26353750Y68100293D02*
X45353750Y68100293D01*
X24553750Y74650293D02*
X26159558Y74650293D01*
X47159558Y26350293D02*
X47156517Y31350293D01*
X12353750Y69900293D02*
X12353750Y69101293D01*
X54353750Y36100293D02*
X59353750Y36100293D01*
X33353750Y37700293D02*
X33353750Y36100293D01*
X80353750Y52200293D02*
X80353750Y52999293D01*
X12353750Y53800293D02*
X12353750Y53001293D01*
X181783Y-164759D02*
X575898Y-457055D01*
X575898Y-457055D02*
X996766Y-709313D01*
X5353750Y52000293D02*
X24353750Y52000293D01*
X45553750Y26350293D02*
X47159558Y26350293D01*
X66353750Y19800293D02*
X66353750Y5700293D01*
X47353750Y35900293D02*
X66353750Y35900293D01*
X2863664Y91176217D02*
X2378298Y91104220D01*
X3353750Y26350293D02*
X5159558Y26350293D01*
X47353750Y68100293D02*
X66353750Y68100293D01*
X38353750Y21600293D02*
X33353750Y21600293D01*
X26353750Y52000293D02*
X45353750Y52000293D01*
X66353750Y52000293D02*
X66353750Y37900293D01*
X24553750Y42450293D02*
X26159558Y42450293D01*
X3353750Y79650293D02*
X3353750Y86200293D01*
X59353750Y86200293D02*
X75353750Y86200293D01*
X5156517Y63550293D02*
X3353750Y63550293D01*
X24553750Y15250293D02*
X24553750Y10250293D01*
X87353750Y21800293D02*
X68353750Y21800293D01*
X68353750Y5700293D02*
X68353750Y19800293D01*
X17353750Y86200293D02*
X33353750Y86200293D01*
X59353750Y3700293D02*
X59353750Y5500293D01*
X12353750Y5500293D02*
X12353750Y3700293D01*
X54353750Y52200293D02*
X59353750Y52200293D01*
X75353750Y86200293D02*
X75353750Y84400293D01*
X75353750Y52200293D02*
X80353750Y52200293D01*
X93973147Y88113711D02*
X93763356Y88557277D01*
X68159558Y26350293D02*
X68156517Y31350293D01*
X38353750Y5500293D02*
X33353750Y5500293D01*
X26159558Y26350293D02*
X26156517Y31350293D01*
X87353750Y19800293D02*
X87353750Y5700293D01*
X47156517Y63550293D02*
X45553750Y63550293D01*
X2863664Y-1275630D02*
X3353750Y-1299707D01*
X-181784Y89735827D02*
X-511303Y89372260D01*
X68153750Y15250293D02*
X66553750Y15250293D01*
X17353750Y53800293D02*
X12353750Y53800293D01*
X89353750Y86200293D02*
X89353750Y79650293D01*
X75353750Y3700293D02*
X59353750Y3700293D01*
X68353750Y54000293D02*
X68353750Y68100293D01*
X89353750Y15250293D02*
X87553750Y15250293D01*
X87553750Y10250293D02*
X89353750Y10250293D01*
X5156517Y79650293D02*
X3353750Y79650293D01*
X47353750Y5700293D02*
X47353750Y19800293D01*
X87353750Y5700293D02*
X68353750Y5700293D01*
X5153750Y47450293D02*
X3353750Y47450293D01*
X24353750Y84200293D02*
X24353750Y70100293D01*
X80353750Y52999293D02*
X80353750Y53800293D01*
X5353750Y54000293D02*
X5353750Y68100293D01*
X75353750Y53800293D02*
X75353750Y52200293D01*
X94138451Y87651717D02*
X93973147Y88113711D01*
X3353750Y58550293D02*
X5159558Y58550293D01*
X1902326Y90984995D02*
X1440332Y90819691D01*
X17353750Y5500293D02*
X12353750Y5500293D01*
X93218802Y89372260D02*
X92889283Y89735827D01*
X-1430952Y2248870D02*
X-1265648Y1786876D01*
X45353750Y52000293D02*
X45353750Y37900293D01*
X38353750Y53001293D02*
X38353750Y53800293D01*
X26153750Y15250293D02*
X24553750Y15250293D01*
X80353750Y3700293D02*
X80353750Y5500293D01*
X33353750Y36100293D02*
X38353750Y36100293D01*
X24353750Y70100293D02*
X5353750Y70100293D01*
X89353750Y63550293D02*
X87553750Y63550293D01*
X75353750Y68300293D02*
X80353750Y68300293D01*
X24353750Y68100293D02*
X24353750Y54000293D01*
X87553750Y47450293D02*
X87553750Y42450293D01*
X45353750Y84200293D02*
X45353750Y70100293D01*
X33353750Y68300293D02*
X38353750Y68300293D01*
X94329673Y3210208D02*
X94353750Y3700293D01*
X26153750Y63550293D02*
X24553750Y63550293D01*
X66553750Y74650293D02*
X68159558Y74650293D01*
X68153750Y58550293D02*
X68153750Y63550293D01*
X67354750Y79650293D02*
X66553750Y79650293D01*
X24353750Y37900293D02*
X5353750Y37900293D01*
X54353750Y21600293D02*
X54353750Y20000293D01*
X45553750Y47450293D02*
X45553750Y42450293D01*
X92889283Y164760D02*
X93218802Y528327D01*
X54353750Y3700293D02*
X38353750Y3700293D01*
X89843835Y-1275630D02*
X90329201Y-1203633D01*
X24353750Y19800293D02*
X24353750Y5700293D01*
X89353750Y10250293D02*
X89353750Y3700293D01*
X33353750Y3700293D02*
X17353750Y3700293D01*
X26353750Y37900293D02*
X26353750Y52000293D01*
X38353750Y52200293D02*
X38353750Y53001293D01*
X68153750Y10250293D02*
X68153750Y15250293D01*
X54353750Y68300293D02*
X59353750Y68300293D01*
X59353750Y84400293D02*
X59353750Y86200293D01*
X25354750Y79650293D02*
X24553750Y79650293D01*
X17353750Y36100293D02*
X17353750Y37700293D01*
X47153750Y15250293D02*
X45553750Y15250293D01*
X5159558Y74650293D02*
X5156517Y79650293D01*
X87353750Y84200293D02*
X87353750Y70100293D01*
X5353750Y35900293D02*
X24353750Y35900293D01*
X89353750Y79650293D02*
X87553750Y79650293D01*
X75353750Y20000293D02*
X80353750Y20000293D01*
X12353750Y52200293D02*
X17353750Y52200293D01*
X89843835Y91176217D02*
X89353750Y91200293D01*
X68159558Y42450293D02*
X68156517Y47450293D01*
X92525716Y90065346D02*
X92131601Y90357642D01*
X996766Y90609900D02*
X575898Y90357642D01*
X46352750Y10250293D02*
X47153750Y10250293D01*
X89353750Y3700293D02*
X80353750Y3700293D01*
X2378298Y-1203633D02*
X2863664Y-1275630D01*
X3353750Y3700293D02*
X3353750Y10250293D01*
X1440332Y-919104D02*
X1902326Y-1084408D01*
X24553750Y58550293D02*
X26153750Y58550293D01*
X93511098Y922442D02*
X93763356Y1343310D01*
X87553750Y42450293D02*
X89353750Y42450293D01*
X54353750Y20000293D02*
X59353750Y20000293D01*
X-1055857Y88557277D02*
X-1265648Y88113711D01*
X5156517Y31350293D02*
X3353750Y31350293D01*
X-1646250Y86200293D02*
X-1646250Y3700293D01*
X47153750Y42450293D02*
X47153750Y47450293D01*
X94138451Y2248870D02*
X94257676Y2724842D01*
X38353750Y53800293D02*
X33353750Y53800293D01*
X47353750Y54000293D02*
X47353750Y68100293D01*
X-1265648Y88113711D02*
X-1430952Y87651717D01*
X45353750Y70100293D02*
X26353750Y70100293D01*
X26353750Y84200293D02*
X45353750Y84200293D01*
X5153750Y15250293D02*
X3353750Y15250293D01*
X87553750Y58550293D02*
X89353750Y58550293D01*
X17353750Y21600293D02*
X12353750Y21600293D01*
X87353750Y35900293D02*
X87353750Y21800293D01*
X181783Y90065346D02*
X-181784Y89735827D01*
X33353750Y21600293D02*
X33353750Y20000293D01*
X47156517Y31350293D02*
X45553750Y31350293D01*
X17353750Y69900293D02*
X12353750Y69900293D01*
X87353750Y37900293D02*
X68353750Y37900293D01*
X87553750Y79650293D02*
X87553750Y74650293D01*
X47353750Y52000293D02*
X66353750Y52000293D01*
X33353750Y84400293D02*
X38353750Y84400293D01*
X38353750Y84400293D02*
X38353750Y86200293D01*
X66553750Y58550293D02*
X68153750Y58550293D01*
X5159558Y58550293D02*
X5156517Y63550293D01*
X24553750Y31350293D02*
X24553750Y26350293D01*
X33353750Y5500293D02*
X33353750Y3700293D01*
X1902326Y-1084408D02*
X2378298Y-1203633D01*
X47156517Y79650293D02*
X46354750Y79650293D01*
X47353750Y21800293D02*
X47353750Y35900293D01*
X-803599Y88978145D02*
X-1055857Y88557277D01*
X59353750Y53800293D02*
X54353750Y53800293D01*
X3353750Y42450293D02*
X5153750Y42450293D01*
X75353750Y84400293D02*
X80353750Y84400293D01*
X75353750Y37700293D02*
X75353750Y36100293D01*
X38353750Y36100293D02*
X38353750Y36901293D01*
X94353750Y3700293D02*
X94353750Y86200293D01*
X3353750Y86200293D02*
X12353750Y86200293D01*
X45553750Y58550293D02*
X47159558Y58550293D01*
X66553750Y26350293D02*
X68159558Y26350293D01*
X24553750Y26350293D02*
X26159558Y26350293D01*
X89353750Y58550293D02*
X89353750Y47450293D01*
X17353750Y37700293D02*
X12353750Y37700293D01*
X17353750Y3700293D02*
X17353750Y5500293D01*
X68156517Y47450293D02*
X66553750Y47450293D01*
X3353750Y74650293D02*
X5159558Y74650293D01*
X-1430952Y87651717D02*
X-1550177Y87175745D01*
X45353750Y37900293D02*
X26353750Y37900293D01*
X26153750Y10250293D02*
X26153750Y15250293D01*
X94257676Y87175745D02*
X94138451Y87651717D01*
X17353750Y84400293D02*
X17353750Y86200293D01*
X87353750Y68100293D02*
X87353750Y54000293D01*
X45353750Y5700293D02*
X26353750Y5700293D01*
X47159558Y74650293D02*
X47156517Y79650293D01*
X5353750Y70100293D02*
X5353750Y84200293D01*
X59353750Y68300293D02*
X59353750Y69900293D01*
X33353750Y69900293D02*
X33353750Y68300293D01*
X38353750Y68300293D02*
X38353750Y69101293D01*
X87553750Y31350293D02*
X87553750Y26350293D01*
X-1265648Y1786876D02*
X-1055857Y1343310D01*
X66553750Y10250293D02*
X67352750Y10250293D01*
X59353750Y36100293D02*
X59353750Y37700293D01*
X-1550177Y87175745D02*
X-1622174Y86690379D01*
X2378298Y91104220D02*
X1902326Y90984995D01*
X12353750Y84400293D02*
X17353750Y84400293D01*
X75353750Y69900293D02*
X75353750Y68300293D01*
X90805173Y-1084408D02*
X91267167Y-919104D01*
X-1622174Y86690379D02*
X-1646250Y86200293D01*
X87353750Y52000293D02*
X87353750Y37900293D01*
X91710733Y90609900D02*
X91267167Y90819691D01*
X-1055857Y1343310D02*
X-803599Y922442D01*
X45553750Y74650293D02*
X47159558Y74650293D01*
X12353750Y20000293D02*
X17353750Y20000293D01*
X575898Y90357642D02*
X181783Y90065346D01*
X66553750Y47450293D02*
X66553750Y42450293D01*
X92889283Y89735827D02*
X92525716Y90065346D01*
X54353750Y69900293D02*
X54353750Y68300293D01*
X66553750Y79650293D02*
X66553750Y74650293D01*
X47353750Y70100293D02*
X47353750Y84200293D01*
X66353750Y37900293D02*
X47353750Y37900293D01*
X-511303Y89372260D02*
X-803599Y88978145D01*
X12353750Y53001293D02*
X12353750Y52200293D01*
X91710733Y-709313D02*
X92131601Y-457055D01*
X24353750Y52000293D02*
X24353750Y37900293D01*
X80353750Y36100293D02*
X80353750Y36899293D01*
X47153750Y10250293D02*
X47153750Y15250293D01*
X5159558Y26350293D02*
X5156517Y31350293D01*
X68353750Y19800293D02*
X87353750Y19800293D01*
X12353750Y20801293D02*
X12353750Y20000293D01*
X47353750Y37900293D02*
X47353750Y52000293D01*
X66353750Y54000293D02*
X47353750Y54000293D01*
X3353750Y10250293D02*
X5153750Y10250293D01*
X-1646250Y3700293D02*
X-1622174Y3210208D01*
X92131601Y-457055D02*
X92525716Y-164759D01*
X3353750Y-1299707D02*
X89353750Y-1299707D01*
X93763356Y1343310D02*
X93973147Y1786876D01*
X45553750Y63550293D02*
X45553750Y58550293D01*
X26156517Y31350293D02*
X24553750Y31350293D01*
X68156517Y31350293D02*
X66553750Y31350293D01*
X59353750Y37700293D02*
X54353750Y37700293D01*
X45553750Y10250293D02*
X46352750Y10250293D01*
X38353750Y86200293D02*
X54353750Y86200293D01*
X5353750Y68100293D02*
X24353750Y68100293D01*
X46354750Y79650293D02*
X45553750Y79650293D01*
X3353750Y15250293D02*
X3353750Y26350293D01*
X66353750Y70100293D02*
X47353750Y70100293D01*
X87553750Y63550293D02*
X87553750Y58550293D01*
X80353750Y84400293D02*
X80353750Y86200293D01*
X17353750Y68300293D02*
X17353750Y69900293D01*
X87353750Y54000293D02*
X68353750Y54000293D01*
X12353750Y36901293D02*
X12353750Y36100293D01*
X3353750Y63550293D02*
X3353750Y74650293D01*
X80353750Y20000293D02*
X80353750Y20799293D01*
X80353750Y68300293D02*
X80353750Y69099293D01*
X45553750Y31350293D02*
X45553750Y26350293D01*
X45553750Y79650293D02*
X45553750Y74650293D01*
X80353750Y69900293D02*
X75353750Y69900293D01*
X45353750Y54000293D02*
X26353750Y54000293D01*
X24353750Y54000293D02*
X5353750Y54000293D01*
X90805173Y90984995D02*
X90329201Y91104220D01*
X66353750Y5700293D02*
X47353750Y5700293D01*
X80353750Y21600293D02*
X75353750Y21600293D01*
X12353750Y3700293D02*
X3353750Y3700293D01*
X17353750Y20000293D02*
X17353750Y21600293D01*
X3353750Y91200293D02*
X2863664Y91176217D01*
X54353750Y53800293D02*
X54353750Y52200293D01*
X-181784Y164760D02*
X181783Y-164759D01*
X5153750Y10250293D02*
X5153750Y15250293D01*
X38353750Y3700293D02*
X38353750Y5500293D01*
M02*
