%TF.GenerationSoftware,KiCad,Pcbnew,7.0.9*%
%TF.CreationDate,2024-07-19T15:30:44+09:00*%
%TF.ProjectId,panelize,70616e65-6c69-47a6-952e-6b696361645f,rev?*%
%TF.SameCoordinates,PX39748eaPY88a96c5*%
%TF.FileFunction,Copper,L1,Top*%
%TF.FilePolarity,Positive*%
%FSLAX46Y46*%
G04 Gerber Fmt 4.6, Leading zero omitted, Abs format (unit mm)*
G04 Created by KiCad (PCBNEW 7.0.9) date 2024-07-19 15:30:44*
%MOMM*%
%LPD*%
G01*
G04 APERTURE LIST*
G04 Aperture macros list*
%AMRoundRect*
0 Rectangle with rounded corners*
0 $1 Rounding radius*
0 $2 $3 $4 $5 $6 $7 $8 $9 X,Y pos of 4 corners*
0 Add a 4 corners polygon primitive as box body*
4,1,4,$2,$3,$4,$5,$6,$7,$8,$9,$2,$3,0*
0 Add four circle primitives for the rounded corners*
1,1,$1+$1,$2,$3*
1,1,$1+$1,$4,$5*
1,1,$1+$1,$6,$7*
1,1,$1+$1,$8,$9*
0 Add four rect primitives between the rounded corners*
20,1,$1+$1,$2,$3,$4,$5,0*
20,1,$1+$1,$4,$5,$6,$7,0*
20,1,$1+$1,$6,$7,$8,$9,0*
20,1,$1+$1,$8,$9,$2,$3,0*%
G04 Aperture macros list end*
%TA.AperFunction,SMDPad,CuDef*%
%ADD10RoundRect,0.200000X-0.275000X0.200000X-0.275000X-0.200000X0.275000X-0.200000X0.275000X0.200000X0*%
%TD*%
%TA.AperFunction,SMDPad,CuDef*%
%ADD11RoundRect,0.150000X-0.825000X-0.150000X0.825000X-0.150000X0.825000X0.150000X-0.825000X0.150000X0*%
%TD*%
%TA.AperFunction,SMDPad,CuDef*%
%ADD12RoundRect,0.200000X0.275000X-0.200000X0.275000X0.200000X-0.275000X0.200000X-0.275000X-0.200000X0*%
%TD*%
%TA.AperFunction,SMDPad,CuDef*%
%ADD13RoundRect,0.250000X0.625000X-0.375000X0.625000X0.375000X-0.625000X0.375000X-0.625000X-0.375000X0*%
%TD*%
%TA.AperFunction,SMDPad,CuDef*%
%ADD14RoundRect,0.200000X-0.200000X-0.275000X0.200000X-0.275000X0.200000X0.275000X-0.200000X0.275000X0*%
%TD*%
%TA.AperFunction,SMDPad,CuDef*%
%ADD15RoundRect,0.218750X-0.218750X-0.256250X0.218750X-0.256250X0.218750X0.256250X-0.218750X0.256250X0*%
%TD*%
%TA.AperFunction,SMDPad,CuDef*%
%ADD16RoundRect,0.218750X-0.256250X0.218750X-0.256250X-0.218750X0.256250X-0.218750X0.256250X0.218750X0*%
%TD*%
%TA.AperFunction,ComponentPad*%
%ADD17O,1.700000X1.700000*%
%TD*%
%TA.AperFunction,ComponentPad*%
%ADD18R,1.700000X1.700000*%
%TD*%
%TA.AperFunction,ViaPad*%
%ADD19C,0.800000*%
%TD*%
%TA.AperFunction,Conductor*%
%ADD20C,0.250000*%
%TD*%
G04 APERTURE END LIST*
D10*
%TO.P,R2,2*%
%TO.N,Board_3-8*%
X76303750Y81075293D03*
%TO.P,R2,1*%
%TO.N,Board_3-Net-(D2-K)*%
X76303750Y82725293D03*
%TD*%
D11*
%TO.P,U1,8,GND*%
%TO.N,Board_5-8*%
X37028750Y61205293D03*
%TO.P,U1,7,PA3*%
%TO.N,Board_5-7*%
X37028750Y59935293D03*
%TO.P,U1,6,~{RESET}/PA0*%
%TO.N,Board_5-6*%
X37028750Y58665293D03*
%TO.P,U1,5,PA2*%
%TO.N,Board_5-5*%
X37028750Y57395293D03*
%TO.P,U1,4,PA1*%
%TO.N,Board_5-4*%
X32078750Y57395293D03*
%TO.P,U1,3,PA7*%
%TO.N,Board_5-3*%
X32078750Y58665293D03*
%TO.P,U1,2,PA6*%
%TO.N,Board_5-2*%
X32078750Y59935293D03*
%TO.P,U1,1,VCC*%
%TO.N,Board_5-1*%
X32078750Y61205293D03*
%TD*%
D12*
%TO.P,470,2*%
%TO.N,Board_2-UPDI_RX*%
X58153750Y81875293D03*
%TO.P,470,1*%
%TO.N,Board_2-6*%
X58153750Y80225293D03*
%TD*%
D13*
%TO.P,D3,2,A*%
%TO.N,Board_5-UPDI_TX*%
X39753750Y66750293D03*
%TO.P,D3,1,K*%
%TO.N,Board_5-UPDI_RX*%
X39753750Y63950293D03*
%TD*%
D14*
%TO.P,R1,2*%
%TO.N,Board_7-8*%
X82628750Y55300293D03*
%TO.P,R1,1*%
%TO.N,Board_7-Net-(D1-K)*%
X80978750Y55300293D03*
%TD*%
D10*
%TO.P,R2,2*%
%TO.N,Board_11-8*%
X76303750Y48875293D03*
%TO.P,R2,1*%
%TO.N,Board_11-Net-(D2-K)*%
X76303750Y50525293D03*
%TD*%
D13*
%TO.P,D3,2,A*%
%TO.N,Board_1-UPDI_TX*%
X39753750Y82850293D03*
%TO.P,D3,1,K*%
%TO.N,Board_1-UPDI_RX*%
X39753750Y80050293D03*
%TD*%
D14*
%TO.P,R1,2*%
%TO.N,Board_12-8*%
X19628750Y23100293D03*
%TO.P,R1,1*%
%TO.N,Board_12-Net-(D1-K)*%
X17978750Y23100293D03*
%TD*%
D12*
%TO.P,470,2*%
%TO.N,Board_13-UPDI_RX*%
X37153750Y33575293D03*
%TO.P,470,1*%
%TO.N,Board_13-6*%
X37153750Y31925293D03*
%TD*%
D13*
%TO.P,D3,2,A*%
%TO.N,Board_12-UPDI_TX*%
X18753750Y34550293D03*
%TO.P,D3,1,K*%
%TO.N,Board_12-UPDI_RX*%
X18753750Y31750293D03*
%TD*%
D15*
%TO.P,LED1,2,A*%
%TO.N,Board_9-3*%
X33091250Y39200293D03*
%TO.P,LED1,1,K*%
%TO.N,Board_9-Net-(D1-K)*%
X31516250Y39200293D03*
%TD*%
D10*
%TO.P,R2,2*%
%TO.N,Board_6-8*%
X55303750Y64975293D03*
%TO.P,R2,1*%
%TO.N,Board_6-Net-(D2-K)*%
X55303750Y66625293D03*
%TD*%
D14*
%TO.P,R1,2*%
%TO.N,Board_17-8*%
X40628750Y7000293D03*
%TO.P,R1,1*%
%TO.N,Board_17-Net-(D1-K)*%
X38978750Y7000293D03*
%TD*%
D12*
%TO.P,470,2*%
%TO.N,Board_18-UPDI_RX*%
X58153750Y17475293D03*
%TO.P,470,1*%
%TO.N,Board_18-6*%
X58153750Y15825293D03*
%TD*%
D11*
%TO.P,U1,8,GND*%
%TO.N,Board_9-8*%
X37028750Y45105293D03*
%TO.P,U1,7,PA3*%
%TO.N,Board_9-7*%
X37028750Y43835293D03*
%TO.P,U1,6,~{RESET}/PA0*%
%TO.N,Board_9-6*%
X37028750Y42565293D03*
%TO.P,U1,5,PA2*%
%TO.N,Board_9-5*%
X37028750Y41295293D03*
%TO.P,U1,4,PA1*%
%TO.N,Board_9-4*%
X32078750Y41295293D03*
%TO.P,U1,3,PA7*%
%TO.N,Board_9-3*%
X32078750Y42565293D03*
%TO.P,U1,2,PA6*%
%TO.N,Board_9-2*%
X32078750Y43835293D03*
%TO.P,U1,1,VCC*%
%TO.N,Board_9-1*%
X32078750Y45105293D03*
%TD*%
D16*
%TO.P,LED2,2,A*%
%TO.N,Board_15-1*%
X73553750Y32762793D03*
%TO.P,LED2,1,K*%
%TO.N,Board_15-Net-(D2-K)*%
X73553750Y34337793D03*
%TD*%
D14*
%TO.P,R1,2*%
%TO.N,Board_0-8*%
X19628750Y71400293D03*
%TO.P,R1,1*%
%TO.N,Board_0-Net-(D1-K)*%
X17978750Y71400293D03*
%TD*%
D10*
%TO.P,R2,2*%
%TO.N,Board_13-8*%
X34303750Y32775293D03*
%TO.P,R2,1*%
%TO.N,Board_13-Net-(D2-K)*%
X34303750Y34425293D03*
%TD*%
D15*
%TO.P,LED1,2,A*%
%TO.N,Board_7-3*%
X75091250Y55300293D03*
%TO.P,LED1,1,K*%
%TO.N,Board_7-Net-(D1-K)*%
X73516250Y55300293D03*
%TD*%
D11*
%TO.P,U1,8,GND*%
%TO.N,Board_18-8*%
X58028750Y12905293D03*
%TO.P,U1,7,PA3*%
%TO.N,Board_18-7*%
X58028750Y11635293D03*
%TO.P,U1,6,~{RESET}/PA0*%
%TO.N,Board_18-6*%
X58028750Y10365293D03*
%TO.P,U1,5,PA2*%
%TO.N,Board_18-5*%
X58028750Y9095293D03*
%TO.P,U1,4,PA1*%
%TO.N,Board_18-4*%
X53078750Y9095293D03*
%TO.P,U1,3,PA7*%
%TO.N,Board_18-3*%
X53078750Y10365293D03*
%TO.P,U1,2,PA6*%
%TO.N,Board_18-2*%
X53078750Y11635293D03*
%TO.P,U1,1,VCC*%
%TO.N,Board_18-1*%
X53078750Y12905293D03*
%TD*%
%TO.P,U1,8,GND*%
%TO.N,Board_11-8*%
X79028750Y45105293D03*
%TO.P,U1,7,PA3*%
%TO.N,Board_11-7*%
X79028750Y43835293D03*
%TO.P,U1,6,~{RESET}/PA0*%
%TO.N,Board_11-6*%
X79028750Y42565293D03*
%TO.P,U1,5,PA2*%
%TO.N,Board_11-5*%
X79028750Y41295293D03*
%TO.P,U1,4,PA1*%
%TO.N,Board_11-4*%
X74078750Y41295293D03*
%TO.P,U1,3,PA7*%
%TO.N,Board_11-3*%
X74078750Y42565293D03*
%TO.P,U1,2,PA6*%
%TO.N,Board_11-2*%
X74078750Y43835293D03*
%TO.P,U1,1,VCC*%
%TO.N,Board_11-1*%
X74078750Y45105293D03*
%TD*%
D15*
%TO.P,LED1,2,A*%
%TO.N,Board_14-3*%
X54091250Y23100293D03*
%TO.P,LED1,1,K*%
%TO.N,Board_14-Net-(D1-K)*%
X52516250Y23100293D03*
%TD*%
D13*
%TO.P,D3,2,A*%
%TO.N,Board_2-UPDI_TX*%
X60753750Y82850293D03*
%TO.P,D3,1,K*%
%TO.N,Board_2-UPDI_RX*%
X60753750Y80050293D03*
%TD*%
%TO.P,D3,2,A*%
%TO.N,Board_14-UPDI_TX*%
X60753750Y34550293D03*
%TO.P,D3,1,K*%
%TO.N,Board_14-UPDI_RX*%
X60753750Y31750293D03*
%TD*%
D16*
%TO.P,LED2,2,A*%
%TO.N,Board_4-1*%
X10553750Y64962793D03*
%TO.P,LED2,1,K*%
%TO.N,Board_4-Net-(D2-K)*%
X10553750Y66537793D03*
%TD*%
%TO.P,LED2,2,A*%
%TO.N,Board_8-1*%
X10553750Y48862793D03*
%TO.P,LED2,1,K*%
%TO.N,Board_8-Net-(D2-K)*%
X10553750Y50437793D03*
%TD*%
D13*
%TO.P,D3,2,A*%
%TO.N,Board_16-UPDI_TX*%
X18753750Y18450293D03*
%TO.P,D3,1,K*%
%TO.N,Board_16-UPDI_RX*%
X18753750Y15650293D03*
%TD*%
D11*
%TO.P,U1,8,GND*%
%TO.N,Board_16-8*%
X16028750Y12905293D03*
%TO.P,U1,7,PA3*%
%TO.N,Board_16-7*%
X16028750Y11635293D03*
%TO.P,U1,6,~{RESET}/PA0*%
%TO.N,Board_16-6*%
X16028750Y10365293D03*
%TO.P,U1,5,PA2*%
%TO.N,Board_16-5*%
X16028750Y9095293D03*
%TO.P,U1,4,PA1*%
%TO.N,Board_16-4*%
X11078750Y9095293D03*
%TO.P,U1,3,PA7*%
%TO.N,Board_16-3*%
X11078750Y10365293D03*
%TO.P,U1,2,PA6*%
%TO.N,Board_16-2*%
X11078750Y11635293D03*
%TO.P,U1,1,VCC*%
%TO.N,Board_16-1*%
X11078750Y12905293D03*
%TD*%
D12*
%TO.P,470,2*%
%TO.N,Board_1-UPDI_RX*%
X37153750Y81875293D03*
%TO.P,470,1*%
%TO.N,Board_1-6*%
X37153750Y80225293D03*
%TD*%
%TO.P,470,2*%
%TO.N,Board_16-UPDI_RX*%
X16153750Y17475293D03*
%TO.P,470,1*%
%TO.N,Board_16-6*%
X16153750Y15825293D03*
%TD*%
D15*
%TO.P,LED1,2,A*%
%TO.N,Board_15-3*%
X75091250Y23100293D03*
%TO.P,LED1,1,K*%
%TO.N,Board_15-Net-(D1-K)*%
X73516250Y23100293D03*
%TD*%
D16*
%TO.P,LED2,2,A*%
%TO.N,Board_0-1*%
X10553750Y81062793D03*
%TO.P,LED2,1,K*%
%TO.N,Board_0-Net-(D2-K)*%
X10553750Y82637793D03*
%TD*%
D14*
%TO.P,R1,2*%
%TO.N,Board_15-8*%
X82628750Y23100293D03*
%TO.P,R1,1*%
%TO.N,Board_15-Net-(D1-K)*%
X80978750Y23100293D03*
%TD*%
D12*
%TO.P,470,2*%
%TO.N,Board_7-UPDI_RX*%
X79153750Y65775293D03*
%TO.P,470,1*%
%TO.N,Board_7-6*%
X79153750Y64125293D03*
%TD*%
D16*
%TO.P,LED2,2,A*%
%TO.N,Board_1-1*%
X31553750Y81062793D03*
%TO.P,LED2,1,K*%
%TO.N,Board_1-Net-(D2-K)*%
X31553750Y82637793D03*
%TD*%
D10*
%TO.P,R2,2*%
%TO.N,Board_18-8*%
X55303750Y16675293D03*
%TO.P,R2,1*%
%TO.N,Board_18-Net-(D2-K)*%
X55303750Y18325293D03*
%TD*%
D14*
%TO.P,R1,2*%
%TO.N,Board_9-8*%
X40628750Y39200293D03*
%TO.P,R1,1*%
%TO.N,Board_9-Net-(D1-K)*%
X38978750Y39200293D03*
%TD*%
D10*
%TO.P,R2,2*%
%TO.N,Board_10-8*%
X55303750Y48875293D03*
%TO.P,R2,1*%
%TO.N,Board_10-Net-(D2-K)*%
X55303750Y50525293D03*
%TD*%
%TO.P,R2,2*%
%TO.N,Board_15-8*%
X76303750Y32775293D03*
%TO.P,R2,1*%
%TO.N,Board_15-Net-(D2-K)*%
X76303750Y34425293D03*
%TD*%
%TO.P,R2,2*%
%TO.N,Board_17-8*%
X34303750Y16675293D03*
%TO.P,R2,1*%
%TO.N,Board_17-Net-(D2-K)*%
X34303750Y18325293D03*
%TD*%
D15*
%TO.P,LED1,2,A*%
%TO.N,Board_1-3*%
X33091250Y71400293D03*
%TO.P,LED1,1,K*%
%TO.N,Board_1-Net-(D1-K)*%
X31516250Y71400293D03*
%TD*%
D11*
%TO.P,U1,8,GND*%
%TO.N,Board_2-8*%
X58028750Y77305293D03*
%TO.P,U1,7,PA3*%
%TO.N,Board_2-7*%
X58028750Y76035293D03*
%TO.P,U1,6,~{RESET}/PA0*%
%TO.N,Board_2-6*%
X58028750Y74765293D03*
%TO.P,U1,5,PA2*%
%TO.N,Board_2-5*%
X58028750Y73495293D03*
%TO.P,U1,4,PA1*%
%TO.N,Board_2-4*%
X53078750Y73495293D03*
%TO.P,U1,3,PA7*%
%TO.N,Board_2-3*%
X53078750Y74765293D03*
%TO.P,U1,2,PA6*%
%TO.N,Board_2-2*%
X53078750Y76035293D03*
%TO.P,U1,1,VCC*%
%TO.N,Board_2-1*%
X53078750Y77305293D03*
%TD*%
D13*
%TO.P,D3,2,A*%
%TO.N,Board_3-UPDI_TX*%
X81753750Y82850293D03*
%TO.P,D3,1,K*%
%TO.N,Board_3-UPDI_RX*%
X81753750Y80050293D03*
%TD*%
D10*
%TO.P,R2,2*%
%TO.N,Board_14-8*%
X55303750Y32775293D03*
%TO.P,R2,1*%
%TO.N,Board_14-Net-(D2-K)*%
X55303750Y34425293D03*
%TD*%
D15*
%TO.P,LED1,2,A*%
%TO.N,Board_10-3*%
X54091250Y39200293D03*
%TO.P,LED1,1,K*%
%TO.N,Board_10-Net-(D1-K)*%
X52516250Y39200293D03*
%TD*%
D16*
%TO.P,LED2,2,A*%
%TO.N,Board_17-1*%
X31553750Y16662793D03*
%TO.P,LED2,1,K*%
%TO.N,Board_17-Net-(D2-K)*%
X31553750Y18237793D03*
%TD*%
D13*
%TO.P,D3,2,A*%
%TO.N,Board_6-UPDI_TX*%
X60753750Y66750293D03*
%TO.P,D3,1,K*%
%TO.N,Board_6-UPDI_RX*%
X60753750Y63950293D03*
%TD*%
D11*
%TO.P,U1,8,GND*%
%TO.N,Board_12-8*%
X16028750Y29005293D03*
%TO.P,U1,7,PA3*%
%TO.N,Board_12-7*%
X16028750Y27735293D03*
%TO.P,U1,6,~{RESET}/PA0*%
%TO.N,Board_12-6*%
X16028750Y26465293D03*
%TO.P,U1,5,PA2*%
%TO.N,Board_12-5*%
X16028750Y25195293D03*
%TO.P,U1,4,PA1*%
%TO.N,Board_12-4*%
X11078750Y25195293D03*
%TO.P,U1,3,PA7*%
%TO.N,Board_12-3*%
X11078750Y26465293D03*
%TO.P,U1,2,PA6*%
%TO.N,Board_12-2*%
X11078750Y27735293D03*
%TO.P,U1,1,VCC*%
%TO.N,Board_12-1*%
X11078750Y29005293D03*
%TD*%
D14*
%TO.P,R1,2*%
%TO.N,Board_5-8*%
X40628750Y55300293D03*
%TO.P,R1,1*%
%TO.N,Board_5-Net-(D1-K)*%
X38978750Y55300293D03*
%TD*%
D13*
%TO.P,D3,2,A*%
%TO.N,Board_8-UPDI_TX*%
X18753750Y50650293D03*
%TO.P,D3,1,K*%
%TO.N,Board_8-UPDI_RX*%
X18753750Y47850293D03*
%TD*%
D14*
%TO.P,R1,2*%
%TO.N,Board_1-8*%
X40628750Y71400293D03*
%TO.P,R1,1*%
%TO.N,Board_1-Net-(D1-K)*%
X38978750Y71400293D03*
%TD*%
D16*
%TO.P,LED2,2,A*%
%TO.N,Board_10-1*%
X52553750Y48862793D03*
%TO.P,LED2,1,K*%
%TO.N,Board_10-Net-(D2-K)*%
X52553750Y50437793D03*
%TD*%
%TO.P,LED2,2,A*%
%TO.N,Board_11-1*%
X73553750Y48862793D03*
%TO.P,LED2,1,K*%
%TO.N,Board_11-Net-(D2-K)*%
X73553750Y50437793D03*
%TD*%
D11*
%TO.P,U1,8,GND*%
%TO.N,Board_0-8*%
X16028750Y77305293D03*
%TO.P,U1,7,PA3*%
%TO.N,Board_0-7*%
X16028750Y76035293D03*
%TO.P,U1,6,~{RESET}/PA0*%
%TO.N,Board_0-6*%
X16028750Y74765293D03*
%TO.P,U1,5,PA2*%
%TO.N,Board_0-5*%
X16028750Y73495293D03*
%TO.P,U1,4,PA1*%
%TO.N,Board_0-4*%
X11078750Y73495293D03*
%TO.P,U1,3,PA7*%
%TO.N,Board_0-3*%
X11078750Y74765293D03*
%TO.P,U1,2,PA6*%
%TO.N,Board_0-2*%
X11078750Y76035293D03*
%TO.P,U1,1,VCC*%
%TO.N,Board_0-1*%
X11078750Y77305293D03*
%TD*%
D15*
%TO.P,LED1,2,A*%
%TO.N,Board_0-3*%
X12091250Y71400293D03*
%TO.P,LED1,1,K*%
%TO.N,Board_0-Net-(D1-K)*%
X10516250Y71400293D03*
%TD*%
D12*
%TO.P,470,2*%
%TO.N,Board_14-UPDI_RX*%
X58153750Y33575293D03*
%TO.P,470,1*%
%TO.N,Board_14-6*%
X58153750Y31925293D03*
%TD*%
D11*
%TO.P,U1,8,GND*%
%TO.N,Board_8-8*%
X16028750Y45105293D03*
%TO.P,U1,7,PA3*%
%TO.N,Board_8-7*%
X16028750Y43835293D03*
%TO.P,U1,6,~{RESET}/PA0*%
%TO.N,Board_8-6*%
X16028750Y42565293D03*
%TO.P,U1,5,PA2*%
%TO.N,Board_8-5*%
X16028750Y41295293D03*
%TO.P,U1,4,PA1*%
%TO.N,Board_8-4*%
X11078750Y41295293D03*
%TO.P,U1,3,PA7*%
%TO.N,Board_8-3*%
X11078750Y42565293D03*
%TO.P,U1,2,PA6*%
%TO.N,Board_8-2*%
X11078750Y43835293D03*
%TO.P,U1,1,VCC*%
%TO.N,Board_8-1*%
X11078750Y45105293D03*
%TD*%
D10*
%TO.P,R2,2*%
%TO.N,Board_2-8*%
X55303750Y81075293D03*
%TO.P,R2,1*%
%TO.N,Board_2-Net-(D2-K)*%
X55303750Y82725293D03*
%TD*%
D13*
%TO.P,D3,2,A*%
%TO.N,Board_19-UPDI_TX*%
X81753750Y18450293D03*
%TO.P,D3,1,K*%
%TO.N,Board_19-UPDI_RX*%
X81753750Y15650293D03*
%TD*%
D10*
%TO.P,R2,2*%
%TO.N,Board_7-8*%
X76303750Y64975293D03*
%TO.P,R2,1*%
%TO.N,Board_7-Net-(D2-K)*%
X76303750Y66625293D03*
%TD*%
D14*
%TO.P,R1,2*%
%TO.N,Board_18-8*%
X61628750Y7000293D03*
%TO.P,R1,1*%
%TO.N,Board_18-Net-(D1-K)*%
X59978750Y7000293D03*
%TD*%
D15*
%TO.P,LED1,2,A*%
%TO.N,Board_13-3*%
X33091250Y23100293D03*
%TO.P,LED1,1,K*%
%TO.N,Board_13-Net-(D1-K)*%
X31516250Y23100293D03*
%TD*%
D11*
%TO.P,U1,8,GND*%
%TO.N,Board_19-8*%
X79028750Y12905293D03*
%TO.P,U1,7,PA3*%
%TO.N,Board_19-7*%
X79028750Y11635293D03*
%TO.P,U1,6,~{RESET}/PA0*%
%TO.N,Board_19-6*%
X79028750Y10365293D03*
%TO.P,U1,5,PA2*%
%TO.N,Board_19-5*%
X79028750Y9095293D03*
%TO.P,U1,4,PA1*%
%TO.N,Board_19-4*%
X74078750Y9095293D03*
%TO.P,U1,3,PA7*%
%TO.N,Board_19-3*%
X74078750Y10365293D03*
%TO.P,U1,2,PA6*%
%TO.N,Board_19-2*%
X74078750Y11635293D03*
%TO.P,U1,1,VCC*%
%TO.N,Board_19-1*%
X74078750Y12905293D03*
%TD*%
D16*
%TO.P,LED2,2,A*%
%TO.N,Board_7-1*%
X73553750Y64962793D03*
%TO.P,LED2,1,K*%
%TO.N,Board_7-Net-(D2-K)*%
X73553750Y66537793D03*
%TD*%
%TO.P,LED2,2,A*%
%TO.N,Board_12-1*%
X10553750Y32762793D03*
%TO.P,LED2,1,K*%
%TO.N,Board_12-Net-(D2-K)*%
X10553750Y34337793D03*
%TD*%
D15*
%TO.P,LED1,2,A*%
%TO.N,Board_5-3*%
X33091250Y55300293D03*
%TO.P,LED1,1,K*%
%TO.N,Board_5-Net-(D1-K)*%
X31516250Y55300293D03*
%TD*%
D13*
%TO.P,D3,2,A*%
%TO.N,Board_17-UPDI_TX*%
X39753750Y18450293D03*
%TO.P,D3,1,K*%
%TO.N,Board_17-UPDI_RX*%
X39753750Y15650293D03*
%TD*%
D16*
%TO.P,LED2,2,A*%
%TO.N,Board_16-1*%
X10553750Y16662793D03*
%TO.P,LED2,1,K*%
%TO.N,Board_16-Net-(D2-K)*%
X10553750Y18237793D03*
%TD*%
D14*
%TO.P,R1,2*%
%TO.N,Board_6-8*%
X61628750Y55300293D03*
%TO.P,R1,1*%
%TO.N,Board_6-Net-(D1-K)*%
X59978750Y55300293D03*
%TD*%
D13*
%TO.P,D3,2,A*%
%TO.N,Board_13-UPDI_TX*%
X39753750Y34550293D03*
%TO.P,D3,1,K*%
%TO.N,Board_13-UPDI_RX*%
X39753750Y31750293D03*
%TD*%
D12*
%TO.P,470,2*%
%TO.N,Board_9-UPDI_RX*%
X37153750Y49675293D03*
%TO.P,470,1*%
%TO.N,Board_9-6*%
X37153750Y48025293D03*
%TD*%
D14*
%TO.P,R1,2*%
%TO.N,Board_10-8*%
X61628750Y39200293D03*
%TO.P,R1,1*%
%TO.N,Board_10-Net-(D1-K)*%
X59978750Y39200293D03*
%TD*%
D12*
%TO.P,470,2*%
%TO.N,Board_4-UPDI_RX*%
X16153750Y65775293D03*
%TO.P,470,1*%
%TO.N,Board_4-6*%
X16153750Y64125293D03*
%TD*%
D13*
%TO.P,D3,2,A*%
%TO.N,Board_15-UPDI_TX*%
X81753750Y34550293D03*
%TO.P,D3,1,K*%
%TO.N,Board_15-UPDI_RX*%
X81753750Y31750293D03*
%TD*%
D16*
%TO.P,LED2,2,A*%
%TO.N,Board_18-1*%
X52553750Y16662793D03*
%TO.P,LED2,1,K*%
%TO.N,Board_18-Net-(D2-K)*%
X52553750Y18237793D03*
%TD*%
D10*
%TO.P,R2,2*%
%TO.N,Board_8-8*%
X13303750Y48875293D03*
%TO.P,R2,1*%
%TO.N,Board_8-Net-(D2-K)*%
X13303750Y50525293D03*
%TD*%
D14*
%TO.P,R1,2*%
%TO.N,Board_11-8*%
X82628750Y39200293D03*
%TO.P,R1,1*%
%TO.N,Board_11-Net-(D1-K)*%
X80978750Y39200293D03*
%TD*%
D11*
%TO.P,U1,8,GND*%
%TO.N,Board_7-8*%
X79028750Y61205293D03*
%TO.P,U1,7,PA3*%
%TO.N,Board_7-7*%
X79028750Y59935293D03*
%TO.P,U1,6,~{RESET}/PA0*%
%TO.N,Board_7-6*%
X79028750Y58665293D03*
%TO.P,U1,5,PA2*%
%TO.N,Board_7-5*%
X79028750Y57395293D03*
%TO.P,U1,4,PA1*%
%TO.N,Board_7-4*%
X74078750Y57395293D03*
%TO.P,U1,3,PA7*%
%TO.N,Board_7-3*%
X74078750Y58665293D03*
%TO.P,U1,2,PA6*%
%TO.N,Board_7-2*%
X74078750Y59935293D03*
%TO.P,U1,1,VCC*%
%TO.N,Board_7-1*%
X74078750Y61205293D03*
%TD*%
D12*
%TO.P,470,2*%
%TO.N,Board_19-UPDI_RX*%
X79153750Y17475293D03*
%TO.P,470,1*%
%TO.N,Board_19-6*%
X79153750Y15825293D03*
%TD*%
D13*
%TO.P,D3,2,A*%
%TO.N,Board_18-UPDI_TX*%
X60753750Y18450293D03*
%TO.P,D3,1,K*%
%TO.N,Board_18-UPDI_RX*%
X60753750Y15650293D03*
%TD*%
D11*
%TO.P,U1,8,GND*%
%TO.N,Board_14-8*%
X58028750Y29005293D03*
%TO.P,U1,7,PA3*%
%TO.N,Board_14-7*%
X58028750Y27735293D03*
%TO.P,U1,6,~{RESET}/PA0*%
%TO.N,Board_14-6*%
X58028750Y26465293D03*
%TO.P,U1,5,PA2*%
%TO.N,Board_14-5*%
X58028750Y25195293D03*
%TO.P,U1,4,PA1*%
%TO.N,Board_14-4*%
X53078750Y25195293D03*
%TO.P,U1,3,PA7*%
%TO.N,Board_14-3*%
X53078750Y26465293D03*
%TO.P,U1,2,PA6*%
%TO.N,Board_14-2*%
X53078750Y27735293D03*
%TO.P,U1,1,VCC*%
%TO.N,Board_14-1*%
X53078750Y29005293D03*
%TD*%
D16*
%TO.P,LED2,2,A*%
%TO.N,Board_13-1*%
X31553750Y32762793D03*
%TO.P,LED2,1,K*%
%TO.N,Board_13-Net-(D2-K)*%
X31553750Y34337793D03*
%TD*%
D14*
%TO.P,R1,2*%
%TO.N,Board_3-8*%
X82628750Y71400293D03*
%TO.P,R1,1*%
%TO.N,Board_3-Net-(D1-K)*%
X80978750Y71400293D03*
%TD*%
D15*
%TO.P,LED1,2,A*%
%TO.N,Board_3-3*%
X75091250Y71400293D03*
%TO.P,LED1,1,K*%
%TO.N,Board_3-Net-(D1-K)*%
X73516250Y71400293D03*
%TD*%
D11*
%TO.P,U1,8,GND*%
%TO.N,Board_4-8*%
X16028750Y61205293D03*
%TO.P,U1,7,PA3*%
%TO.N,Board_4-7*%
X16028750Y59935293D03*
%TO.P,U1,6,~{RESET}/PA0*%
%TO.N,Board_4-6*%
X16028750Y58665293D03*
%TO.P,U1,5,PA2*%
%TO.N,Board_4-5*%
X16028750Y57395293D03*
%TO.P,U1,4,PA1*%
%TO.N,Board_4-4*%
X11078750Y57395293D03*
%TO.P,U1,3,PA7*%
%TO.N,Board_4-3*%
X11078750Y58665293D03*
%TO.P,U1,2,PA6*%
%TO.N,Board_4-2*%
X11078750Y59935293D03*
%TO.P,U1,1,VCC*%
%TO.N,Board_4-1*%
X11078750Y61205293D03*
%TD*%
%TO.P,U1,8,GND*%
%TO.N,Board_1-8*%
X37028750Y77305293D03*
%TO.P,U1,7,PA3*%
%TO.N,Board_1-7*%
X37028750Y76035293D03*
%TO.P,U1,6,~{RESET}/PA0*%
%TO.N,Board_1-6*%
X37028750Y74765293D03*
%TO.P,U1,5,PA2*%
%TO.N,Board_1-5*%
X37028750Y73495293D03*
%TO.P,U1,4,PA1*%
%TO.N,Board_1-4*%
X32078750Y73495293D03*
%TO.P,U1,3,PA7*%
%TO.N,Board_1-3*%
X32078750Y74765293D03*
%TO.P,U1,2,PA6*%
%TO.N,Board_1-2*%
X32078750Y76035293D03*
%TO.P,U1,1,VCC*%
%TO.N,Board_1-1*%
X32078750Y77305293D03*
%TD*%
D10*
%TO.P,R2,2*%
%TO.N,Board_0-8*%
X13303750Y81075293D03*
%TO.P,R2,1*%
%TO.N,Board_0-Net-(D2-K)*%
X13303750Y82725293D03*
%TD*%
D11*
%TO.P,U1,8,GND*%
%TO.N,Board_3-8*%
X79028750Y77305293D03*
%TO.P,U1,7,PA3*%
%TO.N,Board_3-7*%
X79028750Y76035293D03*
%TO.P,U1,6,~{RESET}/PA0*%
%TO.N,Board_3-6*%
X79028750Y74765293D03*
%TO.P,U1,5,PA2*%
%TO.N,Board_3-5*%
X79028750Y73495293D03*
%TO.P,U1,4,PA1*%
%TO.N,Board_3-4*%
X74078750Y73495293D03*
%TO.P,U1,3,PA7*%
%TO.N,Board_3-3*%
X74078750Y74765293D03*
%TO.P,U1,2,PA6*%
%TO.N,Board_3-2*%
X74078750Y76035293D03*
%TO.P,U1,1,VCC*%
%TO.N,Board_3-1*%
X74078750Y77305293D03*
%TD*%
D13*
%TO.P,D3,2,A*%
%TO.N,Board_9-UPDI_TX*%
X39753750Y50650293D03*
%TO.P,D3,1,K*%
%TO.N,Board_9-UPDI_RX*%
X39753750Y47850293D03*
%TD*%
%TO.P,D3,2,A*%
%TO.N,Board_0-UPDI_TX*%
X18753750Y82850293D03*
%TO.P,D3,1,K*%
%TO.N,Board_0-UPDI_RX*%
X18753750Y80050293D03*
%TD*%
D16*
%TO.P,LED2,2,A*%
%TO.N,Board_3-1*%
X73553750Y81062793D03*
%TO.P,LED2,1,K*%
%TO.N,Board_3-Net-(D2-K)*%
X73553750Y82637793D03*
%TD*%
D11*
%TO.P,U1,8,GND*%
%TO.N,Board_6-8*%
X58028750Y61205293D03*
%TO.P,U1,7,PA3*%
%TO.N,Board_6-7*%
X58028750Y59935293D03*
%TO.P,U1,6,~{RESET}/PA0*%
%TO.N,Board_6-6*%
X58028750Y58665293D03*
%TO.P,U1,5,PA2*%
%TO.N,Board_6-5*%
X58028750Y57395293D03*
%TO.P,U1,4,PA1*%
%TO.N,Board_6-4*%
X53078750Y57395293D03*
%TO.P,U1,3,PA7*%
%TO.N,Board_6-3*%
X53078750Y58665293D03*
%TO.P,U1,2,PA6*%
%TO.N,Board_6-2*%
X53078750Y59935293D03*
%TO.P,U1,1,VCC*%
%TO.N,Board_6-1*%
X53078750Y61205293D03*
%TD*%
D12*
%TO.P,470,2*%
%TO.N,Board_12-UPDI_RX*%
X16153750Y33575293D03*
%TO.P,470,1*%
%TO.N,Board_12-6*%
X16153750Y31925293D03*
%TD*%
D10*
%TO.P,R2,2*%
%TO.N,Board_16-8*%
X13303750Y16675293D03*
%TO.P,R2,1*%
%TO.N,Board_16-Net-(D2-K)*%
X13303750Y18325293D03*
%TD*%
%TO.P,R2,2*%
%TO.N,Board_5-8*%
X34303750Y64975293D03*
%TO.P,R2,1*%
%TO.N,Board_5-Net-(D2-K)*%
X34303750Y66625293D03*
%TD*%
%TO.P,R2,2*%
%TO.N,Board_1-8*%
X34303750Y81075293D03*
%TO.P,R2,1*%
%TO.N,Board_1-Net-(D2-K)*%
X34303750Y82725293D03*
%TD*%
D11*
%TO.P,U1,8,GND*%
%TO.N,Board_15-8*%
X79028750Y29005293D03*
%TO.P,U1,7,PA3*%
%TO.N,Board_15-7*%
X79028750Y27735293D03*
%TO.P,U1,6,~{RESET}/PA0*%
%TO.N,Board_15-6*%
X79028750Y26465293D03*
%TO.P,U1,5,PA2*%
%TO.N,Board_15-5*%
X79028750Y25195293D03*
%TO.P,U1,4,PA1*%
%TO.N,Board_15-4*%
X74078750Y25195293D03*
%TO.P,U1,3,PA7*%
%TO.N,Board_15-3*%
X74078750Y26465293D03*
%TO.P,U1,2,PA6*%
%TO.N,Board_15-2*%
X74078750Y27735293D03*
%TO.P,U1,1,VCC*%
%TO.N,Board_15-1*%
X74078750Y29005293D03*
%TD*%
D16*
%TO.P,LED2,2,A*%
%TO.N,Board_9-1*%
X31553750Y48862793D03*
%TO.P,LED2,1,K*%
%TO.N,Board_9-Net-(D2-K)*%
X31553750Y50437793D03*
%TD*%
D14*
%TO.P,R1,2*%
%TO.N,Board_4-8*%
X19628750Y55300293D03*
%TO.P,R1,1*%
%TO.N,Board_4-Net-(D1-K)*%
X17978750Y55300293D03*
%TD*%
D11*
%TO.P,U1,8,GND*%
%TO.N,Board_17-8*%
X37028750Y12905293D03*
%TO.P,U1,7,PA3*%
%TO.N,Board_17-7*%
X37028750Y11635293D03*
%TO.P,U1,6,~{RESET}/PA0*%
%TO.N,Board_17-6*%
X37028750Y10365293D03*
%TO.P,U1,5,PA2*%
%TO.N,Board_17-5*%
X37028750Y9095293D03*
%TO.P,U1,4,PA1*%
%TO.N,Board_17-4*%
X32078750Y9095293D03*
%TO.P,U1,3,PA7*%
%TO.N,Board_17-3*%
X32078750Y10365293D03*
%TO.P,U1,2,PA6*%
%TO.N,Board_17-2*%
X32078750Y11635293D03*
%TO.P,U1,1,VCC*%
%TO.N,Board_17-1*%
X32078750Y12905293D03*
%TD*%
D12*
%TO.P,470,2*%
%TO.N,Board_5-UPDI_RX*%
X37153750Y65775293D03*
%TO.P,470,1*%
%TO.N,Board_5-6*%
X37153750Y64125293D03*
%TD*%
D15*
%TO.P,LED1,2,A*%
%TO.N,Board_17-3*%
X33091250Y7000293D03*
%TO.P,LED1,1,K*%
%TO.N,Board_17-Net-(D1-K)*%
X31516250Y7000293D03*
%TD*%
D12*
%TO.P,470,2*%
%TO.N,Board_3-UPDI_RX*%
X79153750Y81875293D03*
%TO.P,470,1*%
%TO.N,Board_3-6*%
X79153750Y80225293D03*
%TD*%
D10*
%TO.P,R2,2*%
%TO.N,Board_9-8*%
X34303750Y48875293D03*
%TO.P,R2,1*%
%TO.N,Board_9-Net-(D2-K)*%
X34303750Y50525293D03*
%TD*%
D12*
%TO.P,470,2*%
%TO.N,Board_17-UPDI_RX*%
X37153750Y17475293D03*
%TO.P,470,1*%
%TO.N,Board_17-6*%
X37153750Y15825293D03*
%TD*%
%TO.P,470,2*%
%TO.N,Board_11-UPDI_RX*%
X79153750Y49675293D03*
%TO.P,470,1*%
%TO.N,Board_11-6*%
X79153750Y48025293D03*
%TD*%
D16*
%TO.P,LED2,2,A*%
%TO.N,Board_14-1*%
X52553750Y32762793D03*
%TO.P,LED2,1,K*%
%TO.N,Board_14-Net-(D2-K)*%
X52553750Y34337793D03*
%TD*%
D10*
%TO.P,R2,2*%
%TO.N,Board_12-8*%
X13303750Y32775293D03*
%TO.P,R2,1*%
%TO.N,Board_12-Net-(D2-K)*%
X13303750Y34425293D03*
%TD*%
D15*
%TO.P,LED1,2,A*%
%TO.N,Board_19-3*%
X75091250Y7000293D03*
%TO.P,LED1,1,K*%
%TO.N,Board_19-Net-(D1-K)*%
X73516250Y7000293D03*
%TD*%
D12*
%TO.P,470,2*%
%TO.N,Board_15-UPDI_RX*%
X79153750Y33575293D03*
%TO.P,470,1*%
%TO.N,Board_15-6*%
X79153750Y31925293D03*
%TD*%
D15*
%TO.P,LED1,2,A*%
%TO.N,Board_8-3*%
X12091250Y39200293D03*
%TO.P,LED1,1,K*%
%TO.N,Board_8-Net-(D1-K)*%
X10516250Y39200293D03*
%TD*%
%TO.P,LED1,2,A*%
%TO.N,Board_11-3*%
X75091250Y39200293D03*
%TO.P,LED1,1,K*%
%TO.N,Board_11-Net-(D1-K)*%
X73516250Y39200293D03*
%TD*%
D14*
%TO.P,R1,2*%
%TO.N,Board_2-8*%
X61628750Y71400293D03*
%TO.P,R1,1*%
%TO.N,Board_2-Net-(D1-K)*%
X59978750Y71400293D03*
%TD*%
D13*
%TO.P,D3,2,A*%
%TO.N,Board_10-UPDI_TX*%
X60753750Y50650293D03*
%TO.P,D3,1,K*%
%TO.N,Board_10-UPDI_RX*%
X60753750Y47850293D03*
%TD*%
D15*
%TO.P,LED1,2,A*%
%TO.N,Board_18-3*%
X54091250Y7000293D03*
%TO.P,LED1,1,K*%
%TO.N,Board_18-Net-(D1-K)*%
X52516250Y7000293D03*
%TD*%
D14*
%TO.P,R1,2*%
%TO.N,Board_8-8*%
X19628750Y39200293D03*
%TO.P,R1,1*%
%TO.N,Board_8-Net-(D1-K)*%
X17978750Y39200293D03*
%TD*%
D11*
%TO.P,U1,8,GND*%
%TO.N,Board_13-8*%
X37028750Y29005293D03*
%TO.P,U1,7,PA3*%
%TO.N,Board_13-7*%
X37028750Y27735293D03*
%TO.P,U1,6,~{RESET}/PA0*%
%TO.N,Board_13-6*%
X37028750Y26465293D03*
%TO.P,U1,5,PA2*%
%TO.N,Board_13-5*%
X37028750Y25195293D03*
%TO.P,U1,4,PA1*%
%TO.N,Board_13-4*%
X32078750Y25195293D03*
%TO.P,U1,3,PA7*%
%TO.N,Board_13-3*%
X32078750Y26465293D03*
%TO.P,U1,2,PA6*%
%TO.N,Board_13-2*%
X32078750Y27735293D03*
%TO.P,U1,1,VCC*%
%TO.N,Board_13-1*%
X32078750Y29005293D03*
%TD*%
D12*
%TO.P,470,2*%
%TO.N,Board_6-UPDI_RX*%
X58153750Y65775293D03*
%TO.P,470,1*%
%TO.N,Board_6-6*%
X58153750Y64125293D03*
%TD*%
D13*
%TO.P,D3,2,A*%
%TO.N,Board_4-UPDI_TX*%
X18753750Y66750293D03*
%TO.P,D3,1,K*%
%TO.N,Board_4-UPDI_RX*%
X18753750Y63950293D03*
%TD*%
D16*
%TO.P,LED2,2,A*%
%TO.N,Board_6-1*%
X52553750Y64962793D03*
%TO.P,LED2,1,K*%
%TO.N,Board_6-Net-(D2-K)*%
X52553750Y66537793D03*
%TD*%
D15*
%TO.P,LED1,2,A*%
%TO.N,Board_4-3*%
X12091250Y55300293D03*
%TO.P,LED1,1,K*%
%TO.N,Board_4-Net-(D1-K)*%
X10516250Y55300293D03*
%TD*%
%TO.P,LED1,2,A*%
%TO.N,Board_2-3*%
X54091250Y71400293D03*
%TO.P,LED1,1,K*%
%TO.N,Board_2-Net-(D1-K)*%
X52516250Y71400293D03*
%TD*%
%TO.P,LED1,2,A*%
%TO.N,Board_6-3*%
X54091250Y55300293D03*
%TO.P,LED1,1,K*%
%TO.N,Board_6-Net-(D1-K)*%
X52516250Y55300293D03*
%TD*%
D12*
%TO.P,470,2*%
%TO.N,Board_8-UPDI_RX*%
X16153750Y49675293D03*
%TO.P,470,1*%
%TO.N,Board_8-6*%
X16153750Y48025293D03*
%TD*%
D14*
%TO.P,R1,2*%
%TO.N,Board_16-8*%
X19628750Y7000293D03*
%TO.P,R1,1*%
%TO.N,Board_16-Net-(D1-K)*%
X17978750Y7000293D03*
%TD*%
D13*
%TO.P,D3,2,A*%
%TO.N,Board_11-UPDI_TX*%
X81753750Y50650293D03*
%TO.P,D3,1,K*%
%TO.N,Board_11-UPDI_RX*%
X81753750Y47850293D03*
%TD*%
D14*
%TO.P,R1,2*%
%TO.N,Board_13-8*%
X40628750Y23100293D03*
%TO.P,R1,1*%
%TO.N,Board_13-Net-(D1-K)*%
X38978750Y23100293D03*
%TD*%
D11*
%TO.P,U1,8,GND*%
%TO.N,Board_10-8*%
X58028750Y45105293D03*
%TO.P,U1,7,PA3*%
%TO.N,Board_10-7*%
X58028750Y43835293D03*
%TO.P,U1,6,~{RESET}/PA0*%
%TO.N,Board_10-6*%
X58028750Y42565293D03*
%TO.P,U1,5,PA2*%
%TO.N,Board_10-5*%
X58028750Y41295293D03*
%TO.P,U1,4,PA1*%
%TO.N,Board_10-4*%
X53078750Y41295293D03*
%TO.P,U1,3,PA7*%
%TO.N,Board_10-3*%
X53078750Y42565293D03*
%TO.P,U1,2,PA6*%
%TO.N,Board_10-2*%
X53078750Y43835293D03*
%TO.P,U1,1,VCC*%
%TO.N,Board_10-1*%
X53078750Y45105293D03*
%TD*%
D12*
%TO.P,470,2*%
%TO.N,Board_0-UPDI_RX*%
X16153750Y81875293D03*
%TO.P,470,1*%
%TO.N,Board_0-6*%
X16153750Y80225293D03*
%TD*%
%TO.P,470,2*%
%TO.N,Board_10-UPDI_RX*%
X58153750Y49675293D03*
%TO.P,470,1*%
%TO.N,Board_10-6*%
X58153750Y48025293D03*
%TD*%
D10*
%TO.P,R2,2*%
%TO.N,Board_4-8*%
X13303750Y64975293D03*
%TO.P,R2,1*%
%TO.N,Board_4-Net-(D2-K)*%
X13303750Y66625293D03*
%TD*%
D16*
%TO.P,LED2,2,A*%
%TO.N,Board_19-1*%
X73553750Y16662793D03*
%TO.P,LED2,1,K*%
%TO.N,Board_19-Net-(D2-K)*%
X73553750Y18237793D03*
%TD*%
%TO.P,LED2,2,A*%
%TO.N,Board_5-1*%
X31553750Y64962793D03*
%TO.P,LED2,1,K*%
%TO.N,Board_5-Net-(D2-K)*%
X31553750Y66537793D03*
%TD*%
D15*
%TO.P,LED1,2,A*%
%TO.N,Board_16-3*%
X12091250Y7000293D03*
%TO.P,LED1,1,K*%
%TO.N,Board_16-Net-(D1-K)*%
X10516250Y7000293D03*
%TD*%
D16*
%TO.P,LED2,2,A*%
%TO.N,Board_2-1*%
X52553750Y81062793D03*
%TO.P,LED2,1,K*%
%TO.N,Board_2-Net-(D2-K)*%
X52553750Y82637793D03*
%TD*%
D14*
%TO.P,R1,2*%
%TO.N,Board_19-8*%
X82628750Y7000293D03*
%TO.P,R1,1*%
%TO.N,Board_19-Net-(D1-K)*%
X80978750Y7000293D03*
%TD*%
D15*
%TO.P,LED1,2,A*%
%TO.N,Board_12-3*%
X12091250Y23100293D03*
%TO.P,LED1,1,K*%
%TO.N,Board_12-Net-(D1-K)*%
X10516250Y23100293D03*
%TD*%
D14*
%TO.P,R1,2*%
%TO.N,Board_14-8*%
X61628750Y23100293D03*
%TO.P,R1,1*%
%TO.N,Board_14-Net-(D1-K)*%
X59978750Y23100293D03*
%TD*%
D13*
%TO.P,D3,2,A*%
%TO.N,Board_7-UPDI_TX*%
X81753750Y66750293D03*
%TO.P,D3,1,K*%
%TO.N,Board_7-UPDI_RX*%
X81753750Y63950293D03*
%TD*%
D10*
%TO.P,R2,2*%
%TO.N,Board_19-8*%
X76303750Y16675293D03*
%TO.P,R2,1*%
%TO.N,Board_19-Net-(D2-K)*%
X76303750Y18325293D03*
%TD*%
D17*
%TO.P,J1,5,Pin_5*%
%TO.N,Board_17-7*%
X28303750Y7590293D03*
%TO.P,J1,4,Pin_4*%
%TO.N,Board_17-5*%
X28303750Y10130293D03*
%TO.P,J1,3,Pin_3*%
%TO.N,Board_17-4*%
X28303750Y12670293D03*
%TO.P,J1,2,Pin_2*%
%TO.N,Board_17-3*%
X28303750Y15210293D03*
D18*
%TO.P,J1,1,Pin_1*%
%TO.N,Board_17-2*%
X28303750Y17750293D03*
%TD*%
D17*
%TO.P,J2,5,Pin_5*%
%TO.N,Board_8-6*%
X22353750Y39790293D03*
%TO.P,J2,4,Pin_4*%
%TO.N,Board_8-1*%
X22353750Y42330293D03*
%TO.P,J2,3,Pin_3*%
%TO.N,Board_8-UPDI_RX*%
X22353750Y44870293D03*
%TO.P,J2,2,Pin_2*%
%TO.N,Board_8-UPDI_TX*%
X22353750Y47410293D03*
D18*
%TO.P,J2,1,Pin_1*%
%TO.N,Board_8-8*%
X22353750Y49950293D03*
%TD*%
D17*
%TO.P,J1,5,Pin_5*%
%TO.N,Board_7-7*%
X70303750Y55890293D03*
%TO.P,J1,4,Pin_4*%
%TO.N,Board_7-5*%
X70303750Y58430293D03*
%TO.P,J1,3,Pin_3*%
%TO.N,Board_7-4*%
X70303750Y60970293D03*
%TO.P,J1,2,Pin_2*%
%TO.N,Board_7-3*%
X70303750Y63510293D03*
D18*
%TO.P,J1,1,Pin_1*%
%TO.N,Board_7-2*%
X70303750Y66050293D03*
%TD*%
D17*
%TO.P,J2,5,Pin_5*%
%TO.N,Board_1-6*%
X43353750Y71990293D03*
%TO.P,J2,4,Pin_4*%
%TO.N,Board_1-1*%
X43353750Y74530293D03*
%TO.P,J2,3,Pin_3*%
%TO.N,Board_1-UPDI_RX*%
X43353750Y77070293D03*
%TO.P,J2,2,Pin_2*%
%TO.N,Board_1-UPDI_TX*%
X43353750Y79610293D03*
D18*
%TO.P,J2,1,Pin_1*%
%TO.N,Board_1-8*%
X43353750Y82150293D03*
%TD*%
D17*
%TO.P,J2,5,Pin_5*%
%TO.N,Board_5-6*%
X43353750Y55890293D03*
%TO.P,J2,4,Pin_4*%
%TO.N,Board_5-1*%
X43353750Y58430293D03*
%TO.P,J2,3,Pin_3*%
%TO.N,Board_5-UPDI_RX*%
X43353750Y60970293D03*
%TO.P,J2,2,Pin_2*%
%TO.N,Board_5-UPDI_TX*%
X43353750Y63510293D03*
D18*
%TO.P,J2,1,Pin_1*%
%TO.N,Board_5-8*%
X43353750Y66050293D03*
%TD*%
D17*
%TO.P,J1,5,Pin_5*%
%TO.N,Board_1-7*%
X28303750Y71990293D03*
%TO.P,J1,4,Pin_4*%
%TO.N,Board_1-5*%
X28303750Y74530293D03*
%TO.P,J1,3,Pin_3*%
%TO.N,Board_1-4*%
X28303750Y77070293D03*
%TO.P,J1,2,Pin_2*%
%TO.N,Board_1-3*%
X28303750Y79610293D03*
D18*
%TO.P,J1,1,Pin_1*%
%TO.N,Board_1-2*%
X28303750Y82150293D03*
%TD*%
D17*
%TO.P,J1,5,Pin_5*%
%TO.N,Board_14-7*%
X49303750Y23690293D03*
%TO.P,J1,4,Pin_4*%
%TO.N,Board_14-5*%
X49303750Y26230293D03*
%TO.P,J1,3,Pin_3*%
%TO.N,Board_14-4*%
X49303750Y28770293D03*
%TO.P,J1,2,Pin_2*%
%TO.N,Board_14-3*%
X49303750Y31310293D03*
D18*
%TO.P,J1,1,Pin_1*%
%TO.N,Board_14-2*%
X49303750Y33850293D03*
%TD*%
D17*
%TO.P,J1,5,Pin_5*%
%TO.N,Board_12-7*%
X7303750Y23690293D03*
%TO.P,J1,4,Pin_4*%
%TO.N,Board_12-5*%
X7303750Y26230293D03*
%TO.P,J1,3,Pin_3*%
%TO.N,Board_12-4*%
X7303750Y28770293D03*
%TO.P,J1,2,Pin_2*%
%TO.N,Board_12-3*%
X7303750Y31310293D03*
D18*
%TO.P,J1,1,Pin_1*%
%TO.N,Board_12-2*%
X7303750Y33850293D03*
%TD*%
D17*
%TO.P,J2,5,Pin_5*%
%TO.N,Board_6-6*%
X64353750Y55890293D03*
%TO.P,J2,4,Pin_4*%
%TO.N,Board_6-1*%
X64353750Y58430293D03*
%TO.P,J2,3,Pin_3*%
%TO.N,Board_6-UPDI_RX*%
X64353750Y60970293D03*
%TO.P,J2,2,Pin_2*%
%TO.N,Board_6-UPDI_TX*%
X64353750Y63510293D03*
D18*
%TO.P,J2,1,Pin_1*%
%TO.N,Board_6-8*%
X64353750Y66050293D03*
%TD*%
D17*
%TO.P,J2,5,Pin_5*%
%TO.N,Board_3-6*%
X85353750Y71990293D03*
%TO.P,J2,4,Pin_4*%
%TO.N,Board_3-1*%
X85353750Y74530293D03*
%TO.P,J2,3,Pin_3*%
%TO.N,Board_3-UPDI_RX*%
X85353750Y77070293D03*
%TO.P,J2,2,Pin_2*%
%TO.N,Board_3-UPDI_TX*%
X85353750Y79610293D03*
D18*
%TO.P,J2,1,Pin_1*%
%TO.N,Board_3-8*%
X85353750Y82150293D03*
%TD*%
D17*
%TO.P,J1,5,Pin_5*%
%TO.N,Board_16-7*%
X7303750Y7590293D03*
%TO.P,J1,4,Pin_4*%
%TO.N,Board_16-5*%
X7303750Y10130293D03*
%TO.P,J1,3,Pin_3*%
%TO.N,Board_16-4*%
X7303750Y12670293D03*
%TO.P,J1,2,Pin_2*%
%TO.N,Board_16-3*%
X7303750Y15210293D03*
D18*
%TO.P,J1,1,Pin_1*%
%TO.N,Board_16-2*%
X7303750Y17750293D03*
%TD*%
D17*
%TO.P,J2,5,Pin_5*%
%TO.N,Board_15-6*%
X85353750Y23690293D03*
%TO.P,J2,4,Pin_4*%
%TO.N,Board_15-1*%
X85353750Y26230293D03*
%TO.P,J2,3,Pin_3*%
%TO.N,Board_15-UPDI_RX*%
X85353750Y28770293D03*
%TO.P,J2,2,Pin_2*%
%TO.N,Board_15-UPDI_TX*%
X85353750Y31310293D03*
D18*
%TO.P,J2,1,Pin_1*%
%TO.N,Board_15-8*%
X85353750Y33850293D03*
%TD*%
D17*
%TO.P,J2,5,Pin_5*%
%TO.N,Board_7-6*%
X85353750Y55890293D03*
%TO.P,J2,4,Pin_4*%
%TO.N,Board_7-1*%
X85353750Y58430293D03*
%TO.P,J2,3,Pin_3*%
%TO.N,Board_7-UPDI_RX*%
X85353750Y60970293D03*
%TO.P,J2,2,Pin_2*%
%TO.N,Board_7-UPDI_TX*%
X85353750Y63510293D03*
D18*
%TO.P,J2,1,Pin_1*%
%TO.N,Board_7-8*%
X85353750Y66050293D03*
%TD*%
D17*
%TO.P,J2,5,Pin_5*%
%TO.N,Board_4-6*%
X22353750Y55890293D03*
%TO.P,J2,4,Pin_4*%
%TO.N,Board_4-1*%
X22353750Y58430293D03*
%TO.P,J2,3,Pin_3*%
%TO.N,Board_4-UPDI_RX*%
X22353750Y60970293D03*
%TO.P,J2,2,Pin_2*%
%TO.N,Board_4-UPDI_TX*%
X22353750Y63510293D03*
D18*
%TO.P,J2,1,Pin_1*%
%TO.N,Board_4-8*%
X22353750Y66050293D03*
%TD*%
D17*
%TO.P,J2,5,Pin_5*%
%TO.N,Board_16-6*%
X22353750Y7590293D03*
%TO.P,J2,4,Pin_4*%
%TO.N,Board_16-1*%
X22353750Y10130293D03*
%TO.P,J2,3,Pin_3*%
%TO.N,Board_16-UPDI_RX*%
X22353750Y12670293D03*
%TO.P,J2,2,Pin_2*%
%TO.N,Board_16-UPDI_TX*%
X22353750Y15210293D03*
D18*
%TO.P,J2,1,Pin_1*%
%TO.N,Board_16-8*%
X22353750Y17750293D03*
%TD*%
D17*
%TO.P,J1,5,Pin_5*%
%TO.N,Board_8-7*%
X7303750Y39790293D03*
%TO.P,J1,4,Pin_4*%
%TO.N,Board_8-5*%
X7303750Y42330293D03*
%TO.P,J1,3,Pin_3*%
%TO.N,Board_8-4*%
X7303750Y44870293D03*
%TO.P,J1,2,Pin_2*%
%TO.N,Board_8-3*%
X7303750Y47410293D03*
D18*
%TO.P,J1,1,Pin_1*%
%TO.N,Board_8-2*%
X7303750Y49950293D03*
%TD*%
D17*
%TO.P,J1,5,Pin_5*%
%TO.N,Board_11-7*%
X70303750Y39790293D03*
%TO.P,J1,4,Pin_4*%
%TO.N,Board_11-5*%
X70303750Y42330293D03*
%TO.P,J1,3,Pin_3*%
%TO.N,Board_11-4*%
X70303750Y44870293D03*
%TO.P,J1,2,Pin_2*%
%TO.N,Board_11-3*%
X70303750Y47410293D03*
D18*
%TO.P,J1,1,Pin_1*%
%TO.N,Board_11-2*%
X70303750Y49950293D03*
%TD*%
D17*
%TO.P,J2,5,Pin_5*%
%TO.N,Board_11-6*%
X85353750Y39790293D03*
%TO.P,J2,4,Pin_4*%
%TO.N,Board_11-1*%
X85353750Y42330293D03*
%TO.P,J2,3,Pin_3*%
%TO.N,Board_11-UPDI_RX*%
X85353750Y44870293D03*
%TO.P,J2,2,Pin_2*%
%TO.N,Board_11-UPDI_TX*%
X85353750Y47410293D03*
D18*
%TO.P,J2,1,Pin_1*%
%TO.N,Board_11-8*%
X85353750Y49950293D03*
%TD*%
D17*
%TO.P,J1,5,Pin_5*%
%TO.N,Board_0-7*%
X7303750Y71990293D03*
%TO.P,J1,4,Pin_4*%
%TO.N,Board_0-5*%
X7303750Y74530293D03*
%TO.P,J1,3,Pin_3*%
%TO.N,Board_0-4*%
X7303750Y77070293D03*
%TO.P,J1,2,Pin_2*%
%TO.N,Board_0-3*%
X7303750Y79610293D03*
D18*
%TO.P,J1,1,Pin_1*%
%TO.N,Board_0-2*%
X7303750Y82150293D03*
%TD*%
D17*
%TO.P,J2,5,Pin_5*%
%TO.N,Board_18-6*%
X64353750Y7590293D03*
%TO.P,J2,4,Pin_4*%
%TO.N,Board_18-1*%
X64353750Y10130293D03*
%TO.P,J2,3,Pin_3*%
%TO.N,Board_18-UPDI_RX*%
X64353750Y12670293D03*
%TO.P,J2,2,Pin_2*%
%TO.N,Board_18-UPDI_TX*%
X64353750Y15210293D03*
D18*
%TO.P,J2,1,Pin_1*%
%TO.N,Board_18-8*%
X64353750Y17750293D03*
%TD*%
D17*
%TO.P,J1,5,Pin_5*%
%TO.N,Board_10-7*%
X49303750Y39790293D03*
%TO.P,J1,4,Pin_4*%
%TO.N,Board_10-5*%
X49303750Y42330293D03*
%TO.P,J1,3,Pin_3*%
%TO.N,Board_10-4*%
X49303750Y44870293D03*
%TO.P,J1,2,Pin_2*%
%TO.N,Board_10-3*%
X49303750Y47410293D03*
D18*
%TO.P,J1,1,Pin_1*%
%TO.N,Board_10-2*%
X49303750Y49950293D03*
%TD*%
D17*
%TO.P,J2,5,Pin_5*%
%TO.N,Board_14-6*%
X64353750Y23690293D03*
%TO.P,J2,4,Pin_4*%
%TO.N,Board_14-1*%
X64353750Y26230293D03*
%TO.P,J2,3,Pin_3*%
%TO.N,Board_14-UPDI_RX*%
X64353750Y28770293D03*
%TO.P,J2,2,Pin_2*%
%TO.N,Board_14-UPDI_TX*%
X64353750Y31310293D03*
D18*
%TO.P,J2,1,Pin_1*%
%TO.N,Board_14-8*%
X64353750Y33850293D03*
%TD*%
D17*
%TO.P,J2,5,Pin_5*%
%TO.N,Board_10-6*%
X64353750Y39790293D03*
%TO.P,J2,4,Pin_4*%
%TO.N,Board_10-1*%
X64353750Y42330293D03*
%TO.P,J2,3,Pin_3*%
%TO.N,Board_10-UPDI_RX*%
X64353750Y44870293D03*
%TO.P,J2,2,Pin_2*%
%TO.N,Board_10-UPDI_TX*%
X64353750Y47410293D03*
D18*
%TO.P,J2,1,Pin_1*%
%TO.N,Board_10-8*%
X64353750Y49950293D03*
%TD*%
D17*
%TO.P,J1,5,Pin_5*%
%TO.N,Board_19-7*%
X70303750Y7590293D03*
%TO.P,J1,4,Pin_4*%
%TO.N,Board_19-5*%
X70303750Y10130293D03*
%TO.P,J1,3,Pin_3*%
%TO.N,Board_19-4*%
X70303750Y12670293D03*
%TO.P,J1,2,Pin_2*%
%TO.N,Board_19-3*%
X70303750Y15210293D03*
D18*
%TO.P,J1,1,Pin_1*%
%TO.N,Board_19-2*%
X70303750Y17750293D03*
%TD*%
D17*
%TO.P,J2,5,Pin_5*%
%TO.N,Board_13-6*%
X43353750Y23690293D03*
%TO.P,J2,4,Pin_4*%
%TO.N,Board_13-1*%
X43353750Y26230293D03*
%TO.P,J2,3,Pin_3*%
%TO.N,Board_13-UPDI_RX*%
X43353750Y28770293D03*
%TO.P,J2,2,Pin_2*%
%TO.N,Board_13-UPDI_TX*%
X43353750Y31310293D03*
D18*
%TO.P,J2,1,Pin_1*%
%TO.N,Board_13-8*%
X43353750Y33850293D03*
%TD*%
D17*
%TO.P,J1,5,Pin_5*%
%TO.N,Board_18-7*%
X49303750Y7590293D03*
%TO.P,J1,4,Pin_4*%
%TO.N,Board_18-5*%
X49303750Y10130293D03*
%TO.P,J1,3,Pin_3*%
%TO.N,Board_18-4*%
X49303750Y12670293D03*
%TO.P,J1,2,Pin_2*%
%TO.N,Board_18-3*%
X49303750Y15210293D03*
D18*
%TO.P,J1,1,Pin_1*%
%TO.N,Board_18-2*%
X49303750Y17750293D03*
%TD*%
D17*
%TO.P,J2,5,Pin_5*%
%TO.N,Board_12-6*%
X22353750Y23690293D03*
%TO.P,J2,4,Pin_4*%
%TO.N,Board_12-1*%
X22353750Y26230293D03*
%TO.P,J2,3,Pin_3*%
%TO.N,Board_12-UPDI_RX*%
X22353750Y28770293D03*
%TO.P,J2,2,Pin_2*%
%TO.N,Board_12-UPDI_TX*%
X22353750Y31310293D03*
D18*
%TO.P,J2,1,Pin_1*%
%TO.N,Board_12-8*%
X22353750Y33850293D03*
%TD*%
D17*
%TO.P,J1,5,Pin_5*%
%TO.N,Board_9-7*%
X28303750Y39790293D03*
%TO.P,J1,4,Pin_4*%
%TO.N,Board_9-5*%
X28303750Y42330293D03*
%TO.P,J1,3,Pin_3*%
%TO.N,Board_9-4*%
X28303750Y44870293D03*
%TO.P,J1,2,Pin_2*%
%TO.N,Board_9-3*%
X28303750Y47410293D03*
D18*
%TO.P,J1,1,Pin_1*%
%TO.N,Board_9-2*%
X28303750Y49950293D03*
%TD*%
D17*
%TO.P,J2,5,Pin_5*%
%TO.N,Board_19-6*%
X85353750Y7590293D03*
%TO.P,J2,4,Pin_4*%
%TO.N,Board_19-1*%
X85353750Y10130293D03*
%TO.P,J2,3,Pin_3*%
%TO.N,Board_19-UPDI_RX*%
X85353750Y12670293D03*
%TO.P,J2,2,Pin_2*%
%TO.N,Board_19-UPDI_TX*%
X85353750Y15210293D03*
D18*
%TO.P,J2,1,Pin_1*%
%TO.N,Board_19-8*%
X85353750Y17750293D03*
%TD*%
D17*
%TO.P,J1,5,Pin_5*%
%TO.N,Board_5-7*%
X28303750Y55890293D03*
%TO.P,J1,4,Pin_4*%
%TO.N,Board_5-5*%
X28303750Y58430293D03*
%TO.P,J1,3,Pin_3*%
%TO.N,Board_5-4*%
X28303750Y60970293D03*
%TO.P,J1,2,Pin_2*%
%TO.N,Board_5-3*%
X28303750Y63510293D03*
D18*
%TO.P,J1,1,Pin_1*%
%TO.N,Board_5-2*%
X28303750Y66050293D03*
%TD*%
D17*
%TO.P,J2,5,Pin_5*%
%TO.N,Board_0-6*%
X22353750Y71990293D03*
%TO.P,J2,4,Pin_4*%
%TO.N,Board_0-1*%
X22353750Y74530293D03*
%TO.P,J2,3,Pin_3*%
%TO.N,Board_0-UPDI_RX*%
X22353750Y77070293D03*
%TO.P,J2,2,Pin_2*%
%TO.N,Board_0-UPDI_TX*%
X22353750Y79610293D03*
D18*
%TO.P,J2,1,Pin_1*%
%TO.N,Board_0-8*%
X22353750Y82150293D03*
%TD*%
D17*
%TO.P,J1,5,Pin_5*%
%TO.N,Board_3-7*%
X70303750Y71990293D03*
%TO.P,J1,4,Pin_4*%
%TO.N,Board_3-5*%
X70303750Y74530293D03*
%TO.P,J1,3,Pin_3*%
%TO.N,Board_3-4*%
X70303750Y77070293D03*
%TO.P,J1,2,Pin_2*%
%TO.N,Board_3-3*%
X70303750Y79610293D03*
D18*
%TO.P,J1,1,Pin_1*%
%TO.N,Board_3-2*%
X70303750Y82150293D03*
%TD*%
D17*
%TO.P,J2,5,Pin_5*%
%TO.N,Board_17-6*%
X43353750Y7590293D03*
%TO.P,J2,4,Pin_4*%
%TO.N,Board_17-1*%
X43353750Y10130293D03*
%TO.P,J2,3,Pin_3*%
%TO.N,Board_17-UPDI_RX*%
X43353750Y12670293D03*
%TO.P,J2,2,Pin_2*%
%TO.N,Board_17-UPDI_TX*%
X43353750Y15210293D03*
D18*
%TO.P,J2,1,Pin_1*%
%TO.N,Board_17-8*%
X43353750Y17750293D03*
%TD*%
D17*
%TO.P,J1,5,Pin_5*%
%TO.N,Board_6-7*%
X49303750Y55890293D03*
%TO.P,J1,4,Pin_4*%
%TO.N,Board_6-5*%
X49303750Y58430293D03*
%TO.P,J1,3,Pin_3*%
%TO.N,Board_6-4*%
X49303750Y60970293D03*
%TO.P,J1,2,Pin_2*%
%TO.N,Board_6-3*%
X49303750Y63510293D03*
D18*
%TO.P,J1,1,Pin_1*%
%TO.N,Board_6-2*%
X49303750Y66050293D03*
%TD*%
D17*
%TO.P,J1,5,Pin_5*%
%TO.N,Board_4-7*%
X7303750Y55890293D03*
%TO.P,J1,4,Pin_4*%
%TO.N,Board_4-5*%
X7303750Y58430293D03*
%TO.P,J1,3,Pin_3*%
%TO.N,Board_4-4*%
X7303750Y60970293D03*
%TO.P,J1,2,Pin_2*%
%TO.N,Board_4-3*%
X7303750Y63510293D03*
D18*
%TO.P,J1,1,Pin_1*%
%TO.N,Board_4-2*%
X7303750Y66050293D03*
%TD*%
D17*
%TO.P,J1,5,Pin_5*%
%TO.N,Board_2-7*%
X49303750Y71990293D03*
%TO.P,J1,4,Pin_4*%
%TO.N,Board_2-5*%
X49303750Y74530293D03*
%TO.P,J1,3,Pin_3*%
%TO.N,Board_2-4*%
X49303750Y77070293D03*
%TO.P,J1,2,Pin_2*%
%TO.N,Board_2-3*%
X49303750Y79610293D03*
D18*
%TO.P,J1,1,Pin_1*%
%TO.N,Board_2-2*%
X49303750Y82150293D03*
%TD*%
D17*
%TO.P,J2,5,Pin_5*%
%TO.N,Board_2-6*%
X64353750Y71990293D03*
%TO.P,J2,4,Pin_4*%
%TO.N,Board_2-1*%
X64353750Y74530293D03*
%TO.P,J2,3,Pin_3*%
%TO.N,Board_2-UPDI_RX*%
X64353750Y77070293D03*
%TO.P,J2,2,Pin_2*%
%TO.N,Board_2-UPDI_TX*%
X64353750Y79610293D03*
D18*
%TO.P,J2,1,Pin_1*%
%TO.N,Board_2-8*%
X64353750Y82150293D03*
%TD*%
D17*
%TO.P,J1,5,Pin_5*%
%TO.N,Board_15-7*%
X70303750Y23690293D03*
%TO.P,J1,4,Pin_4*%
%TO.N,Board_15-5*%
X70303750Y26230293D03*
%TO.P,J1,3,Pin_3*%
%TO.N,Board_15-4*%
X70303750Y28770293D03*
%TO.P,J1,2,Pin_2*%
%TO.N,Board_15-3*%
X70303750Y31310293D03*
D18*
%TO.P,J1,1,Pin_1*%
%TO.N,Board_15-2*%
X70303750Y33850293D03*
%TD*%
D17*
%TO.P,J2,5,Pin_5*%
%TO.N,Board_9-6*%
X43353750Y39790293D03*
%TO.P,J2,4,Pin_4*%
%TO.N,Board_9-1*%
X43353750Y42330293D03*
%TO.P,J2,3,Pin_3*%
%TO.N,Board_9-UPDI_RX*%
X43353750Y44870293D03*
%TO.P,J2,2,Pin_2*%
%TO.N,Board_9-UPDI_TX*%
X43353750Y47410293D03*
D18*
%TO.P,J2,1,Pin_1*%
%TO.N,Board_9-8*%
X43353750Y49950293D03*
%TD*%
D17*
%TO.P,J1,5,Pin_5*%
%TO.N,Board_13-7*%
X28303750Y23690293D03*
%TO.P,J1,4,Pin_4*%
%TO.N,Board_13-5*%
X28303750Y26230293D03*
%TO.P,J1,3,Pin_3*%
%TO.N,Board_13-4*%
X28303750Y28770293D03*
%TO.P,J1,2,Pin_2*%
%TO.N,Board_13-3*%
X28303750Y31310293D03*
D18*
%TO.P,J1,1,Pin_1*%
%TO.N,Board_13-2*%
X28303750Y33850293D03*
%TD*%
D19*
%TO.N,Board_0-1*%
X19253750Y78150293D03*
X11653750Y78850293D03*
%TO.N,Board_0-5*%
X13953750Y75550293D03*
X12753750Y77350293D03*
X18453750Y74050293D03*
%TO.N,Board_0-7*%
X13553750Y73550293D03*
%TO.N,Board_0-8*%
X19653750Y72650293D03*
X17929250Y76450293D03*
%TO.N,Board_1-1*%
X32653750Y78850293D03*
X40253750Y78150293D03*
%TO.N,Board_1-5*%
X39453750Y74050293D03*
X33753750Y77350293D03*
X34953750Y75550293D03*
%TO.N,Board_1-7*%
X34553750Y73550293D03*
%TO.N,Board_1-8*%
X38929250Y76450293D03*
X40653750Y72650293D03*
%TO.N,Board_2-1*%
X61253750Y78150293D03*
X53653750Y78850293D03*
%TO.N,Board_2-5*%
X54753750Y77350293D03*
X55953750Y75550293D03*
X60453750Y74050293D03*
%TO.N,Board_2-7*%
X55553750Y73550293D03*
%TO.N,Board_2-8*%
X59929250Y76450293D03*
X61653750Y72650293D03*
%TO.N,Board_3-1*%
X82253750Y78150293D03*
X74653750Y78850293D03*
%TO.N,Board_3-5*%
X81453750Y74050293D03*
X76953750Y75550293D03*
X75753750Y77350293D03*
%TO.N,Board_3-7*%
X76553750Y73550293D03*
%TO.N,Board_3-8*%
X80929250Y76450293D03*
X82653750Y72650293D03*
%TO.N,Board_4-1*%
X19253750Y62050293D03*
X11653750Y62750293D03*
%TO.N,Board_4-5*%
X13953750Y59450293D03*
X12753750Y61250293D03*
X18453750Y57950293D03*
%TO.N,Board_4-7*%
X13553750Y57450293D03*
%TO.N,Board_4-8*%
X17929250Y60350293D03*
X19653750Y56550293D03*
%TO.N,Board_5-1*%
X32653750Y62750293D03*
X40253750Y62050293D03*
%TO.N,Board_5-5*%
X34953750Y59450293D03*
X33753750Y61250293D03*
X39453750Y57950293D03*
%TO.N,Board_5-7*%
X34553750Y57450293D03*
%TO.N,Board_5-8*%
X40653750Y56550293D03*
X38929250Y60350293D03*
%TO.N,Board_6-1*%
X53653750Y62750293D03*
X61253750Y62050293D03*
%TO.N,Board_6-5*%
X54753750Y61250293D03*
X60453750Y57950293D03*
X55953750Y59450293D03*
%TO.N,Board_6-7*%
X55553750Y57450293D03*
%TO.N,Board_6-8*%
X59929250Y60350293D03*
X61653750Y56550293D03*
%TO.N,Board_7-1*%
X74653750Y62750293D03*
X82253750Y62050293D03*
%TO.N,Board_7-5*%
X75753750Y61250293D03*
X76953750Y59450293D03*
X81453750Y57950293D03*
%TO.N,Board_7-7*%
X76553750Y57450293D03*
%TO.N,Board_7-8*%
X82653750Y56550293D03*
X80929250Y60350293D03*
%TO.N,Board_8-1*%
X19253750Y45950293D03*
X11653750Y46650293D03*
%TO.N,Board_8-5*%
X12753750Y45150293D03*
X13953750Y43350293D03*
X18453750Y41850293D03*
%TO.N,Board_8-7*%
X13553750Y41350293D03*
%TO.N,Board_8-8*%
X17929250Y44250293D03*
X19653750Y40450293D03*
%TO.N,Board_9-1*%
X32653750Y46650293D03*
X40253750Y45950293D03*
%TO.N,Board_9-5*%
X39453750Y41850293D03*
X33753750Y45150293D03*
X34953750Y43350293D03*
%TO.N,Board_9-7*%
X34553750Y41350293D03*
%TO.N,Board_9-8*%
X40653750Y40450293D03*
X38929250Y44250293D03*
%TO.N,Board_10-1*%
X61253750Y45950293D03*
X53653750Y46650293D03*
%TO.N,Board_10-5*%
X54753750Y45150293D03*
X60453750Y41850293D03*
X55953750Y43350293D03*
%TO.N,Board_10-7*%
X55553750Y41350293D03*
%TO.N,Board_10-8*%
X59929250Y44250293D03*
X61653750Y40450293D03*
%TO.N,Board_11-1*%
X74653750Y46650293D03*
X82253750Y45950293D03*
%TO.N,Board_11-5*%
X76953750Y43350293D03*
X81453750Y41850293D03*
X75753750Y45150293D03*
%TO.N,Board_11-7*%
X76553750Y41350293D03*
%TO.N,Board_11-8*%
X80929250Y44250293D03*
X82653750Y40450293D03*
%TO.N,Board_12-1*%
X11653750Y30550293D03*
X19253750Y29850293D03*
%TO.N,Board_12-5*%
X18453750Y25750293D03*
X12753750Y29050293D03*
X13953750Y27250293D03*
%TO.N,Board_12-7*%
X13553750Y25250293D03*
%TO.N,Board_12-8*%
X19653750Y24350293D03*
X17929250Y28150293D03*
%TO.N,Board_13-1*%
X32653750Y30550293D03*
X40253750Y29850293D03*
%TO.N,Board_13-5*%
X39453750Y25750293D03*
X33753750Y29050293D03*
X34953750Y27250293D03*
%TO.N,Board_13-7*%
X34553750Y25250293D03*
%TO.N,Board_13-8*%
X40653750Y24350293D03*
X38929250Y28150293D03*
%TO.N,Board_14-1*%
X61253750Y29850293D03*
X53653750Y30550293D03*
%TO.N,Board_14-5*%
X55953750Y27250293D03*
X54753750Y29050293D03*
X60453750Y25750293D03*
%TO.N,Board_14-7*%
X55553750Y25250293D03*
%TO.N,Board_14-8*%
X61653750Y24350293D03*
X59929250Y28150293D03*
%TO.N,Board_15-1*%
X74653750Y30550293D03*
X82253750Y29850293D03*
%TO.N,Board_15-5*%
X76953750Y27250293D03*
X81453750Y25750293D03*
X75753750Y29050293D03*
%TO.N,Board_15-7*%
X76553750Y25250293D03*
%TO.N,Board_15-8*%
X82653750Y24350293D03*
X80929250Y28150293D03*
%TO.N,Board_16-1*%
X11653750Y14450293D03*
X19253750Y13750293D03*
%TO.N,Board_16-5*%
X12753750Y12950293D03*
X13953750Y11150293D03*
X18453750Y9650293D03*
%TO.N,Board_16-7*%
X13553750Y9150293D03*
%TO.N,Board_16-8*%
X19653750Y8250293D03*
X17929250Y12050293D03*
%TO.N,Board_17-1*%
X32653750Y14450293D03*
X40253750Y13750293D03*
%TO.N,Board_17-5*%
X34953750Y11150293D03*
X39453750Y9650293D03*
X33753750Y12950293D03*
%TO.N,Board_17-7*%
X34553750Y9150293D03*
%TO.N,Board_17-8*%
X40653750Y8250293D03*
X38929250Y12050293D03*
%TO.N,Board_18-1*%
X61253750Y13750293D03*
X53653750Y14450293D03*
%TO.N,Board_18-5*%
X54753750Y12950293D03*
X55953750Y11150293D03*
X60453750Y9650293D03*
%TO.N,Board_18-7*%
X55553750Y9150293D03*
%TO.N,Board_18-8*%
X61653750Y8250293D03*
X59929250Y12050293D03*
%TO.N,Board_19-1*%
X74653750Y14450293D03*
X82253750Y13750293D03*
%TO.N,Board_19-5*%
X76953750Y11150293D03*
X81453750Y9650293D03*
X75753750Y12950293D03*
%TO.N,Board_19-7*%
X76553750Y9150293D03*
%TO.N,Board_19-8*%
X82653750Y8250293D03*
X80929250Y12050293D03*
%TD*%
D20*
%TO.N,Board_0-1*%
X10553750Y81062793D02*
X10553750Y79950293D01*
X19653750Y77230293D02*
X19653750Y77750293D01*
X10553750Y79950293D02*
X11653750Y78850293D01*
X22353750Y74530293D02*
X19653750Y77230293D01*
X19653750Y77750293D02*
X19253750Y78150293D01*
X11653750Y77880293D02*
X11396948Y77623491D01*
X19253750Y78150293D02*
X19253750Y78150293D01*
X11653750Y78850293D02*
X11653750Y77880293D01*
%TO.N,Board_0-2*%
X9153750Y79450293D02*
X9503750Y79100293D01*
X9153750Y80550293D02*
X9153750Y79450293D01*
X7303750Y82150293D02*
X7553750Y82150293D01*
X10103751Y76035293D02*
X11078750Y76035293D01*
X9503750Y76635294D02*
X10103751Y76035293D01*
X7553750Y82150293D02*
X9153750Y80550293D01*
X9503750Y79100293D02*
X9503750Y76635294D01*
%TO.N,Board_0-3*%
X12338750Y74765293D02*
X12753750Y74350293D01*
X10438750Y74765293D02*
X11078750Y74765293D01*
X12753750Y74350293D02*
X12753750Y72062793D01*
X12753750Y72062793D02*
X12091250Y71400293D01*
X9053750Y77935293D02*
X9053750Y76150293D01*
X11078750Y74765293D02*
X12338750Y74765293D01*
X9053750Y76150293D02*
X10438750Y74765293D01*
X7303750Y79685293D02*
X9053750Y77935293D01*
%TO.N,Board_0-4*%
X9353750Y75095293D02*
X9353750Y74245294D01*
X7303750Y77145293D02*
X9353750Y75095293D01*
X10103751Y73495293D02*
X11078750Y73495293D01*
X9353750Y74245294D02*
X10103751Y73495293D01*
%TO.N,Board_0-5*%
X18453750Y74050293D02*
X18453750Y73790674D01*
X12753750Y77350293D02*
X13953750Y76150293D01*
X18453750Y73790674D02*
X17788369Y73125293D01*
X16398750Y73125293D02*
X16028750Y73495293D01*
X13953750Y76150293D02*
X13953750Y75550293D01*
X17788369Y73125293D02*
X16398750Y73125293D01*
%TO.N,Board_0-6*%
X18993750Y75550293D02*
X22553750Y71990293D01*
X16053750Y80150293D02*
X18653750Y77550293D01*
X17853750Y75550293D02*
X18993750Y75550293D01*
X18653750Y77550293D02*
X18653750Y75550293D01*
X17853750Y75550293D02*
X17068750Y74765293D01*
X17068750Y74765293D02*
X16028750Y74765293D01*
%TO.N,Board_0-7*%
X13553750Y73941201D02*
X15647842Y76035293D01*
X15647842Y76035293D02*
X16028750Y76035293D01*
X13553750Y73550293D02*
X13553750Y73941201D01*
%TO.N,Board_0-8*%
X19628750Y71400293D02*
X19628750Y72625293D01*
X17929250Y76450293D02*
X17074250Y77305293D01*
X19628750Y72625293D02*
X19653750Y72650293D01*
X17074250Y77305293D02*
X16028750Y77305293D01*
X13303750Y80030293D02*
X16028750Y77305293D01*
X13303750Y81075293D02*
X13303750Y80030293D01*
%TO.N,Board_0-Net-(D1-K)*%
X17978750Y71375293D02*
X17153750Y70550293D01*
X11366250Y70550293D02*
X10516250Y71400293D01*
X17153750Y70550293D02*
X11366250Y70550293D01*
X17978750Y71400293D02*
X17978750Y71375293D01*
%TO.N,Board_0-Net-(D2-K)*%
X10303750Y82687793D02*
X13266250Y82687793D01*
X13266250Y82687793D02*
X13303750Y82725293D01*
%TO.N,Board_0-UPDI_RX*%
X18278750Y79850293D02*
X16053750Y82075293D01*
X22553750Y77070293D02*
X19773750Y79850293D01*
X19773750Y79850293D02*
X18803750Y79850293D01*
X18803750Y79850293D02*
X18278750Y79850293D01*
%TO.N,Board_0-UPDI_TX*%
X19513750Y82650293D02*
X22553750Y79610293D01*
X18803750Y82650293D02*
X19513750Y82650293D01*
%TO.N,Board_1-1*%
X32653750Y78850293D02*
X32653750Y77880293D01*
X40653750Y77230293D02*
X40653750Y77750293D01*
X31553750Y79950293D02*
X32653750Y78850293D01*
X32653750Y77880293D02*
X32396948Y77623491D01*
X43353750Y74530293D02*
X40653750Y77230293D01*
X40253750Y78150293D02*
X40253750Y78150293D01*
X40653750Y77750293D02*
X40253750Y78150293D01*
X31553750Y81062793D02*
X31553750Y79950293D01*
%TO.N,Board_1-2*%
X30503750Y79100293D02*
X30503750Y76635294D01*
X30153750Y79450293D02*
X30503750Y79100293D01*
X30503750Y76635294D02*
X31103751Y76035293D01*
X31103751Y76035293D02*
X32078750Y76035293D01*
X28303750Y82150293D02*
X28553750Y82150293D01*
X28553750Y82150293D02*
X30153750Y80550293D01*
X30153750Y80550293D02*
X30153750Y79450293D01*
%TO.N,Board_1-3*%
X30053750Y77935293D02*
X30053750Y76150293D01*
X33338750Y74765293D02*
X33753750Y74350293D01*
X33753750Y74350293D02*
X33753750Y72062793D01*
X30053750Y76150293D02*
X31438750Y74765293D01*
X33753750Y72062793D02*
X33091250Y71400293D01*
X28303750Y79685293D02*
X30053750Y77935293D01*
X31438750Y74765293D02*
X32078750Y74765293D01*
X32078750Y74765293D02*
X33338750Y74765293D01*
%TO.N,Board_1-4*%
X30353750Y74245294D02*
X31103751Y73495293D01*
X31103751Y73495293D02*
X32078750Y73495293D01*
X28303750Y77145293D02*
X30353750Y75095293D01*
X30353750Y75095293D02*
X30353750Y74245294D01*
%TO.N,Board_1-5*%
X39453750Y73790674D02*
X38788369Y73125293D01*
X39453750Y74050293D02*
X39453750Y73790674D01*
X34953750Y76150293D02*
X34953750Y75550293D01*
X37398750Y73125293D02*
X37028750Y73495293D01*
X33753750Y77350293D02*
X34953750Y76150293D01*
X38788369Y73125293D02*
X37398750Y73125293D01*
%TO.N,Board_1-6*%
X38853750Y75550293D02*
X39993750Y75550293D01*
X37053750Y80150293D02*
X39653750Y77550293D01*
X39653750Y77550293D02*
X39653750Y75550293D01*
X38853750Y75550293D02*
X38068750Y74765293D01*
X39993750Y75550293D02*
X43553750Y71990293D01*
X38068750Y74765293D02*
X37028750Y74765293D01*
%TO.N,Board_1-7*%
X34553750Y73941201D02*
X36647842Y76035293D01*
X36647842Y76035293D02*
X37028750Y76035293D01*
X34553750Y73550293D02*
X34553750Y73941201D01*
%TO.N,Board_1-8*%
X38074250Y77305293D02*
X37028750Y77305293D01*
X34303750Y81075293D02*
X34303750Y80030293D01*
X34303750Y80030293D02*
X37028750Y77305293D01*
X40628750Y72625293D02*
X40653750Y72650293D01*
X40628750Y71400293D02*
X40628750Y72625293D01*
X38929250Y76450293D02*
X38074250Y77305293D01*
%TO.N,Board_1-Net-(D1-K)*%
X32366250Y70550293D02*
X31516250Y71400293D01*
X38978750Y71375293D02*
X38153750Y70550293D01*
X38978750Y71400293D02*
X38978750Y71375293D01*
X38153750Y70550293D02*
X32366250Y70550293D01*
%TO.N,Board_1-Net-(D2-K)*%
X34266250Y82687793D02*
X34303750Y82725293D01*
X31303750Y82687793D02*
X34266250Y82687793D01*
%TO.N,Board_1-UPDI_RX*%
X40773750Y79850293D02*
X39803750Y79850293D01*
X39278750Y79850293D02*
X37053750Y82075293D01*
X43553750Y77070293D02*
X40773750Y79850293D01*
X39803750Y79850293D02*
X39278750Y79850293D01*
%TO.N,Board_1-UPDI_TX*%
X40513750Y82650293D02*
X43553750Y79610293D01*
X39803750Y82650293D02*
X40513750Y82650293D01*
%TO.N,Board_2-1*%
X53653750Y77880293D02*
X53396948Y77623491D01*
X52553750Y79950293D02*
X53653750Y78850293D01*
X61653750Y77230293D02*
X61653750Y77750293D01*
X61653750Y77750293D02*
X61253750Y78150293D01*
X53653750Y78850293D02*
X53653750Y77880293D01*
X61253750Y78150293D02*
X61253750Y78150293D01*
X64353750Y74530293D02*
X61653750Y77230293D01*
X52553750Y81062793D02*
X52553750Y79950293D01*
%TO.N,Board_2-2*%
X49303750Y82150293D02*
X49553750Y82150293D01*
X51503750Y76635294D02*
X52103751Y76035293D01*
X52103751Y76035293D02*
X53078750Y76035293D01*
X51503750Y79100293D02*
X51503750Y76635294D01*
X51153750Y80550293D02*
X51153750Y79450293D01*
X49553750Y82150293D02*
X51153750Y80550293D01*
X51153750Y79450293D02*
X51503750Y79100293D01*
%TO.N,Board_2-3*%
X54753750Y74350293D02*
X54753750Y72062793D01*
X49303750Y79685293D02*
X51053750Y77935293D01*
X51053750Y77935293D02*
X51053750Y76150293D01*
X54753750Y72062793D02*
X54091250Y71400293D01*
X54338750Y74765293D02*
X54753750Y74350293D01*
X52438750Y74765293D02*
X53078750Y74765293D01*
X51053750Y76150293D02*
X52438750Y74765293D01*
X53078750Y74765293D02*
X54338750Y74765293D01*
%TO.N,Board_2-4*%
X51353750Y75095293D02*
X51353750Y74245294D01*
X51353750Y74245294D02*
X52103751Y73495293D01*
X49303750Y77145293D02*
X51353750Y75095293D01*
X52103751Y73495293D02*
X53078750Y73495293D01*
%TO.N,Board_2-5*%
X55953750Y76150293D02*
X55953750Y75550293D01*
X60453750Y74050293D02*
X60453750Y73790674D01*
X60453750Y73790674D02*
X59788369Y73125293D01*
X54753750Y77350293D02*
X55953750Y76150293D01*
X58398750Y73125293D02*
X58028750Y73495293D01*
X59788369Y73125293D02*
X58398750Y73125293D01*
%TO.N,Board_2-6*%
X59068750Y74765293D02*
X58028750Y74765293D01*
X60993750Y75550293D02*
X64553750Y71990293D01*
X59853750Y75550293D02*
X60993750Y75550293D01*
X60653750Y77550293D02*
X60653750Y75550293D01*
X58053750Y80150293D02*
X60653750Y77550293D01*
X59853750Y75550293D02*
X59068750Y74765293D01*
%TO.N,Board_2-7*%
X57647842Y76035293D02*
X58028750Y76035293D01*
X55553750Y73550293D02*
X55553750Y73941201D01*
X55553750Y73941201D02*
X57647842Y76035293D01*
%TO.N,Board_2-8*%
X61628750Y71400293D02*
X61628750Y72625293D01*
X55303750Y80030293D02*
X58028750Y77305293D01*
X59074250Y77305293D02*
X58028750Y77305293D01*
X61628750Y72625293D02*
X61653750Y72650293D01*
X55303750Y81075293D02*
X55303750Y80030293D01*
X59929250Y76450293D02*
X59074250Y77305293D01*
%TO.N,Board_2-Net-(D1-K)*%
X59978750Y71400293D02*
X59978750Y71375293D01*
X53366250Y70550293D02*
X52516250Y71400293D01*
X59978750Y71375293D02*
X59153750Y70550293D01*
X59153750Y70550293D02*
X53366250Y70550293D01*
%TO.N,Board_2-Net-(D2-K)*%
X55266250Y82687793D02*
X55303750Y82725293D01*
X52303750Y82687793D02*
X55266250Y82687793D01*
%TO.N,Board_2-UPDI_RX*%
X61773750Y79850293D02*
X60803750Y79850293D01*
X60278750Y79850293D02*
X58053750Y82075293D01*
X60803750Y79850293D02*
X60278750Y79850293D01*
X64553750Y77070293D02*
X61773750Y79850293D01*
%TO.N,Board_2-UPDI_TX*%
X60803750Y82650293D02*
X61513750Y82650293D01*
X61513750Y82650293D02*
X64553750Y79610293D01*
%TO.N,Board_3-1*%
X85353750Y74530293D02*
X82653750Y77230293D01*
X73553750Y81062793D02*
X73553750Y79950293D01*
X82253750Y78150293D02*
X82253750Y78150293D01*
X73553750Y79950293D02*
X74653750Y78850293D01*
X82653750Y77230293D02*
X82653750Y77750293D01*
X74653750Y77880293D02*
X74396948Y77623491D01*
X74653750Y78850293D02*
X74653750Y77880293D01*
X82653750Y77750293D02*
X82253750Y78150293D01*
%TO.N,Board_3-2*%
X72153750Y79450293D02*
X72503750Y79100293D01*
X73103751Y76035293D02*
X74078750Y76035293D01*
X70303750Y82150293D02*
X70553750Y82150293D01*
X70553750Y82150293D02*
X72153750Y80550293D01*
X72503750Y76635294D02*
X73103751Y76035293D01*
X72153750Y80550293D02*
X72153750Y79450293D01*
X72503750Y79100293D02*
X72503750Y76635294D01*
%TO.N,Board_3-3*%
X72053750Y77935293D02*
X72053750Y76150293D01*
X74078750Y74765293D02*
X75338750Y74765293D01*
X70303750Y79685293D02*
X72053750Y77935293D01*
X75753750Y74350293D02*
X75753750Y72062793D01*
X75338750Y74765293D02*
X75753750Y74350293D01*
X72053750Y76150293D02*
X73438750Y74765293D01*
X73438750Y74765293D02*
X74078750Y74765293D01*
X75753750Y72062793D02*
X75091250Y71400293D01*
%TO.N,Board_3-4*%
X70303750Y77145293D02*
X72353750Y75095293D01*
X72353750Y75095293D02*
X72353750Y74245294D01*
X72353750Y74245294D02*
X73103751Y73495293D01*
X73103751Y73495293D02*
X74078750Y73495293D01*
%TO.N,Board_3-5*%
X79398750Y73125293D02*
X79028750Y73495293D01*
X75753750Y77350293D02*
X76953750Y76150293D01*
X80788369Y73125293D02*
X79398750Y73125293D01*
X81453750Y74050293D02*
X81453750Y73790674D01*
X76953750Y76150293D02*
X76953750Y75550293D01*
X81453750Y73790674D02*
X80788369Y73125293D01*
%TO.N,Board_3-6*%
X81993750Y75550293D02*
X85553750Y71990293D01*
X80853750Y75550293D02*
X81993750Y75550293D01*
X80853750Y75550293D02*
X80068750Y74765293D01*
X81653750Y77550293D02*
X81653750Y75550293D01*
X80068750Y74765293D02*
X79028750Y74765293D01*
X79053750Y80150293D02*
X81653750Y77550293D01*
%TO.N,Board_3-7*%
X78647842Y76035293D02*
X79028750Y76035293D01*
X76553750Y73550293D02*
X76553750Y73941201D01*
X76553750Y73941201D02*
X78647842Y76035293D01*
%TO.N,Board_3-8*%
X80929250Y76450293D02*
X80074250Y77305293D01*
X82628750Y72625293D02*
X82653750Y72650293D01*
X82628750Y71400293D02*
X82628750Y72625293D01*
X76303750Y80030293D02*
X79028750Y77305293D01*
X80074250Y77305293D02*
X79028750Y77305293D01*
X76303750Y81075293D02*
X76303750Y80030293D01*
%TO.N,Board_3-Net-(D1-K)*%
X80978750Y71375293D02*
X80153750Y70550293D01*
X80978750Y71400293D02*
X80978750Y71375293D01*
X80153750Y70550293D02*
X74366250Y70550293D01*
X74366250Y70550293D02*
X73516250Y71400293D01*
%TO.N,Board_3-Net-(D2-K)*%
X76266250Y82687793D02*
X76303750Y82725293D01*
X73303750Y82687793D02*
X76266250Y82687793D01*
%TO.N,Board_3-UPDI_RX*%
X81803750Y79850293D02*
X81278750Y79850293D01*
X81278750Y79850293D02*
X79053750Y82075293D01*
X85553750Y77070293D02*
X82773750Y79850293D01*
X82773750Y79850293D02*
X81803750Y79850293D01*
%TO.N,Board_3-UPDI_TX*%
X82513750Y82650293D02*
X85553750Y79610293D01*
X81803750Y82650293D02*
X82513750Y82650293D01*
%TO.N,Board_4-1*%
X19653750Y61650293D02*
X19253750Y62050293D01*
X10553750Y63850293D02*
X11653750Y62750293D01*
X11653750Y62750293D02*
X11653750Y61780293D01*
X22353750Y58430293D02*
X19653750Y61130293D01*
X19253750Y62050293D02*
X19253750Y62050293D01*
X11653750Y61780293D02*
X11396948Y61523491D01*
X10553750Y64962793D02*
X10553750Y63850293D01*
X19653750Y61130293D02*
X19653750Y61650293D01*
%TO.N,Board_4-2*%
X10103751Y59935293D02*
X11078750Y59935293D01*
X9153750Y64450293D02*
X9153750Y63350293D01*
X9153750Y63350293D02*
X9503750Y63000293D01*
X7303750Y66050293D02*
X7553750Y66050293D01*
X9503750Y60535294D02*
X10103751Y59935293D01*
X9503750Y63000293D02*
X9503750Y60535294D01*
X7553750Y66050293D02*
X9153750Y64450293D01*
%TO.N,Board_4-3*%
X9053750Y60050293D02*
X10438750Y58665293D01*
X12338750Y58665293D02*
X12753750Y58250293D01*
X9053750Y61835293D02*
X9053750Y60050293D01*
X12753750Y58250293D02*
X12753750Y55962793D01*
X12753750Y55962793D02*
X12091250Y55300293D01*
X10438750Y58665293D02*
X11078750Y58665293D01*
X11078750Y58665293D02*
X12338750Y58665293D01*
X7303750Y63585293D02*
X9053750Y61835293D01*
%TO.N,Board_4-4*%
X10103751Y57395293D02*
X11078750Y57395293D01*
X9353750Y58995293D02*
X9353750Y58145294D01*
X7303750Y61045293D02*
X9353750Y58995293D01*
X9353750Y58145294D02*
X10103751Y57395293D01*
%TO.N,Board_4-5*%
X12753750Y61250293D02*
X13953750Y60050293D01*
X18453750Y57690674D02*
X17788369Y57025293D01*
X16398750Y57025293D02*
X16028750Y57395293D01*
X13953750Y60050293D02*
X13953750Y59450293D01*
X18453750Y57950293D02*
X18453750Y57690674D01*
X17788369Y57025293D02*
X16398750Y57025293D01*
%TO.N,Board_4-6*%
X18653750Y61450293D02*
X18653750Y59450293D01*
X18993750Y59450293D02*
X22553750Y55890293D01*
X17853750Y59450293D02*
X18993750Y59450293D01*
X16053750Y64050293D02*
X18653750Y61450293D01*
X17853750Y59450293D02*
X17068750Y58665293D01*
X17068750Y58665293D02*
X16028750Y58665293D01*
%TO.N,Board_4-7*%
X13553750Y57450293D02*
X13553750Y57841201D01*
X15647842Y59935293D02*
X16028750Y59935293D01*
X13553750Y57841201D02*
X15647842Y59935293D01*
%TO.N,Board_4-8*%
X17929250Y60350293D02*
X17074250Y61205293D01*
X19628750Y56525293D02*
X19653750Y56550293D01*
X13303750Y64975293D02*
X13303750Y63930293D01*
X17074250Y61205293D02*
X16028750Y61205293D01*
X19628750Y55300293D02*
X19628750Y56525293D01*
X13303750Y63930293D02*
X16028750Y61205293D01*
%TO.N,Board_4-Net-(D1-K)*%
X17153750Y54450293D02*
X11366250Y54450293D01*
X17978750Y55275293D02*
X17153750Y54450293D01*
X17978750Y55300293D02*
X17978750Y55275293D01*
X11366250Y54450293D02*
X10516250Y55300293D01*
%TO.N,Board_4-Net-(D2-K)*%
X13266250Y66587793D02*
X13303750Y66625293D01*
X10303750Y66587793D02*
X13266250Y66587793D01*
%TO.N,Board_4-UPDI_RX*%
X22553750Y60970293D02*
X19773750Y63750293D01*
X18803750Y63750293D02*
X18278750Y63750293D01*
X19773750Y63750293D02*
X18803750Y63750293D01*
X18278750Y63750293D02*
X16053750Y65975293D01*
%TO.N,Board_4-UPDI_TX*%
X19513750Y66550293D02*
X22553750Y63510293D01*
X18803750Y66550293D02*
X19513750Y66550293D01*
%TO.N,Board_5-1*%
X40653750Y61650293D02*
X40253750Y62050293D01*
X32653750Y62750293D02*
X32653750Y61780293D01*
X31553750Y63850293D02*
X32653750Y62750293D01*
X43353750Y58430293D02*
X40653750Y61130293D01*
X31553750Y64962793D02*
X31553750Y63850293D01*
X40653750Y61130293D02*
X40653750Y61650293D01*
X40253750Y62050293D02*
X40253750Y62050293D01*
X32653750Y61780293D02*
X32396948Y61523491D01*
%TO.N,Board_5-2*%
X30503750Y63000293D02*
X30503750Y60535294D01*
X28303750Y66050293D02*
X28553750Y66050293D01*
X30503750Y60535294D02*
X31103751Y59935293D01*
X31103751Y59935293D02*
X32078750Y59935293D01*
X30153750Y64450293D02*
X30153750Y63350293D01*
X28553750Y66050293D02*
X30153750Y64450293D01*
X30153750Y63350293D02*
X30503750Y63000293D01*
%TO.N,Board_5-3*%
X30053750Y60050293D02*
X31438750Y58665293D01*
X30053750Y61835293D02*
X30053750Y60050293D01*
X31438750Y58665293D02*
X32078750Y58665293D01*
X33753750Y58250293D02*
X33753750Y55962793D01*
X33338750Y58665293D02*
X33753750Y58250293D01*
X32078750Y58665293D02*
X33338750Y58665293D01*
X33753750Y55962793D02*
X33091250Y55300293D01*
X28303750Y63585293D02*
X30053750Y61835293D01*
%TO.N,Board_5-4*%
X30353750Y58145294D02*
X31103751Y57395293D01*
X28303750Y61045293D02*
X30353750Y58995293D01*
X30353750Y58995293D02*
X30353750Y58145294D01*
X31103751Y57395293D02*
X32078750Y57395293D01*
%TO.N,Board_5-5*%
X34953750Y60050293D02*
X34953750Y59450293D01*
X39453750Y57950293D02*
X39453750Y57690674D01*
X37398750Y57025293D02*
X37028750Y57395293D01*
X38788369Y57025293D02*
X37398750Y57025293D01*
X33753750Y61250293D02*
X34953750Y60050293D01*
X39453750Y57690674D02*
X38788369Y57025293D01*
%TO.N,Board_5-6*%
X39993750Y59450293D02*
X43553750Y55890293D01*
X38853750Y59450293D02*
X39993750Y59450293D01*
X38068750Y58665293D02*
X37028750Y58665293D01*
X37053750Y64050293D02*
X39653750Y61450293D01*
X39653750Y61450293D02*
X39653750Y59450293D01*
X38853750Y59450293D02*
X38068750Y58665293D01*
%TO.N,Board_5-7*%
X34553750Y57450293D02*
X34553750Y57841201D01*
X34553750Y57841201D02*
X36647842Y59935293D01*
X36647842Y59935293D02*
X37028750Y59935293D01*
%TO.N,Board_5-8*%
X34303750Y63930293D02*
X37028750Y61205293D01*
X34303750Y64975293D02*
X34303750Y63930293D01*
X40628750Y55300293D02*
X40628750Y56525293D01*
X38929250Y60350293D02*
X38074250Y61205293D01*
X38074250Y61205293D02*
X37028750Y61205293D01*
X40628750Y56525293D02*
X40653750Y56550293D01*
%TO.N,Board_5-Net-(D1-K)*%
X38978750Y55300293D02*
X38978750Y55275293D01*
X38978750Y55275293D02*
X38153750Y54450293D01*
X32366250Y54450293D02*
X31516250Y55300293D01*
X38153750Y54450293D02*
X32366250Y54450293D01*
%TO.N,Board_5-Net-(D2-K)*%
X31303750Y66587793D02*
X34266250Y66587793D01*
X34266250Y66587793D02*
X34303750Y66625293D01*
%TO.N,Board_5-UPDI_RX*%
X39803750Y63750293D02*
X39278750Y63750293D01*
X39278750Y63750293D02*
X37053750Y65975293D01*
X43553750Y60970293D02*
X40773750Y63750293D01*
X40773750Y63750293D02*
X39803750Y63750293D01*
%TO.N,Board_5-UPDI_TX*%
X39803750Y66550293D02*
X40513750Y66550293D01*
X40513750Y66550293D02*
X43553750Y63510293D01*
%TO.N,Board_6-1*%
X61653750Y61130293D02*
X61653750Y61650293D01*
X52553750Y63850293D02*
X53653750Y62750293D01*
X64353750Y58430293D02*
X61653750Y61130293D01*
X61653750Y61650293D02*
X61253750Y62050293D01*
X61253750Y62050293D02*
X61253750Y62050293D01*
X52553750Y64962793D02*
X52553750Y63850293D01*
X53653750Y61780293D02*
X53396948Y61523491D01*
X53653750Y62750293D02*
X53653750Y61780293D01*
%TO.N,Board_6-2*%
X49303750Y66050293D02*
X49553750Y66050293D01*
X51503750Y63000293D02*
X51503750Y60535294D01*
X51503750Y60535294D02*
X52103751Y59935293D01*
X52103751Y59935293D02*
X53078750Y59935293D01*
X51153750Y64450293D02*
X51153750Y63350293D01*
X51153750Y63350293D02*
X51503750Y63000293D01*
X49553750Y66050293D02*
X51153750Y64450293D01*
%TO.N,Board_6-3*%
X54753750Y55962793D02*
X54091250Y55300293D01*
X49303750Y63585293D02*
X51053750Y61835293D01*
X52438750Y58665293D02*
X53078750Y58665293D01*
X51053750Y61835293D02*
X51053750Y60050293D01*
X54753750Y58250293D02*
X54753750Y55962793D01*
X51053750Y60050293D02*
X52438750Y58665293D01*
X53078750Y58665293D02*
X54338750Y58665293D01*
X54338750Y58665293D02*
X54753750Y58250293D01*
%TO.N,Board_6-4*%
X49303750Y61045293D02*
X51353750Y58995293D01*
X52103751Y57395293D02*
X53078750Y57395293D01*
X51353750Y58995293D02*
X51353750Y58145294D01*
X51353750Y58145294D02*
X52103751Y57395293D01*
%TO.N,Board_6-5*%
X60453750Y57690674D02*
X59788369Y57025293D01*
X59788369Y57025293D02*
X58398750Y57025293D01*
X54753750Y61250293D02*
X55953750Y60050293D01*
X60453750Y57950293D02*
X60453750Y57690674D01*
X55953750Y60050293D02*
X55953750Y59450293D01*
X58398750Y57025293D02*
X58028750Y57395293D01*
%TO.N,Board_6-6*%
X59853750Y59450293D02*
X59068750Y58665293D01*
X58053750Y64050293D02*
X60653750Y61450293D01*
X59853750Y59450293D02*
X60993750Y59450293D01*
X60993750Y59450293D02*
X64553750Y55890293D01*
X59068750Y58665293D02*
X58028750Y58665293D01*
X60653750Y61450293D02*
X60653750Y59450293D01*
%TO.N,Board_6-7*%
X55553750Y57450293D02*
X55553750Y57841201D01*
X57647842Y59935293D02*
X58028750Y59935293D01*
X55553750Y57841201D02*
X57647842Y59935293D01*
%TO.N,Board_6-8*%
X59929250Y60350293D02*
X59074250Y61205293D01*
X59074250Y61205293D02*
X58028750Y61205293D01*
X61628750Y55300293D02*
X61628750Y56525293D01*
X55303750Y64975293D02*
X55303750Y63930293D01*
X55303750Y63930293D02*
X58028750Y61205293D01*
X61628750Y56525293D02*
X61653750Y56550293D01*
%TO.N,Board_6-Net-(D1-K)*%
X53366250Y54450293D02*
X52516250Y55300293D01*
X59153750Y54450293D02*
X53366250Y54450293D01*
X59978750Y55300293D02*
X59978750Y55275293D01*
X59978750Y55275293D02*
X59153750Y54450293D01*
%TO.N,Board_6-Net-(D2-K)*%
X52303750Y66587793D02*
X55266250Y66587793D01*
X55266250Y66587793D02*
X55303750Y66625293D01*
%TO.N,Board_6-UPDI_RX*%
X60278750Y63750293D02*
X58053750Y65975293D01*
X60803750Y63750293D02*
X60278750Y63750293D01*
X64553750Y60970293D02*
X61773750Y63750293D01*
X61773750Y63750293D02*
X60803750Y63750293D01*
%TO.N,Board_6-UPDI_TX*%
X60803750Y66550293D02*
X61513750Y66550293D01*
X61513750Y66550293D02*
X64553750Y63510293D01*
%TO.N,Board_7-1*%
X73553750Y63850293D02*
X74653750Y62750293D01*
X82253750Y62050293D02*
X82253750Y62050293D01*
X82653750Y61650293D02*
X82253750Y62050293D01*
X82653750Y61130293D02*
X82653750Y61650293D01*
X74653750Y61780293D02*
X74396948Y61523491D01*
X74653750Y62750293D02*
X74653750Y61780293D01*
X85353750Y58430293D02*
X82653750Y61130293D01*
X73553750Y64962793D02*
X73553750Y63850293D01*
%TO.N,Board_7-2*%
X73103751Y59935293D02*
X74078750Y59935293D01*
X72153750Y63350293D02*
X72503750Y63000293D01*
X72503750Y60535294D02*
X73103751Y59935293D01*
X70303750Y66050293D02*
X70553750Y66050293D01*
X70553750Y66050293D02*
X72153750Y64450293D01*
X72503750Y63000293D02*
X72503750Y60535294D01*
X72153750Y64450293D02*
X72153750Y63350293D01*
%TO.N,Board_7-3*%
X73438750Y58665293D02*
X74078750Y58665293D01*
X75338750Y58665293D02*
X75753750Y58250293D01*
X74078750Y58665293D02*
X75338750Y58665293D01*
X75753750Y55962793D02*
X75091250Y55300293D01*
X72053750Y60050293D02*
X73438750Y58665293D01*
X72053750Y61835293D02*
X72053750Y60050293D01*
X75753750Y58250293D02*
X75753750Y55962793D01*
X70303750Y63585293D02*
X72053750Y61835293D01*
%TO.N,Board_7-4*%
X73103751Y57395293D02*
X74078750Y57395293D01*
X70303750Y61045293D02*
X72353750Y58995293D01*
X72353750Y58995293D02*
X72353750Y58145294D01*
X72353750Y58145294D02*
X73103751Y57395293D01*
%TO.N,Board_7-5*%
X75753750Y61250293D02*
X76953750Y60050293D01*
X81453750Y57950293D02*
X81453750Y57690674D01*
X79398750Y57025293D02*
X79028750Y57395293D01*
X76953750Y60050293D02*
X76953750Y59450293D01*
X80788369Y57025293D02*
X79398750Y57025293D01*
X81453750Y57690674D02*
X80788369Y57025293D01*
%TO.N,Board_7-6*%
X79053750Y64050293D02*
X81653750Y61450293D01*
X81993750Y59450293D02*
X85553750Y55890293D01*
X81653750Y61450293D02*
X81653750Y59450293D01*
X80853750Y59450293D02*
X80068750Y58665293D01*
X80853750Y59450293D02*
X81993750Y59450293D01*
X80068750Y58665293D02*
X79028750Y58665293D01*
%TO.N,Board_7-7*%
X78647842Y59935293D02*
X79028750Y59935293D01*
X76553750Y57450293D02*
X76553750Y57841201D01*
X76553750Y57841201D02*
X78647842Y59935293D01*
%TO.N,Board_7-8*%
X82628750Y56525293D02*
X82653750Y56550293D01*
X80929250Y60350293D02*
X80074250Y61205293D01*
X82628750Y55300293D02*
X82628750Y56525293D01*
X76303750Y64975293D02*
X76303750Y63930293D01*
X80074250Y61205293D02*
X79028750Y61205293D01*
X76303750Y63930293D02*
X79028750Y61205293D01*
%TO.N,Board_7-Net-(D1-K)*%
X80978750Y55300293D02*
X80978750Y55275293D01*
X80978750Y55275293D02*
X80153750Y54450293D01*
X80153750Y54450293D02*
X74366250Y54450293D01*
X74366250Y54450293D02*
X73516250Y55300293D01*
%TO.N,Board_7-Net-(D2-K)*%
X73303750Y66587793D02*
X76266250Y66587793D01*
X76266250Y66587793D02*
X76303750Y66625293D01*
%TO.N,Board_7-UPDI_RX*%
X82773750Y63750293D02*
X81803750Y63750293D01*
X81803750Y63750293D02*
X81278750Y63750293D01*
X85553750Y60970293D02*
X82773750Y63750293D01*
X81278750Y63750293D02*
X79053750Y65975293D01*
%TO.N,Board_7-UPDI_TX*%
X82513750Y66550293D02*
X85553750Y63510293D01*
X81803750Y66550293D02*
X82513750Y66550293D01*
%TO.N,Board_8-1*%
X19653750Y45030293D02*
X19653750Y45550293D01*
X10553750Y47750293D02*
X11653750Y46650293D01*
X19253750Y45950293D02*
X19253750Y45950293D01*
X10553750Y48862793D02*
X10553750Y47750293D01*
X11653750Y46650293D02*
X11653750Y45680293D01*
X22353750Y42330293D02*
X19653750Y45030293D01*
X19653750Y45550293D02*
X19253750Y45950293D01*
X11653750Y45680293D02*
X11396948Y45423491D01*
%TO.N,Board_8-2*%
X9153750Y48350293D02*
X9153750Y47250293D01*
X9503750Y44435294D02*
X10103751Y43835293D01*
X10103751Y43835293D02*
X11078750Y43835293D01*
X7303750Y49950293D02*
X7553750Y49950293D01*
X9503750Y46900293D02*
X9503750Y44435294D01*
X9153750Y47250293D02*
X9503750Y46900293D01*
X7553750Y49950293D02*
X9153750Y48350293D01*
%TO.N,Board_8-3*%
X7303750Y47485293D02*
X9053750Y45735293D01*
X10438750Y42565293D02*
X11078750Y42565293D01*
X9053750Y45735293D02*
X9053750Y43950293D01*
X12753750Y42150293D02*
X12753750Y39862793D01*
X9053750Y43950293D02*
X10438750Y42565293D01*
X12753750Y39862793D02*
X12091250Y39200293D01*
X12338750Y42565293D02*
X12753750Y42150293D01*
X11078750Y42565293D02*
X12338750Y42565293D01*
%TO.N,Board_8-4*%
X9353750Y42895293D02*
X9353750Y42045294D01*
X7303750Y44945293D02*
X9353750Y42895293D01*
X9353750Y42045294D02*
X10103751Y41295293D01*
X10103751Y41295293D02*
X11078750Y41295293D01*
%TO.N,Board_8-5*%
X16398750Y40925293D02*
X16028750Y41295293D01*
X12753750Y45150293D02*
X13953750Y43950293D01*
X18453750Y41590674D02*
X17788369Y40925293D01*
X17788369Y40925293D02*
X16398750Y40925293D01*
X18453750Y41850293D02*
X18453750Y41590674D01*
X13953750Y43950293D02*
X13953750Y43350293D01*
%TO.N,Board_8-6*%
X17853750Y43350293D02*
X17068750Y42565293D01*
X17068750Y42565293D02*
X16028750Y42565293D01*
X17853750Y43350293D02*
X18993750Y43350293D01*
X18993750Y43350293D02*
X22553750Y39790293D01*
X18653750Y45350293D02*
X18653750Y43350293D01*
X16053750Y47950293D02*
X18653750Y45350293D01*
%TO.N,Board_8-7*%
X13553750Y41741201D02*
X15647842Y43835293D01*
X15647842Y43835293D02*
X16028750Y43835293D01*
X13553750Y41350293D02*
X13553750Y41741201D01*
%TO.N,Board_8-8*%
X13303750Y48875293D02*
X13303750Y47830293D01*
X19628750Y39200293D02*
X19628750Y40425293D01*
X13303750Y47830293D02*
X16028750Y45105293D01*
X17074250Y45105293D02*
X16028750Y45105293D01*
X17929250Y44250293D02*
X17074250Y45105293D01*
X19628750Y40425293D02*
X19653750Y40450293D01*
%TO.N,Board_8-Net-(D1-K)*%
X17978750Y39200293D02*
X17978750Y39175293D01*
X17978750Y39175293D02*
X17153750Y38350293D01*
X11366250Y38350293D02*
X10516250Y39200293D01*
X17153750Y38350293D02*
X11366250Y38350293D01*
%TO.N,Board_8-Net-(D2-K)*%
X10303750Y50487793D02*
X13266250Y50487793D01*
X13266250Y50487793D02*
X13303750Y50525293D01*
%TO.N,Board_8-UPDI_RX*%
X22553750Y44870293D02*
X19773750Y47650293D01*
X18803750Y47650293D02*
X18278750Y47650293D01*
X19773750Y47650293D02*
X18803750Y47650293D01*
X18278750Y47650293D02*
X16053750Y49875293D01*
%TO.N,Board_8-UPDI_TX*%
X19513750Y50450293D02*
X22553750Y47410293D01*
X18803750Y50450293D02*
X19513750Y50450293D01*
%TO.N,Board_9-1*%
X43353750Y42330293D02*
X40653750Y45030293D01*
X31553750Y47750293D02*
X32653750Y46650293D01*
X32653750Y45680293D02*
X32396948Y45423491D01*
X31553750Y48862793D02*
X31553750Y47750293D01*
X40253750Y45950293D02*
X40253750Y45950293D01*
X40653750Y45030293D02*
X40653750Y45550293D01*
X40653750Y45550293D02*
X40253750Y45950293D01*
X32653750Y46650293D02*
X32653750Y45680293D01*
%TO.N,Board_9-2*%
X28303750Y49950293D02*
X28553750Y49950293D01*
X30153750Y48350293D02*
X30153750Y47250293D01*
X28553750Y49950293D02*
X30153750Y48350293D01*
X30503750Y44435294D02*
X31103751Y43835293D01*
X31103751Y43835293D02*
X32078750Y43835293D01*
X30153750Y47250293D02*
X30503750Y46900293D01*
X30503750Y46900293D02*
X30503750Y44435294D01*
%TO.N,Board_9-3*%
X28303750Y47485293D02*
X30053750Y45735293D01*
X33753750Y39862793D02*
X33091250Y39200293D01*
X33338750Y42565293D02*
X33753750Y42150293D01*
X30053750Y43950293D02*
X31438750Y42565293D01*
X33753750Y42150293D02*
X33753750Y39862793D01*
X31438750Y42565293D02*
X32078750Y42565293D01*
X30053750Y45735293D02*
X30053750Y43950293D01*
X32078750Y42565293D02*
X33338750Y42565293D01*
%TO.N,Board_9-4*%
X28303750Y44945293D02*
X30353750Y42895293D01*
X30353750Y42045294D02*
X31103751Y41295293D01*
X31103751Y41295293D02*
X32078750Y41295293D01*
X30353750Y42895293D02*
X30353750Y42045294D01*
%TO.N,Board_9-5*%
X34953750Y43950293D02*
X34953750Y43350293D01*
X37398750Y40925293D02*
X37028750Y41295293D01*
X39453750Y41850293D02*
X39453750Y41590674D01*
X33753750Y45150293D02*
X34953750Y43950293D01*
X38788369Y40925293D02*
X37398750Y40925293D01*
X39453750Y41590674D02*
X38788369Y40925293D01*
%TO.N,Board_9-6*%
X37053750Y47950293D02*
X39653750Y45350293D01*
X39653750Y45350293D02*
X39653750Y43350293D01*
X38853750Y43350293D02*
X38068750Y42565293D01*
X38853750Y43350293D02*
X39993750Y43350293D01*
X39993750Y43350293D02*
X43553750Y39790293D01*
X38068750Y42565293D02*
X37028750Y42565293D01*
%TO.N,Board_9-7*%
X36647842Y43835293D02*
X37028750Y43835293D01*
X34553750Y41741201D02*
X36647842Y43835293D01*
X34553750Y41350293D02*
X34553750Y41741201D01*
%TO.N,Board_9-8*%
X40628750Y39200293D02*
X40628750Y40425293D01*
X38929250Y44250293D02*
X38074250Y45105293D01*
X34303750Y47830293D02*
X37028750Y45105293D01*
X38074250Y45105293D02*
X37028750Y45105293D01*
X34303750Y48875293D02*
X34303750Y47830293D01*
X40628750Y40425293D02*
X40653750Y40450293D01*
%TO.N,Board_9-Net-(D1-K)*%
X38978750Y39200293D02*
X38978750Y39175293D01*
X38978750Y39175293D02*
X38153750Y38350293D01*
X38153750Y38350293D02*
X32366250Y38350293D01*
X32366250Y38350293D02*
X31516250Y39200293D01*
%TO.N,Board_9-Net-(D2-K)*%
X31303750Y50487793D02*
X34266250Y50487793D01*
X34266250Y50487793D02*
X34303750Y50525293D01*
%TO.N,Board_9-UPDI_RX*%
X40773750Y47650293D02*
X39803750Y47650293D01*
X39803750Y47650293D02*
X39278750Y47650293D01*
X39278750Y47650293D02*
X37053750Y49875293D01*
X43553750Y44870293D02*
X40773750Y47650293D01*
%TO.N,Board_9-UPDI_TX*%
X40513750Y50450293D02*
X43553750Y47410293D01*
X39803750Y50450293D02*
X40513750Y50450293D01*
%TO.N,Board_10-1*%
X61253750Y45950293D02*
X61253750Y45950293D01*
X61653750Y45550293D02*
X61253750Y45950293D01*
X61653750Y45030293D02*
X61653750Y45550293D01*
X64353750Y42330293D02*
X61653750Y45030293D01*
X53653750Y45680293D02*
X53396948Y45423491D01*
X52553750Y48862793D02*
X52553750Y47750293D01*
X52553750Y47750293D02*
X53653750Y46650293D01*
X53653750Y46650293D02*
X53653750Y45680293D01*
%TO.N,Board_10-2*%
X51153750Y48350293D02*
X51153750Y47250293D01*
X52103751Y43835293D02*
X53078750Y43835293D01*
X49553750Y49950293D02*
X51153750Y48350293D01*
X49303750Y49950293D02*
X49553750Y49950293D01*
X51153750Y47250293D02*
X51503750Y46900293D01*
X51503750Y46900293D02*
X51503750Y44435294D01*
X51503750Y44435294D02*
X52103751Y43835293D01*
%TO.N,Board_10-3*%
X49303750Y47485293D02*
X51053750Y45735293D01*
X54338750Y42565293D02*
X54753750Y42150293D01*
X54753750Y42150293D02*
X54753750Y39862793D01*
X53078750Y42565293D02*
X54338750Y42565293D01*
X51053750Y45735293D02*
X51053750Y43950293D01*
X52438750Y42565293D02*
X53078750Y42565293D01*
X51053750Y43950293D02*
X52438750Y42565293D01*
X54753750Y39862793D02*
X54091250Y39200293D01*
%TO.N,Board_10-4*%
X49303750Y44945293D02*
X51353750Y42895293D01*
X52103751Y41295293D02*
X53078750Y41295293D01*
X51353750Y42895293D02*
X51353750Y42045294D01*
X51353750Y42045294D02*
X52103751Y41295293D01*
%TO.N,Board_10-5*%
X58398750Y40925293D02*
X58028750Y41295293D01*
X55953750Y43950293D02*
X55953750Y43350293D01*
X54753750Y45150293D02*
X55953750Y43950293D01*
X59788369Y40925293D02*
X58398750Y40925293D01*
X60453750Y41850293D02*
X60453750Y41590674D01*
X60453750Y41590674D02*
X59788369Y40925293D01*
%TO.N,Board_10-6*%
X59068750Y42565293D02*
X58028750Y42565293D01*
X60993750Y43350293D02*
X64553750Y39790293D01*
X59853750Y43350293D02*
X59068750Y42565293D01*
X60653750Y45350293D02*
X60653750Y43350293D01*
X59853750Y43350293D02*
X60993750Y43350293D01*
X58053750Y47950293D02*
X60653750Y45350293D01*
%TO.N,Board_10-7*%
X55553750Y41350293D02*
X55553750Y41741201D01*
X55553750Y41741201D02*
X57647842Y43835293D01*
X57647842Y43835293D02*
X58028750Y43835293D01*
%TO.N,Board_10-8*%
X55303750Y48875293D02*
X55303750Y47830293D01*
X55303750Y47830293D02*
X58028750Y45105293D01*
X59929250Y44250293D02*
X59074250Y45105293D01*
X61628750Y39200293D02*
X61628750Y40425293D01*
X61628750Y40425293D02*
X61653750Y40450293D01*
X59074250Y45105293D02*
X58028750Y45105293D01*
%TO.N,Board_10-Net-(D1-K)*%
X59978750Y39200293D02*
X59978750Y39175293D01*
X53366250Y38350293D02*
X52516250Y39200293D01*
X59153750Y38350293D02*
X53366250Y38350293D01*
X59978750Y39175293D02*
X59153750Y38350293D01*
%TO.N,Board_10-Net-(D2-K)*%
X55266250Y50487793D02*
X55303750Y50525293D01*
X52303750Y50487793D02*
X55266250Y50487793D01*
%TO.N,Board_10-UPDI_RX*%
X64553750Y44870293D02*
X61773750Y47650293D01*
X60278750Y47650293D02*
X58053750Y49875293D01*
X61773750Y47650293D02*
X60803750Y47650293D01*
X60803750Y47650293D02*
X60278750Y47650293D01*
%TO.N,Board_10-UPDI_TX*%
X60803750Y50450293D02*
X61513750Y50450293D01*
X61513750Y50450293D02*
X64553750Y47410293D01*
%TO.N,Board_11-1*%
X73553750Y47750293D02*
X74653750Y46650293D01*
X82653750Y45550293D02*
X82253750Y45950293D01*
X85353750Y42330293D02*
X82653750Y45030293D01*
X74653750Y45680293D02*
X74396948Y45423491D01*
X73553750Y48862793D02*
X73553750Y47750293D01*
X82653750Y45030293D02*
X82653750Y45550293D01*
X82253750Y45950293D02*
X82253750Y45950293D01*
X74653750Y46650293D02*
X74653750Y45680293D01*
%TO.N,Board_11-2*%
X70553750Y49950293D02*
X72153750Y48350293D01*
X73103751Y43835293D02*
X74078750Y43835293D01*
X72153750Y47250293D02*
X72503750Y46900293D01*
X70303750Y49950293D02*
X70553750Y49950293D01*
X72503750Y46900293D02*
X72503750Y44435294D01*
X72503750Y44435294D02*
X73103751Y43835293D01*
X72153750Y48350293D02*
X72153750Y47250293D01*
%TO.N,Board_11-3*%
X75753750Y39862793D02*
X75091250Y39200293D01*
X75753750Y42150293D02*
X75753750Y39862793D01*
X72053750Y45735293D02*
X72053750Y43950293D01*
X73438750Y42565293D02*
X74078750Y42565293D01*
X72053750Y43950293D02*
X73438750Y42565293D01*
X74078750Y42565293D02*
X75338750Y42565293D01*
X70303750Y47485293D02*
X72053750Y45735293D01*
X75338750Y42565293D02*
X75753750Y42150293D01*
%TO.N,Board_11-4*%
X72353750Y42045294D02*
X73103751Y41295293D01*
X70303750Y44945293D02*
X72353750Y42895293D01*
X72353750Y42895293D02*
X72353750Y42045294D01*
X73103751Y41295293D02*
X74078750Y41295293D01*
%TO.N,Board_11-5*%
X75753750Y45150293D02*
X76953750Y43950293D01*
X80788369Y40925293D02*
X79398750Y40925293D01*
X79398750Y40925293D02*
X79028750Y41295293D01*
X76953750Y43950293D02*
X76953750Y43350293D01*
X81453750Y41850293D02*
X81453750Y41590674D01*
X81453750Y41590674D02*
X80788369Y40925293D01*
%TO.N,Board_11-6*%
X80853750Y43350293D02*
X80068750Y42565293D01*
X81653750Y45350293D02*
X81653750Y43350293D01*
X80853750Y43350293D02*
X81993750Y43350293D01*
X80068750Y42565293D02*
X79028750Y42565293D01*
X79053750Y47950293D02*
X81653750Y45350293D01*
X81993750Y43350293D02*
X85553750Y39790293D01*
%TO.N,Board_11-7*%
X76553750Y41741201D02*
X78647842Y43835293D01*
X76553750Y41350293D02*
X76553750Y41741201D01*
X78647842Y43835293D02*
X79028750Y43835293D01*
%TO.N,Board_11-8*%
X80074250Y45105293D02*
X79028750Y45105293D01*
X76303750Y47830293D02*
X79028750Y45105293D01*
X82628750Y40425293D02*
X82653750Y40450293D01*
X80929250Y44250293D02*
X80074250Y45105293D01*
X82628750Y39200293D02*
X82628750Y40425293D01*
X76303750Y48875293D02*
X76303750Y47830293D01*
%TO.N,Board_11-Net-(D1-K)*%
X80153750Y38350293D02*
X74366250Y38350293D01*
X80978750Y39200293D02*
X80978750Y39175293D01*
X80978750Y39175293D02*
X80153750Y38350293D01*
X74366250Y38350293D02*
X73516250Y39200293D01*
%TO.N,Board_11-Net-(D2-K)*%
X73303750Y50487793D02*
X76266250Y50487793D01*
X76266250Y50487793D02*
X76303750Y50525293D01*
%TO.N,Board_11-UPDI_RX*%
X81278750Y47650293D02*
X79053750Y49875293D01*
X82773750Y47650293D02*
X81803750Y47650293D01*
X85553750Y44870293D02*
X82773750Y47650293D01*
X81803750Y47650293D02*
X81278750Y47650293D01*
%TO.N,Board_11-UPDI_TX*%
X82513750Y50450293D02*
X85553750Y47410293D01*
X81803750Y50450293D02*
X82513750Y50450293D01*
%TO.N,Board_12-1*%
X10553750Y31650293D02*
X11653750Y30550293D01*
X19253750Y29850293D02*
X19253750Y29850293D01*
X11653750Y29580293D02*
X11396948Y29323491D01*
X19653750Y28930293D02*
X19653750Y29450293D01*
X11653750Y30550293D02*
X11653750Y29580293D01*
X19653750Y29450293D02*
X19253750Y29850293D01*
X10553750Y32762793D02*
X10553750Y31650293D01*
X22353750Y26230293D02*
X19653750Y28930293D01*
%TO.N,Board_12-2*%
X10103751Y27735293D02*
X11078750Y27735293D01*
X9153750Y32250293D02*
X9153750Y31150293D01*
X7553750Y33850293D02*
X9153750Y32250293D01*
X7303750Y33850293D02*
X7553750Y33850293D01*
X9503750Y30800293D02*
X9503750Y28335294D01*
X9503750Y28335294D02*
X10103751Y27735293D01*
X9153750Y31150293D02*
X9503750Y30800293D01*
%TO.N,Board_12-3*%
X9053750Y29635293D02*
X9053750Y27850293D01*
X9053750Y27850293D02*
X10438750Y26465293D01*
X12753750Y23762793D02*
X12091250Y23100293D01*
X12753750Y26050293D02*
X12753750Y23762793D01*
X11078750Y26465293D02*
X12338750Y26465293D01*
X10438750Y26465293D02*
X11078750Y26465293D01*
X7303750Y31385293D02*
X9053750Y29635293D01*
X12338750Y26465293D02*
X12753750Y26050293D01*
%TO.N,Board_12-4*%
X9353750Y26795293D02*
X9353750Y25945294D01*
X9353750Y25945294D02*
X10103751Y25195293D01*
X10103751Y25195293D02*
X11078750Y25195293D01*
X7303750Y28845293D02*
X9353750Y26795293D01*
%TO.N,Board_12-5*%
X13953750Y27850293D02*
X13953750Y27250293D01*
X12753750Y29050293D02*
X13953750Y27850293D01*
X18453750Y25750293D02*
X18453750Y25490674D01*
X17788369Y24825293D02*
X16398750Y24825293D01*
X18453750Y25490674D02*
X17788369Y24825293D01*
X16398750Y24825293D02*
X16028750Y25195293D01*
%TO.N,Board_12-6*%
X17853750Y27250293D02*
X18993750Y27250293D01*
X17068750Y26465293D02*
X16028750Y26465293D01*
X16053750Y31850293D02*
X18653750Y29250293D01*
X18653750Y29250293D02*
X18653750Y27250293D01*
X17853750Y27250293D02*
X17068750Y26465293D01*
X18993750Y27250293D02*
X22553750Y23690293D01*
%TO.N,Board_12-7*%
X15647842Y27735293D02*
X16028750Y27735293D01*
X13553750Y25641201D02*
X15647842Y27735293D01*
X13553750Y25250293D02*
X13553750Y25641201D01*
%TO.N,Board_12-8*%
X17929250Y28150293D02*
X17074250Y29005293D01*
X19628750Y24325293D02*
X19653750Y24350293D01*
X19628750Y23100293D02*
X19628750Y24325293D01*
X13303750Y31730293D02*
X16028750Y29005293D01*
X17074250Y29005293D02*
X16028750Y29005293D01*
X13303750Y32775293D02*
X13303750Y31730293D01*
%TO.N,Board_12-Net-(D1-K)*%
X11366250Y22250293D02*
X10516250Y23100293D01*
X17153750Y22250293D02*
X11366250Y22250293D01*
X17978750Y23100293D02*
X17978750Y23075293D01*
X17978750Y23075293D02*
X17153750Y22250293D01*
%TO.N,Board_12-Net-(D2-K)*%
X10303750Y34387793D02*
X13266250Y34387793D01*
X13266250Y34387793D02*
X13303750Y34425293D01*
%TO.N,Board_12-UPDI_RX*%
X18803750Y31550293D02*
X18278750Y31550293D01*
X18278750Y31550293D02*
X16053750Y33775293D01*
X22553750Y28770293D02*
X19773750Y31550293D01*
X19773750Y31550293D02*
X18803750Y31550293D01*
%TO.N,Board_12-UPDI_TX*%
X18803750Y34350293D02*
X19513750Y34350293D01*
X19513750Y34350293D02*
X22553750Y31310293D01*
%TO.N,Board_13-1*%
X31553750Y31650293D02*
X32653750Y30550293D01*
X31553750Y32762793D02*
X31553750Y31650293D01*
X32653750Y30550293D02*
X32653750Y29580293D01*
X40653750Y29450293D02*
X40253750Y29850293D01*
X40253750Y29850293D02*
X40253750Y29850293D01*
X32653750Y29580293D02*
X32396948Y29323491D01*
X43353750Y26230293D02*
X40653750Y28930293D01*
X40653750Y28930293D02*
X40653750Y29450293D01*
%TO.N,Board_13-2*%
X30503750Y28335294D02*
X31103751Y27735293D01*
X28553750Y33850293D02*
X30153750Y32250293D01*
X30153750Y31150293D02*
X30503750Y30800293D01*
X30503750Y30800293D02*
X30503750Y28335294D01*
X31103751Y27735293D02*
X32078750Y27735293D01*
X28303750Y33850293D02*
X28553750Y33850293D01*
X30153750Y32250293D02*
X30153750Y31150293D01*
%TO.N,Board_13-3*%
X30053750Y29635293D02*
X30053750Y27850293D01*
X33753750Y26050293D02*
X33753750Y23762793D01*
X33753750Y23762793D02*
X33091250Y23100293D01*
X28303750Y31385293D02*
X30053750Y29635293D01*
X31438750Y26465293D02*
X32078750Y26465293D01*
X32078750Y26465293D02*
X33338750Y26465293D01*
X30053750Y27850293D02*
X31438750Y26465293D01*
X33338750Y26465293D02*
X33753750Y26050293D01*
%TO.N,Board_13-4*%
X31103751Y25195293D02*
X32078750Y25195293D01*
X30353750Y26795293D02*
X30353750Y25945294D01*
X28303750Y28845293D02*
X30353750Y26795293D01*
X30353750Y25945294D02*
X31103751Y25195293D01*
%TO.N,Board_13-5*%
X37398750Y24825293D02*
X37028750Y25195293D01*
X34953750Y27850293D02*
X34953750Y27250293D01*
X38788369Y24825293D02*
X37398750Y24825293D01*
X39453750Y25490674D02*
X38788369Y24825293D01*
X39453750Y25750293D02*
X39453750Y25490674D01*
X33753750Y29050293D02*
X34953750Y27850293D01*
%TO.N,Board_13-6*%
X37053750Y31850293D02*
X39653750Y29250293D01*
X39653750Y29250293D02*
X39653750Y27250293D01*
X38853750Y27250293D02*
X38068750Y26465293D01*
X38068750Y26465293D02*
X37028750Y26465293D01*
X39993750Y27250293D02*
X43553750Y23690293D01*
X38853750Y27250293D02*
X39993750Y27250293D01*
%TO.N,Board_13-7*%
X34553750Y25641201D02*
X36647842Y27735293D01*
X36647842Y27735293D02*
X37028750Y27735293D01*
X34553750Y25250293D02*
X34553750Y25641201D01*
%TO.N,Board_13-8*%
X38929250Y28150293D02*
X38074250Y29005293D01*
X34303750Y31730293D02*
X37028750Y29005293D01*
X34303750Y32775293D02*
X34303750Y31730293D01*
X38074250Y29005293D02*
X37028750Y29005293D01*
X40628750Y23100293D02*
X40628750Y24325293D01*
X40628750Y24325293D02*
X40653750Y24350293D01*
%TO.N,Board_13-Net-(D1-K)*%
X32366250Y22250293D02*
X31516250Y23100293D01*
X38978750Y23100293D02*
X38978750Y23075293D01*
X38978750Y23075293D02*
X38153750Y22250293D01*
X38153750Y22250293D02*
X32366250Y22250293D01*
%TO.N,Board_13-Net-(D2-K)*%
X34266250Y34387793D02*
X34303750Y34425293D01*
X31303750Y34387793D02*
X34266250Y34387793D01*
%TO.N,Board_13-UPDI_RX*%
X39803750Y31550293D02*
X39278750Y31550293D01*
X43553750Y28770293D02*
X40773750Y31550293D01*
X39278750Y31550293D02*
X37053750Y33775293D01*
X40773750Y31550293D02*
X39803750Y31550293D01*
%TO.N,Board_13-UPDI_TX*%
X39803750Y34350293D02*
X40513750Y34350293D01*
X40513750Y34350293D02*
X43553750Y31310293D01*
%TO.N,Board_14-1*%
X61653750Y28930293D02*
X61653750Y29450293D01*
X53653750Y30550293D02*
X53653750Y29580293D01*
X61653750Y29450293D02*
X61253750Y29850293D01*
X52553750Y32762793D02*
X52553750Y31650293D01*
X53653750Y29580293D02*
X53396948Y29323491D01*
X64353750Y26230293D02*
X61653750Y28930293D01*
X52553750Y31650293D02*
X53653750Y30550293D01*
X61253750Y29850293D02*
X61253750Y29850293D01*
%TO.N,Board_14-2*%
X51153750Y31150293D02*
X51503750Y30800293D01*
X51503750Y28335294D02*
X52103751Y27735293D01*
X52103751Y27735293D02*
X53078750Y27735293D01*
X51503750Y30800293D02*
X51503750Y28335294D01*
X49553750Y33850293D02*
X51153750Y32250293D01*
X49303750Y33850293D02*
X49553750Y33850293D01*
X51153750Y32250293D02*
X51153750Y31150293D01*
%TO.N,Board_14-3*%
X51053750Y27850293D02*
X52438750Y26465293D01*
X54753750Y23762793D02*
X54091250Y23100293D01*
X52438750Y26465293D02*
X53078750Y26465293D01*
X49303750Y31385293D02*
X51053750Y29635293D01*
X53078750Y26465293D02*
X54338750Y26465293D01*
X54338750Y26465293D02*
X54753750Y26050293D01*
X51053750Y29635293D02*
X51053750Y27850293D01*
X54753750Y26050293D02*
X54753750Y23762793D01*
%TO.N,Board_14-4*%
X51353750Y26795293D02*
X51353750Y25945294D01*
X52103751Y25195293D02*
X53078750Y25195293D01*
X51353750Y25945294D02*
X52103751Y25195293D01*
X49303750Y28845293D02*
X51353750Y26795293D01*
%TO.N,Board_14-5*%
X55953750Y27850293D02*
X55953750Y27250293D01*
X60453750Y25490674D02*
X59788369Y24825293D01*
X54753750Y29050293D02*
X55953750Y27850293D01*
X59788369Y24825293D02*
X58398750Y24825293D01*
X58398750Y24825293D02*
X58028750Y25195293D01*
X60453750Y25750293D02*
X60453750Y25490674D01*
%TO.N,Board_14-6*%
X59853750Y27250293D02*
X59068750Y26465293D01*
X58053750Y31850293D02*
X60653750Y29250293D01*
X59853750Y27250293D02*
X60993750Y27250293D01*
X60993750Y27250293D02*
X64553750Y23690293D01*
X60653750Y29250293D02*
X60653750Y27250293D01*
X59068750Y26465293D02*
X58028750Y26465293D01*
%TO.N,Board_14-7*%
X55553750Y25250293D02*
X55553750Y25641201D01*
X55553750Y25641201D02*
X57647842Y27735293D01*
X57647842Y27735293D02*
X58028750Y27735293D01*
%TO.N,Board_14-8*%
X61628750Y23100293D02*
X61628750Y24325293D01*
X55303750Y32775293D02*
X55303750Y31730293D01*
X61628750Y24325293D02*
X61653750Y24350293D01*
X59074250Y29005293D02*
X58028750Y29005293D01*
X59929250Y28150293D02*
X59074250Y29005293D01*
X55303750Y31730293D02*
X58028750Y29005293D01*
%TO.N,Board_14-Net-(D1-K)*%
X59978750Y23100293D02*
X59978750Y23075293D01*
X53366250Y22250293D02*
X52516250Y23100293D01*
X59153750Y22250293D02*
X53366250Y22250293D01*
X59978750Y23075293D02*
X59153750Y22250293D01*
%TO.N,Board_14-Net-(D2-K)*%
X55266250Y34387793D02*
X55303750Y34425293D01*
X52303750Y34387793D02*
X55266250Y34387793D01*
%TO.N,Board_14-UPDI_RX*%
X64553750Y28770293D02*
X61773750Y31550293D01*
X60278750Y31550293D02*
X58053750Y33775293D01*
X61773750Y31550293D02*
X60803750Y31550293D01*
X60803750Y31550293D02*
X60278750Y31550293D01*
%TO.N,Board_14-UPDI_TX*%
X60803750Y34350293D02*
X61513750Y34350293D01*
X61513750Y34350293D02*
X64553750Y31310293D01*
%TO.N,Board_15-1*%
X85353750Y26230293D02*
X82653750Y28930293D01*
X82653750Y29450293D02*
X82253750Y29850293D01*
X82653750Y28930293D02*
X82653750Y29450293D01*
X73553750Y31650293D02*
X74653750Y30550293D01*
X74653750Y29580293D02*
X74396948Y29323491D01*
X82253750Y29850293D02*
X82253750Y29850293D01*
X74653750Y30550293D02*
X74653750Y29580293D01*
X73553750Y32762793D02*
X73553750Y31650293D01*
%TO.N,Board_15-2*%
X72503750Y28335294D02*
X73103751Y27735293D01*
X72153750Y32250293D02*
X72153750Y31150293D01*
X70303750Y33850293D02*
X70553750Y33850293D01*
X72503750Y30800293D02*
X72503750Y28335294D01*
X73103751Y27735293D02*
X74078750Y27735293D01*
X72153750Y31150293D02*
X72503750Y30800293D01*
X70553750Y33850293D02*
X72153750Y32250293D01*
%TO.N,Board_15-3*%
X70303750Y31385293D02*
X72053750Y29635293D01*
X75338750Y26465293D02*
X75753750Y26050293D01*
X72053750Y27850293D02*
X73438750Y26465293D01*
X73438750Y26465293D02*
X74078750Y26465293D01*
X75753750Y23762793D02*
X75091250Y23100293D01*
X72053750Y29635293D02*
X72053750Y27850293D01*
X74078750Y26465293D02*
X75338750Y26465293D01*
X75753750Y26050293D02*
X75753750Y23762793D01*
%TO.N,Board_15-4*%
X70303750Y28845293D02*
X72353750Y26795293D01*
X72353750Y25945294D02*
X73103751Y25195293D01*
X72353750Y26795293D02*
X72353750Y25945294D01*
X73103751Y25195293D02*
X74078750Y25195293D01*
%TO.N,Board_15-5*%
X75753750Y29050293D02*
X76953750Y27850293D01*
X76953750Y27850293D02*
X76953750Y27250293D01*
X80788369Y24825293D02*
X79398750Y24825293D01*
X79398750Y24825293D02*
X79028750Y25195293D01*
X81453750Y25750293D02*
X81453750Y25490674D01*
X81453750Y25490674D02*
X80788369Y24825293D01*
%TO.N,Board_15-6*%
X81993750Y27250293D02*
X85553750Y23690293D01*
X80853750Y27250293D02*
X81993750Y27250293D01*
X80853750Y27250293D02*
X80068750Y26465293D01*
X81653750Y29250293D02*
X81653750Y27250293D01*
X79053750Y31850293D02*
X81653750Y29250293D01*
X80068750Y26465293D02*
X79028750Y26465293D01*
%TO.N,Board_15-7*%
X78647842Y27735293D02*
X79028750Y27735293D01*
X76553750Y25250293D02*
X76553750Y25641201D01*
X76553750Y25641201D02*
X78647842Y27735293D01*
%TO.N,Board_15-8*%
X82628750Y24325293D02*
X82653750Y24350293D01*
X82628750Y23100293D02*
X82628750Y24325293D01*
X76303750Y31730293D02*
X79028750Y29005293D01*
X80929250Y28150293D02*
X80074250Y29005293D01*
X80074250Y29005293D02*
X79028750Y29005293D01*
X76303750Y32775293D02*
X76303750Y31730293D01*
%TO.N,Board_15-Net-(D1-K)*%
X80978750Y23100293D02*
X80978750Y23075293D01*
X80978750Y23075293D02*
X80153750Y22250293D01*
X74366250Y22250293D02*
X73516250Y23100293D01*
X80153750Y22250293D02*
X74366250Y22250293D01*
%TO.N,Board_15-Net-(D2-K)*%
X76266250Y34387793D02*
X76303750Y34425293D01*
X73303750Y34387793D02*
X76266250Y34387793D01*
%TO.N,Board_15-UPDI_RX*%
X85553750Y28770293D02*
X82773750Y31550293D01*
X81278750Y31550293D02*
X79053750Y33775293D01*
X82773750Y31550293D02*
X81803750Y31550293D01*
X81803750Y31550293D02*
X81278750Y31550293D01*
%TO.N,Board_15-UPDI_TX*%
X82513750Y34350293D02*
X85553750Y31310293D01*
X81803750Y34350293D02*
X82513750Y34350293D01*
%TO.N,Board_16-1*%
X19653750Y13350293D02*
X19253750Y13750293D01*
X10553750Y16662793D02*
X10553750Y15550293D01*
X22353750Y10130293D02*
X19653750Y12830293D01*
X10553750Y15550293D02*
X11653750Y14450293D01*
X11653750Y14450293D02*
X11653750Y13480293D01*
X19253750Y13750293D02*
X19253750Y13750293D01*
X11653750Y13480293D02*
X11396948Y13223491D01*
X19653750Y12830293D02*
X19653750Y13350293D01*
%TO.N,Board_16-2*%
X9503750Y14700293D02*
X9503750Y12235294D01*
X7553750Y17750293D02*
X9153750Y16150293D01*
X9153750Y15050293D02*
X9503750Y14700293D01*
X9503750Y12235294D02*
X10103751Y11635293D01*
X9153750Y16150293D02*
X9153750Y15050293D01*
X10103751Y11635293D02*
X11078750Y11635293D01*
X7303750Y17750293D02*
X7553750Y17750293D01*
%TO.N,Board_16-3*%
X12338750Y10365293D02*
X12753750Y9950293D01*
X9053750Y13535293D02*
X9053750Y11750293D01*
X12753750Y9950293D02*
X12753750Y7662793D01*
X10438750Y10365293D02*
X11078750Y10365293D01*
X11078750Y10365293D02*
X12338750Y10365293D01*
X7303750Y15285293D02*
X9053750Y13535293D01*
X9053750Y11750293D02*
X10438750Y10365293D01*
X12753750Y7662793D02*
X12091250Y7000293D01*
%TO.N,Board_16-4*%
X9353750Y9845294D02*
X10103751Y9095293D01*
X9353750Y10695293D02*
X9353750Y9845294D01*
X7303750Y12745293D02*
X9353750Y10695293D01*
X10103751Y9095293D02*
X11078750Y9095293D01*
%TO.N,Board_16-5*%
X18453750Y9650293D02*
X18453750Y9390674D01*
X17788369Y8725293D02*
X16398750Y8725293D01*
X18453750Y9390674D02*
X17788369Y8725293D01*
X13953750Y11750293D02*
X13953750Y11150293D01*
X12753750Y12950293D02*
X13953750Y11750293D01*
X16398750Y8725293D02*
X16028750Y9095293D01*
%TO.N,Board_16-6*%
X17068750Y10365293D02*
X16028750Y10365293D01*
X17853750Y11150293D02*
X17068750Y10365293D01*
X18653750Y13150293D02*
X18653750Y11150293D01*
X17853750Y11150293D02*
X18993750Y11150293D01*
X18993750Y11150293D02*
X22553750Y7590293D01*
X16053750Y15750293D02*
X18653750Y13150293D01*
%TO.N,Board_16-7*%
X13553750Y9541201D02*
X15647842Y11635293D01*
X15647842Y11635293D02*
X16028750Y11635293D01*
X13553750Y9150293D02*
X13553750Y9541201D01*
%TO.N,Board_16-8*%
X13303750Y15630293D02*
X16028750Y12905293D01*
X19628750Y7000293D02*
X19628750Y8225293D01*
X13303750Y16675293D02*
X13303750Y15630293D01*
X17929250Y12050293D02*
X17074250Y12905293D01*
X19628750Y8225293D02*
X19653750Y8250293D01*
X17074250Y12905293D02*
X16028750Y12905293D01*
%TO.N,Board_16-Net-(D1-K)*%
X11366250Y6150293D02*
X10516250Y7000293D01*
X17978750Y6975293D02*
X17153750Y6150293D01*
X17153750Y6150293D02*
X11366250Y6150293D01*
X17978750Y7000293D02*
X17978750Y6975293D01*
%TO.N,Board_16-Net-(D2-K)*%
X13266250Y18287793D02*
X13303750Y18325293D01*
X10303750Y18287793D02*
X13266250Y18287793D01*
%TO.N,Board_16-UPDI_RX*%
X22553750Y12670293D02*
X19773750Y15450293D01*
X19773750Y15450293D02*
X18803750Y15450293D01*
X18803750Y15450293D02*
X18278750Y15450293D01*
X18278750Y15450293D02*
X16053750Y17675293D01*
%TO.N,Board_16-UPDI_TX*%
X19513750Y18250293D02*
X22553750Y15210293D01*
X18803750Y18250293D02*
X19513750Y18250293D01*
%TO.N,Board_17-1*%
X32653750Y14450293D02*
X32653750Y13480293D01*
X40653750Y12830293D02*
X40653750Y13350293D01*
X31553750Y16662793D02*
X31553750Y15550293D01*
X40653750Y13350293D02*
X40253750Y13750293D01*
X31553750Y15550293D02*
X32653750Y14450293D01*
X32653750Y13480293D02*
X32396948Y13223491D01*
X40253750Y13750293D02*
X40253750Y13750293D01*
X43353750Y10130293D02*
X40653750Y12830293D01*
%TO.N,Board_17-2*%
X30503750Y14700293D02*
X30503750Y12235294D01*
X30153750Y15050293D02*
X30503750Y14700293D01*
X30503750Y12235294D02*
X31103751Y11635293D01*
X28553750Y17750293D02*
X30153750Y16150293D01*
X30153750Y16150293D02*
X30153750Y15050293D01*
X31103751Y11635293D02*
X32078750Y11635293D01*
X28303750Y17750293D02*
X28553750Y17750293D01*
%TO.N,Board_17-3*%
X30053750Y11750293D02*
X31438750Y10365293D01*
X31438750Y10365293D02*
X32078750Y10365293D01*
X33338750Y10365293D02*
X33753750Y9950293D01*
X33753750Y7662793D02*
X33091250Y7000293D01*
X32078750Y10365293D02*
X33338750Y10365293D01*
X33753750Y9950293D02*
X33753750Y7662793D01*
X30053750Y13535293D02*
X30053750Y11750293D01*
X28303750Y15285293D02*
X30053750Y13535293D01*
%TO.N,Board_17-4*%
X30353750Y9845294D02*
X31103751Y9095293D01*
X28303750Y12745293D02*
X30353750Y10695293D01*
X31103751Y9095293D02*
X32078750Y9095293D01*
X30353750Y10695293D02*
X30353750Y9845294D01*
%TO.N,Board_17-5*%
X37398750Y8725293D02*
X37028750Y9095293D01*
X39453750Y9650293D02*
X39453750Y9390674D01*
X33753750Y12950293D02*
X34953750Y11750293D01*
X39453750Y9390674D02*
X38788369Y8725293D01*
X34953750Y11750293D02*
X34953750Y11150293D01*
X38788369Y8725293D02*
X37398750Y8725293D01*
%TO.N,Board_17-6*%
X39653750Y13150293D02*
X39653750Y11150293D01*
X37053750Y15750293D02*
X39653750Y13150293D01*
X38853750Y11150293D02*
X38068750Y10365293D01*
X39993750Y11150293D02*
X43553750Y7590293D01*
X38068750Y10365293D02*
X37028750Y10365293D01*
X38853750Y11150293D02*
X39993750Y11150293D01*
%TO.N,Board_17-7*%
X34553750Y9150293D02*
X34553750Y9541201D01*
X36647842Y11635293D02*
X37028750Y11635293D01*
X34553750Y9541201D02*
X36647842Y11635293D01*
%TO.N,Board_17-8*%
X40628750Y7000293D02*
X40628750Y8225293D01*
X34303750Y15630293D02*
X37028750Y12905293D01*
X38929250Y12050293D02*
X38074250Y12905293D01*
X40628750Y8225293D02*
X40653750Y8250293D01*
X34303750Y16675293D02*
X34303750Y15630293D01*
X38074250Y12905293D02*
X37028750Y12905293D01*
%TO.N,Board_17-Net-(D1-K)*%
X38978750Y6975293D02*
X38153750Y6150293D01*
X32366250Y6150293D02*
X31516250Y7000293D01*
X38978750Y7000293D02*
X38978750Y6975293D01*
X38153750Y6150293D02*
X32366250Y6150293D01*
%TO.N,Board_17-Net-(D2-K)*%
X34266250Y18287793D02*
X34303750Y18325293D01*
X31303750Y18287793D02*
X34266250Y18287793D01*
%TO.N,Board_17-UPDI_RX*%
X39803750Y15450293D02*
X39278750Y15450293D01*
X40773750Y15450293D02*
X39803750Y15450293D01*
X43553750Y12670293D02*
X40773750Y15450293D01*
X39278750Y15450293D02*
X37053750Y17675293D01*
%TO.N,Board_17-UPDI_TX*%
X39803750Y18250293D02*
X40513750Y18250293D01*
X40513750Y18250293D02*
X43553750Y15210293D01*
%TO.N,Board_18-1*%
X64353750Y10130293D02*
X61653750Y12830293D01*
X61653750Y13350293D02*
X61253750Y13750293D01*
X53653750Y14450293D02*
X53653750Y13480293D01*
X61653750Y12830293D02*
X61653750Y13350293D01*
X52553750Y16662793D02*
X52553750Y15550293D01*
X53653750Y13480293D02*
X53396948Y13223491D01*
X61253750Y13750293D02*
X61253750Y13750293D01*
X52553750Y15550293D02*
X53653750Y14450293D01*
%TO.N,Board_18-2*%
X51503750Y14700293D02*
X51503750Y12235294D01*
X49553750Y17750293D02*
X51153750Y16150293D01*
X51153750Y15050293D02*
X51503750Y14700293D01*
X49303750Y17750293D02*
X49553750Y17750293D01*
X51153750Y16150293D02*
X51153750Y15050293D01*
X51503750Y12235294D02*
X52103751Y11635293D01*
X52103751Y11635293D02*
X53078750Y11635293D01*
%TO.N,Board_18-3*%
X52438750Y10365293D02*
X53078750Y10365293D01*
X53078750Y10365293D02*
X54338750Y10365293D01*
X51053750Y11750293D02*
X52438750Y10365293D01*
X54753750Y7662793D02*
X54091250Y7000293D01*
X54338750Y10365293D02*
X54753750Y9950293D01*
X49303750Y15285293D02*
X51053750Y13535293D01*
X51053750Y13535293D02*
X51053750Y11750293D01*
X54753750Y9950293D02*
X54753750Y7662793D01*
%TO.N,Board_18-4*%
X51353750Y9845294D02*
X52103751Y9095293D01*
X49303750Y12745293D02*
X51353750Y10695293D01*
X52103751Y9095293D02*
X53078750Y9095293D01*
X51353750Y10695293D02*
X51353750Y9845294D01*
%TO.N,Board_18-5*%
X54753750Y12950293D02*
X55953750Y11750293D01*
X58398750Y8725293D02*
X58028750Y9095293D01*
X59788369Y8725293D02*
X58398750Y8725293D01*
X60453750Y9390674D02*
X59788369Y8725293D01*
X55953750Y11750293D02*
X55953750Y11150293D01*
X60453750Y9650293D02*
X60453750Y9390674D01*
%TO.N,Board_18-6*%
X60993750Y11150293D02*
X64553750Y7590293D01*
X59068750Y10365293D02*
X58028750Y10365293D01*
X59853750Y11150293D02*
X60993750Y11150293D01*
X60653750Y13150293D02*
X60653750Y11150293D01*
X59853750Y11150293D02*
X59068750Y10365293D01*
X58053750Y15750293D02*
X60653750Y13150293D01*
%TO.N,Board_18-7*%
X55553750Y9150293D02*
X55553750Y9541201D01*
X57647842Y11635293D02*
X58028750Y11635293D01*
X55553750Y9541201D02*
X57647842Y11635293D01*
%TO.N,Board_18-8*%
X61628750Y8225293D02*
X61653750Y8250293D01*
X59929250Y12050293D02*
X59074250Y12905293D01*
X59074250Y12905293D02*
X58028750Y12905293D01*
X61628750Y7000293D02*
X61628750Y8225293D01*
X55303750Y16675293D02*
X55303750Y15630293D01*
X55303750Y15630293D02*
X58028750Y12905293D01*
%TO.N,Board_18-Net-(D1-K)*%
X59978750Y7000293D02*
X59978750Y6975293D01*
X53366250Y6150293D02*
X52516250Y7000293D01*
X59978750Y6975293D02*
X59153750Y6150293D01*
X59153750Y6150293D02*
X53366250Y6150293D01*
%TO.N,Board_18-Net-(D2-K)*%
X55266250Y18287793D02*
X55303750Y18325293D01*
X52303750Y18287793D02*
X55266250Y18287793D01*
%TO.N,Board_18-UPDI_RX*%
X60803750Y15450293D02*
X60278750Y15450293D01*
X61773750Y15450293D02*
X60803750Y15450293D01*
X64553750Y12670293D02*
X61773750Y15450293D01*
X60278750Y15450293D02*
X58053750Y17675293D01*
%TO.N,Board_18-UPDI_TX*%
X61513750Y18250293D02*
X64553750Y15210293D01*
X60803750Y18250293D02*
X61513750Y18250293D01*
%TO.N,Board_19-1*%
X74653750Y14450293D02*
X74653750Y13480293D01*
X73553750Y16662793D02*
X73553750Y15550293D01*
X85353750Y10130293D02*
X82653750Y12830293D01*
X82653750Y13350293D02*
X82253750Y13750293D01*
X74653750Y13480293D02*
X74396948Y13223491D01*
X82653750Y12830293D02*
X82653750Y13350293D01*
X73553750Y15550293D02*
X74653750Y14450293D01*
X82253750Y13750293D02*
X82253750Y13750293D01*
%TO.N,Board_19-2*%
X72503750Y12235294D02*
X73103751Y11635293D01*
X73103751Y11635293D02*
X74078750Y11635293D01*
X70553750Y17750293D02*
X72153750Y16150293D01*
X72153750Y15050293D02*
X72503750Y14700293D01*
X72503750Y14700293D02*
X72503750Y12235294D01*
X72153750Y16150293D02*
X72153750Y15050293D01*
X70303750Y17750293D02*
X70553750Y17750293D01*
%TO.N,Board_19-3*%
X75753750Y9950293D02*
X75753750Y7662793D01*
X70303750Y15285293D02*
X72053750Y13535293D01*
X75338750Y10365293D02*
X75753750Y9950293D01*
X74078750Y10365293D02*
X75338750Y10365293D01*
X72053750Y13535293D02*
X72053750Y11750293D01*
X75753750Y7662793D02*
X75091250Y7000293D01*
X73438750Y10365293D02*
X74078750Y10365293D01*
X72053750Y11750293D02*
X73438750Y10365293D01*
%TO.N,Board_19-4*%
X72353750Y10695293D02*
X72353750Y9845294D01*
X72353750Y9845294D02*
X73103751Y9095293D01*
X70303750Y12745293D02*
X72353750Y10695293D01*
X73103751Y9095293D02*
X74078750Y9095293D01*
%TO.N,Board_19-5*%
X75753750Y12950293D02*
X76953750Y11750293D01*
X80788369Y8725293D02*
X79398750Y8725293D01*
X81453750Y9390674D02*
X80788369Y8725293D01*
X76953750Y11750293D02*
X76953750Y11150293D01*
X79398750Y8725293D02*
X79028750Y9095293D01*
X81453750Y9650293D02*
X81453750Y9390674D01*
%TO.N,Board_19-6*%
X80068750Y10365293D02*
X79028750Y10365293D01*
X80853750Y11150293D02*
X80068750Y10365293D01*
X81993750Y11150293D02*
X85553750Y7590293D01*
X79053750Y15750293D02*
X81653750Y13150293D01*
X80853750Y11150293D02*
X81993750Y11150293D01*
X81653750Y13150293D02*
X81653750Y11150293D01*
%TO.N,Board_19-7*%
X76553750Y9541201D02*
X78647842Y11635293D01*
X76553750Y9150293D02*
X76553750Y9541201D01*
X78647842Y11635293D02*
X79028750Y11635293D01*
%TO.N,Board_19-8*%
X80074250Y12905293D02*
X79028750Y12905293D01*
X82628750Y8225293D02*
X82653750Y8250293D01*
X80929250Y12050293D02*
X80074250Y12905293D01*
X76303750Y16675293D02*
X76303750Y15630293D01*
X82628750Y7000293D02*
X82628750Y8225293D01*
X76303750Y15630293D02*
X79028750Y12905293D01*
%TO.N,Board_19-Net-(D1-K)*%
X80978750Y7000293D02*
X80978750Y6975293D01*
X80153750Y6150293D02*
X74366250Y6150293D01*
X74366250Y6150293D02*
X73516250Y7000293D01*
X80978750Y6975293D02*
X80153750Y6150293D01*
%TO.N,Board_19-Net-(D2-K)*%
X73303750Y18287793D02*
X76266250Y18287793D01*
X76266250Y18287793D02*
X76303750Y18325293D01*
%TO.N,Board_19-UPDI_RX*%
X81803750Y15450293D02*
X81278750Y15450293D01*
X81278750Y15450293D02*
X79053750Y17675293D01*
X85553750Y12670293D02*
X82773750Y15450293D01*
X82773750Y15450293D02*
X81803750Y15450293D01*
%TO.N,Board_19-UPDI_TX*%
X82513750Y18250293D02*
X85553750Y15210293D01*
X81803750Y18250293D02*
X82513750Y18250293D01*
%TD*%
M02*
