%TF.GenerationSoftware,KiCad,Pcbnew,7.0.9*%
%TF.CreationDate,2024-07-19T15:30:45+09:00*%
%TF.ProjectId,panelize,70616e65-6c69-47a6-952e-6b696361645f,rev?*%
%TF.SameCoordinates,PX39748eaPY88a96c5*%
%TF.FileFunction,Paste,Top*%
%TF.FilePolarity,Positive*%
%FSLAX46Y46*%
G04 Gerber Fmt 4.6, Leading zero omitted, Abs format (unit mm)*
G04 Created by KiCad (PCBNEW 7.0.9) date 2024-07-19 15:30:45*
%MOMM*%
%LPD*%
G01*
G04 APERTURE LIST*
G04 Aperture macros list*
%AMRoundRect*
0 Rectangle with rounded corners*
0 $1 Rounding radius*
0 $2 $3 $4 $5 $6 $7 $8 $9 X,Y pos of 4 corners*
0 Add a 4 corners polygon primitive as box body*
4,1,4,$2,$3,$4,$5,$6,$7,$8,$9,$2,$3,0*
0 Add four circle primitives for the rounded corners*
1,1,$1+$1,$2,$3*
1,1,$1+$1,$4,$5*
1,1,$1+$1,$6,$7*
1,1,$1+$1,$8,$9*
0 Add four rect primitives between the rounded corners*
20,1,$1+$1,$2,$3,$4,$5,0*
20,1,$1+$1,$4,$5,$6,$7,0*
20,1,$1+$1,$6,$7,$8,$9,0*
20,1,$1+$1,$8,$9,$2,$3,0*%
G04 Aperture macros list end*
%ADD10RoundRect,0.200000X-0.275000X0.200000X-0.275000X-0.200000X0.275000X-0.200000X0.275000X0.200000X0*%
%ADD11RoundRect,0.150000X-0.825000X-0.150000X0.825000X-0.150000X0.825000X0.150000X-0.825000X0.150000X0*%
%ADD12RoundRect,0.200000X0.275000X-0.200000X0.275000X0.200000X-0.275000X0.200000X-0.275000X-0.200000X0*%
%ADD13RoundRect,0.250000X0.625000X-0.375000X0.625000X0.375000X-0.625000X0.375000X-0.625000X-0.375000X0*%
%ADD14RoundRect,0.200000X-0.200000X-0.275000X0.200000X-0.275000X0.200000X0.275000X-0.200000X0.275000X0*%
%ADD15RoundRect,0.218750X-0.218750X-0.256250X0.218750X-0.256250X0.218750X0.256250X-0.218750X0.256250X0*%
%ADD16RoundRect,0.218750X-0.256250X0.218750X-0.256250X-0.218750X0.256250X-0.218750X0.256250X0.218750X0*%
G04 APERTURE END LIST*
D10*
%TO.C,R2*%
X76303750Y81075293D03*
X76303750Y82725293D03*
%TD*%
D11*
%TO.C,U1*%
X37028750Y61205293D03*
X37028750Y59935293D03*
X37028750Y58665293D03*
X37028750Y57395293D03*
X32078750Y57395293D03*
X32078750Y58665293D03*
X32078750Y59935293D03*
X32078750Y61205293D03*
%TD*%
D12*
%TO.C,470*%
X58153750Y81875293D03*
X58153750Y80225293D03*
%TD*%
D13*
%TO.C,D3*%
X39753750Y66750293D03*
X39753750Y63950293D03*
%TD*%
D14*
%TO.C,R1*%
X82628750Y55300293D03*
X80978750Y55300293D03*
%TD*%
D10*
%TO.C,R2*%
X76303750Y48875293D03*
X76303750Y50525293D03*
%TD*%
D13*
%TO.C,D3*%
X39753750Y82850293D03*
X39753750Y80050293D03*
%TD*%
D14*
%TO.C,R1*%
X19628750Y23100293D03*
X17978750Y23100293D03*
%TD*%
D12*
%TO.C,470*%
X37153750Y33575293D03*
X37153750Y31925293D03*
%TD*%
D13*
%TO.C,D3*%
X18753750Y34550293D03*
X18753750Y31750293D03*
%TD*%
D15*
%TO.C,LED1*%
X33091250Y39200293D03*
X31516250Y39200293D03*
%TD*%
D10*
%TO.C,R2*%
X55303750Y64975293D03*
X55303750Y66625293D03*
%TD*%
D14*
%TO.C,R1*%
X40628750Y7000293D03*
X38978750Y7000293D03*
%TD*%
D12*
%TO.C,470*%
X58153750Y17475293D03*
X58153750Y15825293D03*
%TD*%
D11*
%TO.C,U1*%
X37028750Y45105293D03*
X37028750Y43835293D03*
X37028750Y42565293D03*
X37028750Y41295293D03*
X32078750Y41295293D03*
X32078750Y42565293D03*
X32078750Y43835293D03*
X32078750Y45105293D03*
%TD*%
D16*
%TO.C,LED2*%
X73553750Y32762793D03*
X73553750Y34337793D03*
%TD*%
D14*
%TO.C,R1*%
X19628750Y71400293D03*
X17978750Y71400293D03*
%TD*%
D10*
%TO.C,R2*%
X34303750Y32775293D03*
X34303750Y34425293D03*
%TD*%
D15*
%TO.C,LED1*%
X75091250Y55300293D03*
X73516250Y55300293D03*
%TD*%
D11*
%TO.C,U1*%
X58028750Y12905293D03*
X58028750Y11635293D03*
X58028750Y10365293D03*
X58028750Y9095293D03*
X53078750Y9095293D03*
X53078750Y10365293D03*
X53078750Y11635293D03*
X53078750Y12905293D03*
%TD*%
%TO.C,U1*%
X79028750Y45105293D03*
X79028750Y43835293D03*
X79028750Y42565293D03*
X79028750Y41295293D03*
X74078750Y41295293D03*
X74078750Y42565293D03*
X74078750Y43835293D03*
X74078750Y45105293D03*
%TD*%
D15*
%TO.C,LED1*%
X54091250Y23100293D03*
X52516250Y23100293D03*
%TD*%
D13*
%TO.C,D3*%
X60753750Y82850293D03*
X60753750Y80050293D03*
%TD*%
%TO.C,D3*%
X60753750Y34550293D03*
X60753750Y31750293D03*
%TD*%
D16*
%TO.C,LED2*%
X10553750Y64962793D03*
X10553750Y66537793D03*
%TD*%
%TO.C,LED2*%
X10553750Y48862793D03*
X10553750Y50437793D03*
%TD*%
D13*
%TO.C,D3*%
X18753750Y18450293D03*
X18753750Y15650293D03*
%TD*%
D11*
%TO.C,U1*%
X16028750Y12905293D03*
X16028750Y11635293D03*
X16028750Y10365293D03*
X16028750Y9095293D03*
X11078750Y9095293D03*
X11078750Y10365293D03*
X11078750Y11635293D03*
X11078750Y12905293D03*
%TD*%
D12*
%TO.C,470*%
X37153750Y81875293D03*
X37153750Y80225293D03*
%TD*%
%TO.C,470*%
X16153750Y17475293D03*
X16153750Y15825293D03*
%TD*%
D15*
%TO.C,LED1*%
X75091250Y23100293D03*
X73516250Y23100293D03*
%TD*%
D16*
%TO.C,LED2*%
X10553750Y81062793D03*
X10553750Y82637793D03*
%TD*%
D14*
%TO.C,R1*%
X82628750Y23100293D03*
X80978750Y23100293D03*
%TD*%
D12*
%TO.C,470*%
X79153750Y65775293D03*
X79153750Y64125293D03*
%TD*%
D16*
%TO.C,LED2*%
X31553750Y81062793D03*
X31553750Y82637793D03*
%TD*%
D10*
%TO.C,R2*%
X55303750Y16675293D03*
X55303750Y18325293D03*
%TD*%
D14*
%TO.C,R1*%
X40628750Y39200293D03*
X38978750Y39200293D03*
%TD*%
D10*
%TO.C,R2*%
X55303750Y48875293D03*
X55303750Y50525293D03*
%TD*%
%TO.C,R2*%
X76303750Y32775293D03*
X76303750Y34425293D03*
%TD*%
%TO.C,R2*%
X34303750Y16675293D03*
X34303750Y18325293D03*
%TD*%
D15*
%TO.C,LED1*%
X33091250Y71400293D03*
X31516250Y71400293D03*
%TD*%
D11*
%TO.C,U1*%
X58028750Y77305293D03*
X58028750Y76035293D03*
X58028750Y74765293D03*
X58028750Y73495293D03*
X53078750Y73495293D03*
X53078750Y74765293D03*
X53078750Y76035293D03*
X53078750Y77305293D03*
%TD*%
D13*
%TO.C,D3*%
X81753750Y82850293D03*
X81753750Y80050293D03*
%TD*%
D10*
%TO.C,R2*%
X55303750Y32775293D03*
X55303750Y34425293D03*
%TD*%
D15*
%TO.C,LED1*%
X54091250Y39200293D03*
X52516250Y39200293D03*
%TD*%
D16*
%TO.C,LED2*%
X31553750Y16662793D03*
X31553750Y18237793D03*
%TD*%
D13*
%TO.C,D3*%
X60753750Y66750293D03*
X60753750Y63950293D03*
%TD*%
D11*
%TO.C,U1*%
X16028750Y29005293D03*
X16028750Y27735293D03*
X16028750Y26465293D03*
X16028750Y25195293D03*
X11078750Y25195293D03*
X11078750Y26465293D03*
X11078750Y27735293D03*
X11078750Y29005293D03*
%TD*%
D14*
%TO.C,R1*%
X40628750Y55300293D03*
X38978750Y55300293D03*
%TD*%
D13*
%TO.C,D3*%
X18753750Y50650293D03*
X18753750Y47850293D03*
%TD*%
D14*
%TO.C,R1*%
X40628750Y71400293D03*
X38978750Y71400293D03*
%TD*%
D16*
%TO.C,LED2*%
X52553750Y48862793D03*
X52553750Y50437793D03*
%TD*%
%TO.C,LED2*%
X73553750Y48862793D03*
X73553750Y50437793D03*
%TD*%
D11*
%TO.C,U1*%
X16028750Y77305293D03*
X16028750Y76035293D03*
X16028750Y74765293D03*
X16028750Y73495293D03*
X11078750Y73495293D03*
X11078750Y74765293D03*
X11078750Y76035293D03*
X11078750Y77305293D03*
%TD*%
D15*
%TO.C,LED1*%
X12091250Y71400293D03*
X10516250Y71400293D03*
%TD*%
D12*
%TO.C,470*%
X58153750Y33575293D03*
X58153750Y31925293D03*
%TD*%
D11*
%TO.C,U1*%
X16028750Y45105293D03*
X16028750Y43835293D03*
X16028750Y42565293D03*
X16028750Y41295293D03*
X11078750Y41295293D03*
X11078750Y42565293D03*
X11078750Y43835293D03*
X11078750Y45105293D03*
%TD*%
D10*
%TO.C,R2*%
X55303750Y81075293D03*
X55303750Y82725293D03*
%TD*%
D13*
%TO.C,D3*%
X81753750Y18450293D03*
X81753750Y15650293D03*
%TD*%
D10*
%TO.C,R2*%
X76303750Y64975293D03*
X76303750Y66625293D03*
%TD*%
D14*
%TO.C,R1*%
X61628750Y7000293D03*
X59978750Y7000293D03*
%TD*%
D15*
%TO.C,LED1*%
X33091250Y23100293D03*
X31516250Y23100293D03*
%TD*%
D11*
%TO.C,U1*%
X79028750Y12905293D03*
X79028750Y11635293D03*
X79028750Y10365293D03*
X79028750Y9095293D03*
X74078750Y9095293D03*
X74078750Y10365293D03*
X74078750Y11635293D03*
X74078750Y12905293D03*
%TD*%
D16*
%TO.C,LED2*%
X73553750Y64962793D03*
X73553750Y66537793D03*
%TD*%
%TO.C,LED2*%
X10553750Y32762793D03*
X10553750Y34337793D03*
%TD*%
D15*
%TO.C,LED1*%
X33091250Y55300293D03*
X31516250Y55300293D03*
%TD*%
D13*
%TO.C,D3*%
X39753750Y18450293D03*
X39753750Y15650293D03*
%TD*%
D16*
%TO.C,LED2*%
X10553750Y16662793D03*
X10553750Y18237793D03*
%TD*%
D14*
%TO.C,R1*%
X61628750Y55300293D03*
X59978750Y55300293D03*
%TD*%
D13*
%TO.C,D3*%
X39753750Y34550293D03*
X39753750Y31750293D03*
%TD*%
D12*
%TO.C,470*%
X37153750Y49675293D03*
X37153750Y48025293D03*
%TD*%
D14*
%TO.C,R1*%
X61628750Y39200293D03*
X59978750Y39200293D03*
%TD*%
D12*
%TO.C,470*%
X16153750Y65775293D03*
X16153750Y64125293D03*
%TD*%
D13*
%TO.C,D3*%
X81753750Y34550293D03*
X81753750Y31750293D03*
%TD*%
D16*
%TO.C,LED2*%
X52553750Y16662793D03*
X52553750Y18237793D03*
%TD*%
D10*
%TO.C,R2*%
X13303750Y48875293D03*
X13303750Y50525293D03*
%TD*%
D14*
%TO.C,R1*%
X82628750Y39200293D03*
X80978750Y39200293D03*
%TD*%
D11*
%TO.C,U1*%
X79028750Y61205293D03*
X79028750Y59935293D03*
X79028750Y58665293D03*
X79028750Y57395293D03*
X74078750Y57395293D03*
X74078750Y58665293D03*
X74078750Y59935293D03*
X74078750Y61205293D03*
%TD*%
D12*
%TO.C,470*%
X79153750Y17475293D03*
X79153750Y15825293D03*
%TD*%
D13*
%TO.C,D3*%
X60753750Y18450293D03*
X60753750Y15650293D03*
%TD*%
D11*
%TO.C,U1*%
X58028750Y29005293D03*
X58028750Y27735293D03*
X58028750Y26465293D03*
X58028750Y25195293D03*
X53078750Y25195293D03*
X53078750Y26465293D03*
X53078750Y27735293D03*
X53078750Y29005293D03*
%TD*%
D16*
%TO.C,LED2*%
X31553750Y32762793D03*
X31553750Y34337793D03*
%TD*%
D14*
%TO.C,R1*%
X82628750Y71400293D03*
X80978750Y71400293D03*
%TD*%
D15*
%TO.C,LED1*%
X75091250Y71400293D03*
X73516250Y71400293D03*
%TD*%
D11*
%TO.C,U1*%
X16028750Y61205293D03*
X16028750Y59935293D03*
X16028750Y58665293D03*
X16028750Y57395293D03*
X11078750Y57395293D03*
X11078750Y58665293D03*
X11078750Y59935293D03*
X11078750Y61205293D03*
%TD*%
%TO.C,U1*%
X37028750Y77305293D03*
X37028750Y76035293D03*
X37028750Y74765293D03*
X37028750Y73495293D03*
X32078750Y73495293D03*
X32078750Y74765293D03*
X32078750Y76035293D03*
X32078750Y77305293D03*
%TD*%
D10*
%TO.C,R2*%
X13303750Y81075293D03*
X13303750Y82725293D03*
%TD*%
D11*
%TO.C,U1*%
X79028750Y77305293D03*
X79028750Y76035293D03*
X79028750Y74765293D03*
X79028750Y73495293D03*
X74078750Y73495293D03*
X74078750Y74765293D03*
X74078750Y76035293D03*
X74078750Y77305293D03*
%TD*%
D13*
%TO.C,D3*%
X39753750Y50650293D03*
X39753750Y47850293D03*
%TD*%
%TO.C,D3*%
X18753750Y82850293D03*
X18753750Y80050293D03*
%TD*%
D16*
%TO.C,LED2*%
X73553750Y81062793D03*
X73553750Y82637793D03*
%TD*%
D11*
%TO.C,U1*%
X58028750Y61205293D03*
X58028750Y59935293D03*
X58028750Y58665293D03*
X58028750Y57395293D03*
X53078750Y57395293D03*
X53078750Y58665293D03*
X53078750Y59935293D03*
X53078750Y61205293D03*
%TD*%
D12*
%TO.C,470*%
X16153750Y33575293D03*
X16153750Y31925293D03*
%TD*%
D10*
%TO.C,R2*%
X13303750Y16675293D03*
X13303750Y18325293D03*
%TD*%
%TO.C,R2*%
X34303750Y64975293D03*
X34303750Y66625293D03*
%TD*%
%TO.C,R2*%
X34303750Y81075293D03*
X34303750Y82725293D03*
%TD*%
D11*
%TO.C,U1*%
X79028750Y29005293D03*
X79028750Y27735293D03*
X79028750Y26465293D03*
X79028750Y25195293D03*
X74078750Y25195293D03*
X74078750Y26465293D03*
X74078750Y27735293D03*
X74078750Y29005293D03*
%TD*%
D16*
%TO.C,LED2*%
X31553750Y48862793D03*
X31553750Y50437793D03*
%TD*%
D14*
%TO.C,R1*%
X19628750Y55300293D03*
X17978750Y55300293D03*
%TD*%
D11*
%TO.C,U1*%
X37028750Y12905293D03*
X37028750Y11635293D03*
X37028750Y10365293D03*
X37028750Y9095293D03*
X32078750Y9095293D03*
X32078750Y10365293D03*
X32078750Y11635293D03*
X32078750Y12905293D03*
%TD*%
D12*
%TO.C,470*%
X37153750Y65775293D03*
X37153750Y64125293D03*
%TD*%
D15*
%TO.C,LED1*%
X33091250Y7000293D03*
X31516250Y7000293D03*
%TD*%
D12*
%TO.C,470*%
X79153750Y81875293D03*
X79153750Y80225293D03*
%TD*%
D10*
%TO.C,R2*%
X34303750Y48875293D03*
X34303750Y50525293D03*
%TD*%
D12*
%TO.C,470*%
X37153750Y17475293D03*
X37153750Y15825293D03*
%TD*%
%TO.C,470*%
X79153750Y49675293D03*
X79153750Y48025293D03*
%TD*%
D16*
%TO.C,LED2*%
X52553750Y32762793D03*
X52553750Y34337793D03*
%TD*%
D10*
%TO.C,R2*%
X13303750Y32775293D03*
X13303750Y34425293D03*
%TD*%
D15*
%TO.C,LED1*%
X75091250Y7000293D03*
X73516250Y7000293D03*
%TD*%
D12*
%TO.C,470*%
X79153750Y33575293D03*
X79153750Y31925293D03*
%TD*%
D15*
%TO.C,LED1*%
X12091250Y39200293D03*
X10516250Y39200293D03*
%TD*%
%TO.C,LED1*%
X75091250Y39200293D03*
X73516250Y39200293D03*
%TD*%
D14*
%TO.C,R1*%
X61628750Y71400293D03*
X59978750Y71400293D03*
%TD*%
D13*
%TO.C,D3*%
X60753750Y50650293D03*
X60753750Y47850293D03*
%TD*%
D15*
%TO.C,LED1*%
X54091250Y7000293D03*
X52516250Y7000293D03*
%TD*%
D14*
%TO.C,R1*%
X19628750Y39200293D03*
X17978750Y39200293D03*
%TD*%
D11*
%TO.C,U1*%
X37028750Y29005293D03*
X37028750Y27735293D03*
X37028750Y26465293D03*
X37028750Y25195293D03*
X32078750Y25195293D03*
X32078750Y26465293D03*
X32078750Y27735293D03*
X32078750Y29005293D03*
%TD*%
D12*
%TO.C,470*%
X58153750Y65775293D03*
X58153750Y64125293D03*
%TD*%
D13*
%TO.C,D3*%
X18753750Y66750293D03*
X18753750Y63950293D03*
%TD*%
D16*
%TO.C,LED2*%
X52553750Y64962793D03*
X52553750Y66537793D03*
%TD*%
D15*
%TO.C,LED1*%
X12091250Y55300293D03*
X10516250Y55300293D03*
%TD*%
%TO.C,LED1*%
X54091250Y71400293D03*
X52516250Y71400293D03*
%TD*%
%TO.C,LED1*%
X54091250Y55300293D03*
X52516250Y55300293D03*
%TD*%
D12*
%TO.C,470*%
X16153750Y49675293D03*
X16153750Y48025293D03*
%TD*%
D14*
%TO.C,R1*%
X19628750Y7000293D03*
X17978750Y7000293D03*
%TD*%
D13*
%TO.C,D3*%
X81753750Y50650293D03*
X81753750Y47850293D03*
%TD*%
D14*
%TO.C,R1*%
X40628750Y23100293D03*
X38978750Y23100293D03*
%TD*%
D11*
%TO.C,U1*%
X58028750Y45105293D03*
X58028750Y43835293D03*
X58028750Y42565293D03*
X58028750Y41295293D03*
X53078750Y41295293D03*
X53078750Y42565293D03*
X53078750Y43835293D03*
X53078750Y45105293D03*
%TD*%
D12*
%TO.C,470*%
X16153750Y81875293D03*
X16153750Y80225293D03*
%TD*%
%TO.C,470*%
X58153750Y49675293D03*
X58153750Y48025293D03*
%TD*%
D10*
%TO.C,R2*%
X13303750Y64975293D03*
X13303750Y66625293D03*
%TD*%
D16*
%TO.C,LED2*%
X73553750Y16662793D03*
X73553750Y18237793D03*
%TD*%
%TO.C,LED2*%
X31553750Y64962793D03*
X31553750Y66537793D03*
%TD*%
D15*
%TO.C,LED1*%
X12091250Y7000293D03*
X10516250Y7000293D03*
%TD*%
D16*
%TO.C,LED2*%
X52553750Y81062793D03*
X52553750Y82637793D03*
%TD*%
D14*
%TO.C,R1*%
X82628750Y7000293D03*
X80978750Y7000293D03*
%TD*%
D15*
%TO.C,LED1*%
X12091250Y23100293D03*
X10516250Y23100293D03*
%TD*%
D14*
%TO.C,R1*%
X61628750Y23100293D03*
X59978750Y23100293D03*
%TD*%
D13*
%TO.C,D3*%
X81753750Y66750293D03*
X81753750Y63950293D03*
%TD*%
D10*
%TO.C,R2*%
X76303750Y16675293D03*
X76303750Y18325293D03*
%TD*%
M02*
